<mxfile host="app.diagrams.net" modified="2020-12-22T04:41:14.022Z" agent="5.0 (X11)" etag="jbEQgkRCPejK8ms3EZzk" version="14.1.1" type="github" pages="5">
  <diagram name="Node Types" id="t18ifi3AElcaGuGD9-XV">
    <mxGraphModel dx="673" dy="389" grid="1" gridSize="10" guides="1" tooltips="1" connect="1" arrows="1" fold="1" page="1" pageScale="1" pageWidth="2339" pageHeight="3300" math="0" shadow="0">
      <root>
        <mxCell id="pttRT5z6rKzQrrYEBCru-0" />
        <mxCell id="pttRT5z6rKzQrrYEBCru-1" parent="pttRT5z6rKzQrrYEBCru-0" />
        <mxCell id="pttRT5z6rKzQrrYEBCru-74" style="edgeStyle=orthogonalEdgeStyle;rounded=0;orthogonalLoop=1;jettySize=auto;html=1;exitX=1;exitY=0.5;exitDx=0;exitDy=0;entryX=0;entryY=0.5;entryDx=0;entryDy=0;dashed=1;dashPattern=1 2;" parent="pttRT5z6rKzQrrYEBCru-1" source="pttRT5z6rKzQrrYEBCru-75" target="pttRT5z6rKzQrrYEBCru-76" edge="1">
          <mxGeometry relative="1" as="geometry">
            <mxPoint x="349.9999999999999" y="-20" as="targetPoint" />
          </mxGeometry>
        </mxCell>
        <mxCell id="pttRT5z6rKzQrrYEBCru-75" value="" style="ellipse;whiteSpace=wrap;html=1;aspect=fixed;rounded=1;shadow=0;glass=0;sketch=0;align=left;fillColor=#d5e8d4;strokeColor=#82b366;" parent="pttRT5z6rKzQrrYEBCru-1" vertex="1">
          <mxGeometry x="79.94000000000011" y="80" width="40" height="40" as="geometry" />
        </mxCell>
        <mxCell id="pttRT5z6rKzQrrYEBCru-76" value="String" style="ellipse;whiteSpace=wrap;html=1;fillColor=#f5f5f5;strokeColor=#666666;fontColor=#333333;" parent="pttRT5z6rKzQrrYEBCru-1" vertex="1">
          <mxGeometry x="280.0000000000001" y="80" width="80" height="40" as="geometry" />
        </mxCell>
        <mxCell id="pttRT5z6rKzQrrYEBCru-325" style="edgeStyle=orthogonalEdgeStyle;rounded=0;orthogonalLoop=1;jettySize=auto;html=1;exitX=0.5;exitY=0;exitDx=0;exitDy=0;strokeWidth=1;endArrow=classic;endFill=1;startArrow=ERmandOne;startFill=0;" parent="pttRT5z6rKzQrrYEBCru-1" source="pttRT5z6rKzQrrYEBCru-322" edge="1">
          <mxGeometry relative="1" as="geometry">
            <mxPoint x="120.06" y="280" as="targetPoint" />
          </mxGeometry>
        </mxCell>
        <mxCell id="pttRT5z6rKzQrrYEBCru-322" value="lift(uppercase)" style="rounded=1;whiteSpace=wrap;html=1;fillColor=#d5e8d4;strokeColor=#82b366;" parent="pttRT5z6rKzQrrYEBCru-1" vertex="1">
          <mxGeometry x="80.06000000000006" y="320" width="80" height="40" as="geometry" />
        </mxCell>
        <mxCell id="pttRT5z6rKzQrrYEBCru-323" style="edgeStyle=orthogonalEdgeStyle;rounded=0;orthogonalLoop=1;jettySize=auto;html=1;entryX=0;entryY=0.5;entryDx=0;entryDy=0;dashed=1;dashPattern=1 2;exitX=1;exitY=0.5;exitDx=0;exitDy=0;" parent="pttRT5z6rKzQrrYEBCru-1" source="pttRT5z6rKzQrrYEBCru-322" target="pttRT5z6rKzQrrYEBCru-324" edge="1">
          <mxGeometry relative="1" as="geometry">
            <mxPoint x="179.87999999999994" y="350" as="sourcePoint" />
          </mxGeometry>
        </mxCell>
        <mxCell id="pttRT5z6rKzQrrYEBCru-324" value="String" style="ellipse;whiteSpace=wrap;html=1;fillColor=#f5f5f5;strokeColor=#666666;fontColor=#333333;" parent="pttRT5z6rKzQrrYEBCru-1" vertex="1">
          <mxGeometry x="279.9999999999999" y="320" width="80" height="40" as="geometry" />
        </mxCell>
        <mxCell id="pttRT5z6rKzQrrYEBCru-326" value="" style="rounded=1;whiteSpace=wrap;html=1;" parent="pttRT5z6rKzQrrYEBCru-1" vertex="1">
          <mxGeometry x="80.06000000000006" y="240" width="80" height="40" as="geometry" />
        </mxCell>
        <mxCell id="pttRT5z6rKzQrrYEBCru-327" style="edgeStyle=orthogonalEdgeStyle;rounded=0;orthogonalLoop=1;jettySize=auto;html=1;entryX=0;entryY=0.5;entryDx=0;entryDy=0;dashed=1;dashPattern=1 2;exitX=1;exitY=0.5;exitDx=0;exitDy=0;" parent="pttRT5z6rKzQrrYEBCru-1" source="pttRT5z6rKzQrrYEBCru-326" target="pttRT5z6rKzQrrYEBCru-328" edge="1">
          <mxGeometry relative="1" as="geometry">
            <mxPoint x="190" y="270" as="sourcePoint" />
          </mxGeometry>
        </mxCell>
        <mxCell id="pttRT5z6rKzQrrYEBCru-328" value="String" style="ellipse;whiteSpace=wrap;html=1;fillColor=#f5f5f5;strokeColor=#666666;fontColor=#333333;" parent="pttRT5z6rKzQrrYEBCru-1" vertex="1">
          <mxGeometry x="279.9999999999999" y="240" width="80" height="40" as="geometry" />
        </mxCell>
        <mxCell id="S8VLfgyUJ310ej5aQM2a-13" style="edgeStyle=orthogonalEdgeStyle;rounded=0;orthogonalLoop=1;jettySize=auto;html=1;exitX=0.5;exitY=0;exitDx=0;exitDy=0;entryX=0.5;entryY=1;entryDx=0;entryDy=0;startArrow=ERmandOne;startFill=0;" parent="pttRT5z6rKzQrrYEBCru-1" source="S8VLfgyUJ310ej5aQM2a-2" target="S8VLfgyUJ310ej5aQM2a-12" edge="1">
          <mxGeometry relative="1" as="geometry" />
        </mxCell>
        <mxCell id="S8VLfgyUJ310ej5aQM2a-14" style="edgeStyle=orthogonalEdgeStyle;rounded=0;orthogonalLoop=1;jettySize=auto;html=1;entryX=0;entryY=0.5;entryDx=0;entryDy=0;dashed=1;dashPattern=1 2;" parent="pttRT5z6rKzQrrYEBCru-1" source="S8VLfgyUJ310ej5aQM2a-2" target="S8VLfgyUJ310ej5aQM2a-9" edge="1">
          <mxGeometry relative="1" as="geometry" />
        </mxCell>
        <mxCell id="S8VLfgyUJ310ej5aQM2a-2" value="wrap()" style="rounded=1;whiteSpace=wrap;html=1;fillColor=#d5e8d4;strokeColor=#82b366;" parent="pttRT5z6rKzQrrYEBCru-1" vertex="1">
          <mxGeometry x="80.06000000000006" y="520" width="80" height="40" as="geometry" />
        </mxCell>
        <mxCell id="S8VLfgyUJ310ej5aQM2a-15" style="edgeStyle=orthogonalEdgeStyle;rounded=0;orthogonalLoop=1;jettySize=auto;html=1;exitX=1;exitY=0.5;exitDx=0;exitDy=0;entryX=0;entryY=0.5;entryDx=0;entryDy=0;dashed=1;dashPattern=1 2;" parent="pttRT5z6rKzQrrYEBCru-1" source="S8VLfgyUJ310ej5aQM2a-9" target="S8VLfgyUJ310ej5aQM2a-10" edge="1">
          <mxGeometry relative="1" as="geometry" />
        </mxCell>
        <mxCell id="S8VLfgyUJ310ej5aQM2a-9" value="BlockOf" style="ellipse;whiteSpace=wrap;html=1;fillColor=#b0e3e6;strokeColor=#0e8088;" parent="pttRT5z6rKzQrrYEBCru-1" vertex="1">
          <mxGeometry x="280.0000000000001" y="520" width="80" height="40" as="geometry" />
        </mxCell>
        <mxCell id="S8VLfgyUJ310ej5aQM2a-10" value="&lt;i&gt;x&lt;/i&gt;" style="ellipse;whiteSpace=wrap;html=1;dashed=1;" parent="pttRT5z6rKzQrrYEBCru-1" vertex="1">
          <mxGeometry x="399.88" y="520" width="80" height="40" as="geometry" />
        </mxCell>
        <mxCell id="S8VLfgyUJ310ej5aQM2a-11" value="&lt;i&gt;x&lt;/i&gt;" style="ellipse;whiteSpace=wrap;html=1;dashed=1;" parent="pttRT5z6rKzQrrYEBCru-1" vertex="1">
          <mxGeometry x="280" y="440" width="80" height="40" as="geometry" />
        </mxCell>
        <mxCell id="S8VLfgyUJ310ej5aQM2a-16" style="edgeStyle=orthogonalEdgeStyle;rounded=0;orthogonalLoop=1;jettySize=auto;html=1;entryX=0;entryY=0.5;entryDx=0;entryDy=0;dashed=1;dashPattern=1 2;" parent="pttRT5z6rKzQrrYEBCru-1" source="S8VLfgyUJ310ej5aQM2a-12" target="S8VLfgyUJ310ej5aQM2a-11" edge="1">
          <mxGeometry relative="1" as="geometry" />
        </mxCell>
        <mxCell id="S8VLfgyUJ310ej5aQM2a-12" value="" style="rounded=1;whiteSpace=wrap;html=1;" parent="pttRT5z6rKzQrrYEBCru-1" vertex="1">
          <mxGeometry x="79.94000000000005" y="440" width="80" height="40" as="geometry" />
        </mxCell>
        <mxCell id="S8VLfgyUJ310ej5aQM2a-18" style="edgeStyle=orthogonalEdgeStyle;rounded=0;orthogonalLoop=1;jettySize=auto;html=1;exitX=0.5;exitY=0;exitDx=0;exitDy=0;entryX=0.5;entryY=1;entryDx=0;entryDy=0;startArrow=ERmandOne;startFill=0;" parent="pttRT5z6rKzQrrYEBCru-1" source="S8VLfgyUJ310ej5aQM2a-20" target="S8VLfgyUJ310ej5aQM2a-27" edge="1">
          <mxGeometry relative="1" as="geometry" />
        </mxCell>
        <mxCell id="S8VLfgyUJ310ej5aQM2a-19" style="edgeStyle=orthogonalEdgeStyle;rounded=0;orthogonalLoop=1;jettySize=auto;html=1;entryX=0;entryY=0.5;entryDx=0;entryDy=0;dashed=1;dashPattern=1 2;" parent="pttRT5z6rKzQrrYEBCru-1" source="S8VLfgyUJ310ej5aQM2a-20" target="S8VLfgyUJ310ej5aQM2a-22" edge="1">
          <mxGeometry relative="1" as="geometry" />
        </mxCell>
        <mxCell id="S8VLfgyUJ310ej5aQM2a-20" value="tuple_of(2)" style="rounded=1;whiteSpace=wrap;html=1;fillColor=#d5e8d4;strokeColor=#82b366;" parent="pttRT5z6rKzQrrYEBCru-1" vertex="1">
          <mxGeometry x="79.82000000000006" y="1200" width="80" height="40" as="geometry" />
        </mxCell>
        <mxCell id="S8VLfgyUJ310ej5aQM2a-21" style="edgeStyle=orthogonalEdgeStyle;rounded=0;orthogonalLoop=1;jettySize=auto;html=1;exitX=1;exitY=0.5;exitDx=0;exitDy=0;entryX=0;entryY=0.5;entryDx=0;entryDy=0;dashed=1;dashPattern=1 2;" parent="pttRT5z6rKzQrrYEBCru-1" source="S8VLfgyUJ310ej5aQM2a-22" target="S8VLfgyUJ310ej5aQM2a-24" edge="1">
          <mxGeometry relative="1" as="geometry" />
        </mxCell>
        <mxCell id="S8VLfgyUJ310ej5aQM2a-29" style="edgeStyle=orthogonalEdgeStyle;rounded=0;orthogonalLoop=1;jettySize=auto;html=1;entryX=0;entryY=0.5;entryDx=0;entryDy=0;dashed=1;dashPattern=1 2;" parent="pttRT5z6rKzQrrYEBCru-1" source="S8VLfgyUJ310ej5aQM2a-22" target="S8VLfgyUJ310ej5aQM2a-28" edge="1">
          <mxGeometry relative="1" as="geometry" />
        </mxCell>
        <mxCell id="S8VLfgyUJ310ej5aQM2a-22" value="TupleOf" style="ellipse;whiteSpace=wrap;html=1;fillColor=#b0e3e6;strokeColor=#0e8088;" parent="pttRT5z6rKzQrrYEBCru-1" vertex="1">
          <mxGeometry x="280.0000000000001" y="1200" width="80" height="40" as="geometry" />
        </mxCell>
        <mxCell id="S8VLfgyUJ310ej5aQM2a-24" value="&lt;i&gt;x&lt;/i&gt;" style="ellipse;whiteSpace=wrap;html=1;dashed=1;" parent="pttRT5z6rKzQrrYEBCru-1" vertex="1">
          <mxGeometry x="399.88" y="1170" width="80" height="40" as="geometry" />
        </mxCell>
        <mxCell id="S8VLfgyUJ310ej5aQM2a-25" value="&lt;i&gt;x&lt;/i&gt;" style="ellipse;whiteSpace=wrap;html=1;dashed=1;" parent="pttRT5z6rKzQrrYEBCru-1" vertex="1">
          <mxGeometry x="280" y="1120" width="80" height="40" as="geometry" />
        </mxCell>
        <mxCell id="S8VLfgyUJ310ej5aQM2a-26" style="edgeStyle=orthogonalEdgeStyle;rounded=0;orthogonalLoop=1;jettySize=auto;html=1;entryX=0;entryY=0.5;entryDx=0;entryDy=0;dashed=1;dashPattern=1 2;" parent="pttRT5z6rKzQrrYEBCru-1" source="S8VLfgyUJ310ej5aQM2a-27" target="S8VLfgyUJ310ej5aQM2a-25" edge="1">
          <mxGeometry relative="1" as="geometry" />
        </mxCell>
        <mxCell id="S8VLfgyUJ310ej5aQM2a-27" value="" style="rounded=1;whiteSpace=wrap;html=1;" parent="pttRT5z6rKzQrrYEBCru-1" vertex="1">
          <mxGeometry x="79.94000000000005" y="1120" width="80" height="40" as="geometry" />
        </mxCell>
        <mxCell id="S8VLfgyUJ310ej5aQM2a-28" value="&lt;i&gt;x&lt;/i&gt;" style="ellipse;whiteSpace=wrap;html=1;dashed=1;" parent="pttRT5z6rKzQrrYEBCru-1" vertex="1">
          <mxGeometry x="399.7" y="1230" width="80" height="40" as="geometry" />
        </mxCell>
        <mxCell id="S8VLfgyUJ310ej5aQM2a-30" style="edgeStyle=orthogonalEdgeStyle;rounded=0;orthogonalLoop=1;jettySize=auto;html=1;exitX=0.5;exitY=0;exitDx=0;exitDy=0;entryX=0.5;entryY=1;entryDx=0;entryDy=0;startArrow=ERmandOne;startFill=0;" parent="pttRT5z6rKzQrrYEBCru-1" source="S8VLfgyUJ310ej5aQM2a-32" target="S8VLfgyUJ310ej5aQM2a-39" edge="1">
          <mxGeometry relative="1" as="geometry" />
        </mxCell>
        <mxCell id="S8VLfgyUJ310ej5aQM2a-31" style="edgeStyle=orthogonalEdgeStyle;rounded=0;orthogonalLoop=1;jettySize=auto;html=1;entryX=0;entryY=0.5;entryDx=0;entryDy=0;dashed=1;dashPattern=1 2;exitX=1;exitY=0.5;exitDx=0;exitDy=0;" parent="pttRT5z6rKzQrrYEBCru-1" source="S8VLfgyUJ310ej5aQM2a-39" target="S8VLfgyUJ310ej5aQM2a-35" edge="1">
          <mxGeometry relative="1" as="geometry" />
        </mxCell>
        <mxCell id="S8VLfgyUJ310ej5aQM2a-51" style="edgeStyle=orthogonalEdgeStyle;rounded=0;orthogonalLoop=1;jettySize=auto;html=1;entryX=0;entryY=0.5;entryDx=0;entryDy=0;dashed=1;dashPattern=1 2;" parent="pttRT5z6rKzQrrYEBCru-1" source="S8VLfgyUJ310ej5aQM2a-32" target="S8VLfgyUJ310ej5aQM2a-44" edge="1">
          <mxGeometry relative="1" as="geometry" />
        </mxCell>
        <mxCell id="S8VLfgyUJ310ej5aQM2a-32" value="distribute(1)" style="rounded=1;whiteSpace=wrap;html=1;fillColor=#d5e8d4;strokeColor=#82b366;" parent="pttRT5z6rKzQrrYEBCru-1" vertex="1">
          <mxGeometry x="80.36000000000007" y="960" width="80" height="40" as="geometry" />
        </mxCell>
        <mxCell id="S8VLfgyUJ310ej5aQM2a-33" style="edgeStyle=orthogonalEdgeStyle;rounded=0;orthogonalLoop=1;jettySize=auto;html=1;exitX=1;exitY=0.5;exitDx=0;exitDy=0;entryX=0;entryY=0.5;entryDx=0;entryDy=0;dashed=1;dashPattern=1 2;" parent="pttRT5z6rKzQrrYEBCru-1" source="S8VLfgyUJ310ej5aQM2a-35" target="S8VLfgyUJ310ej5aQM2a-42" edge="1">
          <mxGeometry relative="1" as="geometry">
            <mxPoint x="400.0600000000029" y="870" as="targetPoint" />
          </mxGeometry>
        </mxCell>
        <mxCell id="S8VLfgyUJ310ej5aQM2a-34" style="edgeStyle=orthogonalEdgeStyle;rounded=0;orthogonalLoop=1;jettySize=auto;html=1;entryX=0;entryY=0.5;entryDx=0;entryDy=0;dashed=1;dashPattern=1 2;" parent="pttRT5z6rKzQrrYEBCru-1" source="S8VLfgyUJ310ej5aQM2a-35" target="S8VLfgyUJ310ej5aQM2a-40" edge="1">
          <mxGeometry relative="1" as="geometry" />
        </mxCell>
        <mxCell id="S8VLfgyUJ310ej5aQM2a-35" value="TupleOf" style="ellipse;whiteSpace=wrap;html=1;fillColor=#b0e3e6;strokeColor=#0e8088;" parent="pttRT5z6rKzQrrYEBCru-1" vertex="1">
          <mxGeometry x="280.1800000000001" y="880" width="80" height="40" as="geometry" />
        </mxCell>
        <mxCell id="S8VLfgyUJ310ej5aQM2a-39" value="" style="rounded=1;whiteSpace=wrap;html=1;" parent="pttRT5z6rKzQrrYEBCru-1" vertex="1">
          <mxGeometry x="80.24000000000007" y="880" width="80" height="40" as="geometry" />
        </mxCell>
        <mxCell id="S8VLfgyUJ310ej5aQM2a-40" value="&lt;i&gt;y&lt;/i&gt;" style="ellipse;whiteSpace=wrap;html=1;dashed=1;" parent="pttRT5z6rKzQrrYEBCru-1" vertex="1">
          <mxGeometry x="399.88" y="910" width="80" height="40" as="geometry" />
        </mxCell>
        <mxCell id="S8VLfgyUJ310ej5aQM2a-41" value="&lt;i&gt;x&lt;/i&gt;" style="ellipse;whiteSpace=wrap;html=1;dashed=1;" parent="pttRT5z6rKzQrrYEBCru-1" vertex="1">
          <mxGeometry x="520" y="850" width="80" height="40" as="geometry" />
        </mxCell>
        <mxCell id="S8VLfgyUJ310ej5aQM2a-43" style="edgeStyle=orthogonalEdgeStyle;rounded=0;orthogonalLoop=1;jettySize=auto;html=1;exitX=1;exitY=0.5;exitDx=0;exitDy=0;entryX=0;entryY=0.5;entryDx=0;entryDy=0;dashed=1;dashPattern=1 2;" parent="pttRT5z6rKzQrrYEBCru-1" source="S8VLfgyUJ310ej5aQM2a-42" target="S8VLfgyUJ310ej5aQM2a-41" edge="1">
          <mxGeometry relative="1" as="geometry" />
        </mxCell>
        <mxCell id="S8VLfgyUJ310ej5aQM2a-42" value="BlockOf" style="ellipse;whiteSpace=wrap;html=1;fillColor=#b0e3e6;strokeColor=#0e8088;" parent="pttRT5z6rKzQrrYEBCru-1" vertex="1">
          <mxGeometry x="400.0600000000001" y="850" width="80" height="40" as="geometry" />
        </mxCell>
        <mxCell id="S8VLfgyUJ310ej5aQM2a-48" style="edgeStyle=orthogonalEdgeStyle;rounded=0;orthogonalLoop=1;jettySize=auto;html=1;entryX=0;entryY=0.5;entryDx=0;entryDy=0;dashed=1;dashPattern=1 2;" parent="pttRT5z6rKzQrrYEBCru-1" source="S8VLfgyUJ310ej5aQM2a-44" target="S8VLfgyUJ310ej5aQM2a-45" edge="1">
          <mxGeometry relative="1" as="geometry" />
        </mxCell>
        <mxCell id="S8VLfgyUJ310ej5aQM2a-44" value="BlockOf" style="ellipse;whiteSpace=wrap;html=1;fillColor=#b0e3e6;strokeColor=#0e8088;" parent="pttRT5z6rKzQrrYEBCru-1" vertex="1">
          <mxGeometry x="280.1800000000001" y="960" width="80" height="40" as="geometry" />
        </mxCell>
        <mxCell id="S8VLfgyUJ310ej5aQM2a-49" style="edgeStyle=orthogonalEdgeStyle;rounded=0;orthogonalLoop=1;jettySize=auto;html=1;exitX=1;exitY=0.5;exitDx=0;exitDy=0;entryX=0;entryY=0.5;entryDx=0;entryDy=0;dashed=1;dashPattern=1 2;" parent="pttRT5z6rKzQrrYEBCru-1" source="S8VLfgyUJ310ej5aQM2a-45" target="S8VLfgyUJ310ej5aQM2a-46" edge="1">
          <mxGeometry relative="1" as="geometry" />
        </mxCell>
        <mxCell id="S8VLfgyUJ310ej5aQM2a-50" style="edgeStyle=orthogonalEdgeStyle;rounded=0;orthogonalLoop=1;jettySize=auto;html=1;entryX=0;entryY=0.5;entryDx=0;entryDy=0;dashed=1;dashPattern=1 2;" parent="pttRT5z6rKzQrrYEBCru-1" source="S8VLfgyUJ310ej5aQM2a-45" target="S8VLfgyUJ310ej5aQM2a-47" edge="1">
          <mxGeometry relative="1" as="geometry" />
        </mxCell>
        <mxCell id="S8VLfgyUJ310ej5aQM2a-45" value="TupleOf" style="ellipse;whiteSpace=wrap;html=1;fillColor=#b0e3e6;strokeColor=#0e8088;" parent="pttRT5z6rKzQrrYEBCru-1" vertex="1">
          <mxGeometry x="399.8800000000001" y="960" width="80" height="40" as="geometry" />
        </mxCell>
        <mxCell id="S8VLfgyUJ310ej5aQM2a-46" value="&lt;i&gt;x&lt;/i&gt;" style="ellipse;whiteSpace=wrap;html=1;dashed=1;" parent="pttRT5z6rKzQrrYEBCru-1" vertex="1">
          <mxGeometry x="520" y="930" width="80" height="40" as="geometry" />
        </mxCell>
        <mxCell id="S8VLfgyUJ310ej5aQM2a-47" value="&lt;i&gt;y&lt;/i&gt;" style="ellipse;whiteSpace=wrap;html=1;dashed=1;" parent="pttRT5z6rKzQrrYEBCru-1" vertex="1">
          <mxGeometry x="520" y="990" width="80" height="40" as="geometry" />
        </mxCell>
        <mxCell id="S8VLfgyUJ310ej5aQM2a-52" style="edgeStyle=orthogonalEdgeStyle;rounded=0;orthogonalLoop=1;jettySize=auto;html=1;exitX=0.5;exitY=0;exitDx=0;exitDy=0;entryX=0.5;entryY=1;entryDx=0;entryDy=0;startArrow=ERmandOne;startFill=0;" parent="pttRT5z6rKzQrrYEBCru-1" source="S8VLfgyUJ310ej5aQM2a-54" target="S8VLfgyUJ310ej5aQM2a-60" edge="1">
          <mxGeometry relative="1" as="geometry" />
        </mxCell>
        <mxCell id="S8VLfgyUJ310ej5aQM2a-53" style="edgeStyle=orthogonalEdgeStyle;rounded=0;orthogonalLoop=1;jettySize=auto;html=1;entryX=0;entryY=0.5;entryDx=0;entryDy=0;dashed=1;dashPattern=1 2;" parent="pttRT5z6rKzQrrYEBCru-1" source="S8VLfgyUJ310ej5aQM2a-54" target="S8VLfgyUJ310ej5aQM2a-56" edge="1">
          <mxGeometry relative="1" as="geometry" />
        </mxCell>
        <mxCell id="S8VLfgyUJ310ej5aQM2a-54" value="get_by(1)" style="rounded=1;whiteSpace=wrap;html=1;fillColor=#d5e8d4;strokeColor=#82b366;" parent="pttRT5z6rKzQrrYEBCru-1" vertex="1">
          <mxGeometry x="80.48000000000006" y="720" width="80" height="40" as="geometry" />
        </mxCell>
        <mxCell id="S8VLfgyUJ310ej5aQM2a-55" style="edgeStyle=orthogonalEdgeStyle;rounded=0;orthogonalLoop=1;jettySize=auto;html=1;exitX=1;exitY=0.5;exitDx=0;exitDy=0;entryX=0;entryY=0.5;entryDx=0;entryDy=0;dashed=1;dashPattern=1 2;" parent="pttRT5z6rKzQrrYEBCru-1" source="S8VLfgyUJ310ej5aQM2a-56" target="S8VLfgyUJ310ej5aQM2a-57" edge="1">
          <mxGeometry relative="1" as="geometry" />
        </mxCell>
        <mxCell id="S8VLfgyUJ310ej5aQM2a-56" value="BlockOf" style="ellipse;whiteSpace=wrap;html=1;fillColor=#b0e3e6;strokeColor=#0e8088;" parent="pttRT5z6rKzQrrYEBCru-1" vertex="1">
          <mxGeometry x="280.42000000000013" y="720" width="80" height="40" as="geometry" />
        </mxCell>
        <mxCell id="S8VLfgyUJ310ej5aQM2a-57" value="&lt;i&gt;x&lt;/i&gt;" style="ellipse;whiteSpace=wrap;html=1;dashed=1;" parent="pttRT5z6rKzQrrYEBCru-1" vertex="1">
          <mxGeometry x="400.3" y="720" width="80" height="40" as="geometry" />
        </mxCell>
        <mxCell id="S8VLfgyUJ310ej5aQM2a-59" style="edgeStyle=orthogonalEdgeStyle;rounded=0;orthogonalLoop=1;jettySize=auto;html=1;entryX=0;entryY=0.5;entryDx=0;entryDy=0;dashed=1;dashPattern=1 2;" parent="pttRT5z6rKzQrrYEBCru-1" source="S8VLfgyUJ310ej5aQM2a-60" target="S8VLfgyUJ310ej5aQM2a-62" edge="1">
          <mxGeometry relative="1" as="geometry">
            <mxPoint x="280.42000000000235" y="660" as="targetPoint" />
          </mxGeometry>
        </mxCell>
        <mxCell id="S8VLfgyUJ310ej5aQM2a-60" value="" style="rounded=1;whiteSpace=wrap;html=1;" parent="pttRT5z6rKzQrrYEBCru-1" vertex="1">
          <mxGeometry x="80.36000000000006" y="640" width="80" height="40" as="geometry" />
        </mxCell>
        <mxCell id="S8VLfgyUJ310ej5aQM2a-61" value="&lt;i&gt;x&lt;/i&gt;" style="ellipse;whiteSpace=wrap;html=1;dashed=1;" parent="pttRT5z6rKzQrrYEBCru-1" vertex="1">
          <mxGeometry x="399.88" y="640" width="80" height="40" as="geometry" />
        </mxCell>
        <mxCell id="S8VLfgyUJ310ej5aQM2a-63" style="edgeStyle=orthogonalEdgeStyle;rounded=0;orthogonalLoop=1;jettySize=auto;html=1;entryX=0;entryY=0.5;entryDx=0;entryDy=0;dashed=1;dashPattern=1 2;" parent="pttRT5z6rKzQrrYEBCru-1" source="S8VLfgyUJ310ej5aQM2a-62" target="S8VLfgyUJ310ej5aQM2a-61" edge="1">
          <mxGeometry relative="1" as="geometry" />
        </mxCell>
        <mxCell id="S8VLfgyUJ310ej5aQM2a-62" value="BlockOf" style="ellipse;whiteSpace=wrap;html=1;fillColor=#b0e3e6;strokeColor=#0e8088;" parent="pttRT5z6rKzQrrYEBCru-1" vertex="1">
          <mxGeometry x="280.0000000000001" y="640" width="80" height="40" as="geometry" />
        </mxCell>
        <mxCell id="S8VLfgyUJ310ej5aQM2a-64" style="edgeStyle=orthogonalEdgeStyle;rounded=0;orthogonalLoop=1;jettySize=auto;html=1;exitX=0.5;exitY=0;exitDx=0;exitDy=0;entryX=0.5;entryY=1;entryDx=0;entryDy=0;startArrow=ERmandOne;startFill=0;" parent="pttRT5z6rKzQrrYEBCru-1" source="S8VLfgyUJ310ej5aQM2a-66" target="S8VLfgyUJ310ej5aQM2a-73" edge="1">
          <mxGeometry relative="1" as="geometry" />
        </mxCell>
        <mxCell id="S8VLfgyUJ310ej5aQM2a-65" style="edgeStyle=orthogonalEdgeStyle;rounded=0;orthogonalLoop=1;jettySize=auto;html=1;entryX=0;entryY=0.5;entryDx=0;entryDy=0;dashed=1;dashPattern=1 2;exitX=1;exitY=0.5;exitDx=0;exitDy=0;" parent="pttRT5z6rKzQrrYEBCru-1" source="S8VLfgyUJ310ej5aQM2a-73" target="S8VLfgyUJ310ej5aQM2a-69" edge="1">
          <mxGeometry relative="1" as="geometry" />
        </mxCell>
        <mxCell id="S8VLfgyUJ310ej5aQM2a-76" style="edgeStyle=orthogonalEdgeStyle;rounded=0;orthogonalLoop=1;jettySize=auto;html=1;exitX=1;exitY=0.5;exitDx=0;exitDy=0;entryX=0;entryY=0.5;entryDx=0;entryDy=0;dashed=1;dashPattern=1 2;" parent="pttRT5z6rKzQrrYEBCru-1" source="S8VLfgyUJ310ej5aQM2a-66" target="S8VLfgyUJ310ej5aQM2a-75" edge="1">
          <mxGeometry relative="1" as="geometry" />
        </mxCell>
        <mxCell id="S8VLfgyUJ310ej5aQM2a-66" value="column(1)" style="rounded=1;whiteSpace=wrap;html=1;fillColor=#d5e8d4;strokeColor=#82b366;" parent="pttRT5z6rKzQrrYEBCru-1" vertex="1">
          <mxGeometry x="80.48000000000005" y="1440" width="80" height="40" as="geometry" />
        </mxCell>
        <mxCell id="S8VLfgyUJ310ej5aQM2a-67" style="edgeStyle=orthogonalEdgeStyle;rounded=0;orthogonalLoop=1;jettySize=auto;html=1;exitX=1;exitY=0.5;exitDx=0;exitDy=0;entryX=0;entryY=0.5;entryDx=0;entryDy=0;dashed=1;dashPattern=1 2;" parent="pttRT5z6rKzQrrYEBCru-1" source="S8VLfgyUJ310ej5aQM2a-69" target="S8VLfgyUJ310ej5aQM2a-70" edge="1">
          <mxGeometry relative="1" as="geometry" />
        </mxCell>
        <mxCell id="S8VLfgyUJ310ej5aQM2a-68" style="edgeStyle=orthogonalEdgeStyle;rounded=0;orthogonalLoop=1;jettySize=auto;html=1;entryX=0;entryY=0.5;entryDx=0;entryDy=0;dashed=1;dashPattern=1 2;" parent="pttRT5z6rKzQrrYEBCru-1" source="S8VLfgyUJ310ej5aQM2a-69" target="S8VLfgyUJ310ej5aQM2a-74" edge="1">
          <mxGeometry relative="1" as="geometry" />
        </mxCell>
        <mxCell id="S8VLfgyUJ310ej5aQM2a-69" value="TupleOf" style="ellipse;whiteSpace=wrap;html=1;fillColor=#b0e3e6;strokeColor=#0e8088;" parent="pttRT5z6rKzQrrYEBCru-1" vertex="1">
          <mxGeometry x="279.8200000000001" y="1360" width="80" height="40" as="geometry" />
        </mxCell>
        <mxCell id="S8VLfgyUJ310ej5aQM2a-70" value="&lt;i&gt;x&lt;/i&gt;" style="ellipse;whiteSpace=wrap;html=1;dashed=1;" parent="pttRT5z6rKzQrrYEBCru-1" vertex="1">
          <mxGeometry x="399.7" y="1330" width="80" height="40" as="geometry" />
        </mxCell>
        <mxCell id="S8VLfgyUJ310ej5aQM2a-73" value="" style="rounded=1;whiteSpace=wrap;html=1;" parent="pttRT5z6rKzQrrYEBCru-1" vertex="1">
          <mxGeometry x="80.48000000000005" y="1360" width="80" height="40" as="geometry" />
        </mxCell>
        <mxCell id="S8VLfgyUJ310ej5aQM2a-74" value="&lt;i&gt;y&lt;/i&gt;" style="ellipse;whiteSpace=wrap;html=1;dashed=1;" parent="pttRT5z6rKzQrrYEBCru-1" vertex="1">
          <mxGeometry x="399.52" y="1390" width="80" height="40" as="geometry" />
        </mxCell>
        <mxCell id="S8VLfgyUJ310ej5aQM2a-75" value="&lt;i&gt;x&lt;/i&gt;" style="ellipse;whiteSpace=wrap;html=1;dashed=1;" parent="pttRT5z6rKzQrrYEBCru-1" vertex="1">
          <mxGeometry x="280.41999999999996" y="1440" width="80" height="40" as="geometry" />
        </mxCell>
        <mxCell id="j4pWJsMRm3qd0aL7RC5e-1" style="edgeStyle=orthogonalEdgeStyle;rounded=0;orthogonalLoop=1;jettySize=auto;html=1;exitX=0.5;exitY=0;exitDx=0;exitDy=0;entryX=0.5;entryY=1;entryDx=0;entryDy=0;startArrow=ERmandOne;startFill=0;" parent="pttRT5z6rKzQrrYEBCru-1" source="j4pWJsMRm3qd0aL7RC5e-2" target="j4pWJsMRm3qd0aL7RC5e-3" edge="1">
          <mxGeometry relative="1" as="geometry" />
        </mxCell>
        <mxCell id="j4pWJsMRm3qd0aL7RC5e-9" style="edgeStyle=orthogonalEdgeStyle;rounded=0;orthogonalLoop=1;jettySize=auto;html=1;entryX=0;entryY=0.5;entryDx=0;entryDy=0;dashed=1;dashPattern=1 2;" parent="pttRT5z6rKzQrrYEBCru-1" source="j4pWJsMRm3qd0aL7RC5e-2" target="j4pWJsMRm3qd0aL7RC5e-8" edge="1">
          <mxGeometry relative="1" as="geometry" />
        </mxCell>
        <mxCell id="j4pWJsMRm3qd0aL7RC5e-2" value="block_length()" style="rounded=1;whiteSpace=wrap;html=1;fillColor=#d5e8d4;strokeColor=#82b366;" parent="pttRT5z6rKzQrrYEBCru-1" vertex="1">
          <mxGeometry x="79.82000000000005" y="1680" width="80" height="40" as="geometry" />
        </mxCell>
        <mxCell id="j4pWJsMRm3qd0aL7RC5e-7" style="edgeStyle=orthogonalEdgeStyle;rounded=0;orthogonalLoop=1;jettySize=auto;html=1;entryX=0;entryY=0.5;entryDx=0;entryDy=0;dashed=1;dashPattern=1 2;" parent="pttRT5z6rKzQrrYEBCru-1" source="j4pWJsMRm3qd0aL7RC5e-3" target="j4pWJsMRm3qd0aL7RC5e-6" edge="1">
          <mxGeometry relative="1" as="geometry" />
        </mxCell>
        <mxCell id="j4pWJsMRm3qd0aL7RC5e-3" value="" style="rounded=1;whiteSpace=wrap;html=1;" parent="pttRT5z6rKzQrrYEBCru-1" vertex="1">
          <mxGeometry x="79.82000000000005" y="1600" width="80" height="40" as="geometry" />
        </mxCell>
        <mxCell id="j4pWJsMRm3qd0aL7RC5e-4" value="&lt;i&gt;x&lt;/i&gt;" style="ellipse;whiteSpace=wrap;html=1;dashed=1;" parent="pttRT5z6rKzQrrYEBCru-1" vertex="1">
          <mxGeometry x="400.3" y="1600" width="80" height="40" as="geometry" />
        </mxCell>
        <mxCell id="j4pWJsMRm3qd0aL7RC5e-5" style="edgeStyle=orthogonalEdgeStyle;rounded=0;orthogonalLoop=1;jettySize=auto;html=1;entryX=0;entryY=0.5;entryDx=0;entryDy=0;dashed=1;dashPattern=1 2;" parent="pttRT5z6rKzQrrYEBCru-1" source="j4pWJsMRm3qd0aL7RC5e-6" target="j4pWJsMRm3qd0aL7RC5e-4" edge="1">
          <mxGeometry relative="1" as="geometry" />
        </mxCell>
        <mxCell id="j4pWJsMRm3qd0aL7RC5e-6" value="BlockOf" style="ellipse;whiteSpace=wrap;html=1;fillColor=#b0e3e6;strokeColor=#0e8088;" parent="pttRT5z6rKzQrrYEBCru-1" vertex="1">
          <mxGeometry x="280.42000000000013" y="1600" width="80" height="40" as="geometry" />
        </mxCell>
        <mxCell id="j4pWJsMRm3qd0aL7RC5e-8" value="Int" style="ellipse;whiteSpace=wrap;html=1;fillColor=#f5f5f5;strokeColor=#666666;fontColor=#333333;" parent="pttRT5z6rKzQrrYEBCru-1" vertex="1">
          <mxGeometry x="280.4199999999999" y="1680" width="80" height="40" as="geometry" />
        </mxCell>
        <mxCell id="j4pWJsMRm3qd0aL7RC5e-24" style="edgeStyle=orthogonalEdgeStyle;rounded=0;orthogonalLoop=1;jettySize=auto;html=1;entryX=0.5;entryY=1;entryDx=0;entryDy=0;startArrow=ERmandOne;startFill=0;" parent="pttRT5z6rKzQrrYEBCru-1" source="j4pWJsMRm3qd0aL7RC5e-10" target="j4pWJsMRm3qd0aL7RC5e-11" edge="1">
          <mxGeometry relative="1" as="geometry" />
        </mxCell>
        <mxCell id="j4pWJsMRm3qd0aL7RC5e-10" value="head" style="rounded=1;whiteSpace=wrap;html=1;fillColor=#fff2cc;strokeColor=#d6b656;" parent="pttRT5z6rKzQrrYEBCru-1" vertex="1">
          <mxGeometry x="780" y="480" width="40" height="40" as="geometry" />
        </mxCell>
        <mxCell id="j4pWJsMRm3qd0aL7RC5e-21" style="edgeStyle=orthogonalEdgeStyle;rounded=0;orthogonalLoop=1;jettySize=auto;html=1;entryX=0;entryY=0.5;entryDx=0;entryDy=0;dashed=1;dashPattern=1 2;" parent="pttRT5z6rKzQrrYEBCru-1" source="j4pWJsMRm3qd0aL7RC5e-11" target="j4pWJsMRm3qd0aL7RC5e-18" edge="1">
          <mxGeometry relative="1" as="geometry" />
        </mxCell>
        <mxCell id="j4pWJsMRm3qd0aL7RC5e-11" value="" style="rounded=1;whiteSpace=wrap;html=1;" parent="pttRT5z6rKzQrrYEBCru-1" vertex="1">
          <mxGeometry x="760.0000000000001" y="360" width="80" height="40" as="geometry" />
        </mxCell>
        <mxCell id="j4pWJsMRm3qd0aL7RC5e-12" style="edgeStyle=orthogonalEdgeStyle;rounded=0;orthogonalLoop=1;jettySize=auto;html=1;entryX=0;entryY=0.5;entryDx=0;entryDy=0;dashed=1;dashPattern=1 2;exitX=1;exitY=0.5;exitDx=0;exitDy=0;" parent="pttRT5z6rKzQrrYEBCru-1" source="j4pWJsMRm3qd0aL7RC5e-10" target="j4pWJsMRm3qd0aL7RC5e-15" edge="1">
          <mxGeometry relative="1" as="geometry">
            <mxPoint x="840.72" y="500" as="sourcePoint" />
          </mxGeometry>
        </mxCell>
        <mxCell id="j4pWJsMRm3qd0aL7RC5e-13" style="edgeStyle=orthogonalEdgeStyle;rounded=0;orthogonalLoop=1;jettySize=auto;html=1;exitX=1;exitY=0.5;exitDx=0;exitDy=0;entryX=0;entryY=0.5;entryDx=0;entryDy=0;dashed=1;dashPattern=1 2;" parent="pttRT5z6rKzQrrYEBCru-1" source="j4pWJsMRm3qd0aL7RC5e-15" target="j4pWJsMRm3qd0aL7RC5e-16" edge="1">
          <mxGeometry relative="1" as="geometry" />
        </mxCell>
        <mxCell id="j4pWJsMRm3qd0aL7RC5e-14" style="edgeStyle=orthogonalEdgeStyle;rounded=0;orthogonalLoop=1;jettySize=auto;html=1;entryX=0;entryY=0.5;entryDx=0;entryDy=0;dashed=1;dashPattern=1 2;" parent="pttRT5z6rKzQrrYEBCru-1" source="j4pWJsMRm3qd0aL7RC5e-15" target="j4pWJsMRm3qd0aL7RC5e-17" edge="1">
          <mxGeometry relative="1" as="geometry" />
        </mxCell>
        <mxCell id="j4pWJsMRm3qd0aL7RC5e-15" value="TupleOf" style="ellipse;whiteSpace=wrap;html=1;fillColor=#b0e3e6;strokeColor=#0e8088;" parent="pttRT5z6rKzQrrYEBCru-1" vertex="1">
          <mxGeometry x="959.94" y="480" width="80" height="40" as="geometry" />
        </mxCell>
        <mxCell id="j4pWJsMRm3qd0aL7RC5e-16" value="" style="ellipse;whiteSpace=wrap;html=1;dashed=1;" parent="pttRT5z6rKzQrrYEBCru-1" vertex="1">
          <mxGeometry x="1080.5399999999997" y="450" width="80" height="40" as="geometry" />
        </mxCell>
        <mxCell id="j4pWJsMRm3qd0aL7RC5e-17" value="" style="ellipse;whiteSpace=wrap;html=1;dashed=1;" parent="pttRT5z6rKzQrrYEBCru-1" vertex="1">
          <mxGeometry x="1080.3599999999997" y="510" width="80" height="40" as="geometry" />
        </mxCell>
        <mxCell id="j4pWJsMRm3qd0aL7RC5e-22" style="edgeStyle=orthogonalEdgeStyle;rounded=0;orthogonalLoop=1;jettySize=auto;html=1;entryX=0;entryY=0.5;entryDx=0;entryDy=0;dashed=1;dashPattern=1 2;" parent="pttRT5z6rKzQrrYEBCru-1" source="j4pWJsMRm3qd0aL7RC5e-18" target="j4pWJsMRm3qd0aL7RC5e-19" edge="1">
          <mxGeometry relative="1" as="geometry" />
        </mxCell>
        <mxCell id="j4pWJsMRm3qd0aL7RC5e-23" style="edgeStyle=orthogonalEdgeStyle;rounded=0;orthogonalLoop=1;jettySize=auto;html=1;entryX=0;entryY=0.5;entryDx=0;entryDy=0;dashed=1;dashPattern=1 2;" parent="pttRT5z6rKzQrrYEBCru-1" source="j4pWJsMRm3qd0aL7RC5e-18" target="j4pWJsMRm3qd0aL7RC5e-20" edge="1">
          <mxGeometry relative="1" as="geometry" />
        </mxCell>
        <mxCell id="j4pWJsMRm3qd0aL7RC5e-18" value="TupleOf" style="ellipse;whiteSpace=wrap;html=1;fillColor=#b0e3e6;strokeColor=#0e8088;" parent="pttRT5z6rKzQrrYEBCru-1" vertex="1">
          <mxGeometry x="959.94" y="360" width="80" height="40" as="geometry" />
        </mxCell>
        <mxCell id="j4pWJsMRm3qd0aL7RC5e-19" value="String" style="ellipse;whiteSpace=wrap;html=1;fillColor=#f5f5f5;strokeColor=#666666;fontColor=#333333;" parent="pttRT5z6rKzQrrYEBCru-1" vertex="1">
          <mxGeometry x="1080.36" y="330" width="80" height="40" as="geometry" />
        </mxCell>
        <mxCell id="j4pWJsMRm3qd0aL7RC5e-20" value="Int" style="ellipse;whiteSpace=wrap;html=1;fillColor=#f5f5f5;strokeColor=#666666;fontColor=#333333;" parent="pttRT5z6rKzQrrYEBCru-1" vertex="1">
          <mxGeometry x="1080.36" y="390" width="80" height="40" as="geometry" />
        </mxCell>
        <mxCell id="CRXfzsOC0slFhMcfU7Hz-11" style="edgeStyle=orthogonalEdgeStyle;rounded=0;orthogonalLoop=1;jettySize=auto;html=1;entryX=0.5;entryY=1;entryDx=0;entryDy=0;startArrow=ERmandOne;startFill=0;" parent="pttRT5z6rKzQrrYEBCru-1" source="CRXfzsOC0slFhMcfU7Hz-0" target="CRXfzsOC0slFhMcfU7Hz-2" edge="1">
          <mxGeometry relative="1" as="geometry" />
        </mxCell>
        <mxCell id="CRXfzsOC0slFhMcfU7Hz-12" style="edgeStyle=orthogonalEdgeStyle;rounded=0;orthogonalLoop=1;jettySize=auto;html=1;entryX=0;entryY=0.5;entryDx=0;entryDy=0;dashed=1;dashPattern=1 2;" parent="pttRT5z6rKzQrrYEBCru-1" source="CRXfzsOC0slFhMcfU7Hz-0" target="CRXfzsOC0slFhMcfU7Hz-10" edge="1">
          <mxGeometry relative="1" as="geometry" />
        </mxCell>
        <mxCell id="CRXfzsOC0slFhMcfU7Hz-0" value="" style="ellipse;whiteSpace=wrap;html=1;aspect=fixed;rounded=1;shadow=0;glass=0;sketch=0;align=left;fillColor=#fff2cc;strokeColor=#d6b656;" parent="pttRT5z6rKzQrrYEBCru-1" vertex="1">
          <mxGeometry x="789.9999999999999" y="1010" width="20" height="20" as="geometry" />
        </mxCell>
        <mxCell id="CRXfzsOC0slFhMcfU7Hz-1" style="edgeStyle=orthogonalEdgeStyle;rounded=0;orthogonalLoop=1;jettySize=auto;html=1;entryX=0;entryY=0.5;entryDx=0;entryDy=0;dashed=1;dashPattern=1 2;" parent="pttRT5z6rKzQrrYEBCru-1" source="CRXfzsOC0slFhMcfU7Hz-2" target="CRXfzsOC0slFhMcfU7Hz-5" edge="1">
          <mxGeometry relative="1" as="geometry" />
        </mxCell>
        <mxCell id="CRXfzsOC0slFhMcfU7Hz-2" value="" style="rounded=1;whiteSpace=wrap;html=1;" parent="pttRT5z6rKzQrrYEBCru-1" vertex="1">
          <mxGeometry x="760.0000000000001" y="880" width="80" height="40" as="geometry" />
        </mxCell>
        <mxCell id="CRXfzsOC0slFhMcfU7Hz-3" style="edgeStyle=orthogonalEdgeStyle;rounded=0;orthogonalLoop=1;jettySize=auto;html=1;entryX=0;entryY=0.5;entryDx=0;entryDy=0;dashed=1;dashPattern=1 2;" parent="pttRT5z6rKzQrrYEBCru-1" source="CRXfzsOC0slFhMcfU7Hz-5" target="CRXfzsOC0slFhMcfU7Hz-6" edge="1">
          <mxGeometry relative="1" as="geometry" />
        </mxCell>
        <mxCell id="CRXfzsOC0slFhMcfU7Hz-4" style="edgeStyle=orthogonalEdgeStyle;rounded=0;orthogonalLoop=1;jettySize=auto;html=1;entryX=0;entryY=0.5;entryDx=0;entryDy=0;dashed=1;dashPattern=1 2;" parent="pttRT5z6rKzQrrYEBCru-1" source="CRXfzsOC0slFhMcfU7Hz-5" target="CRXfzsOC0slFhMcfU7Hz-7" edge="1">
          <mxGeometry relative="1" as="geometry" />
        </mxCell>
        <mxCell id="CRXfzsOC0slFhMcfU7Hz-5" value="TupleOf" style="ellipse;whiteSpace=wrap;html=1;fillColor=#b0e3e6;strokeColor=#0e8088;" parent="pttRT5z6rKzQrrYEBCru-1" vertex="1">
          <mxGeometry x="960.84" y="880" width="80" height="40" as="geometry" />
        </mxCell>
        <mxCell id="CRXfzsOC0slFhMcfU7Hz-6" value="String" style="ellipse;whiteSpace=wrap;html=1;fillColor=#f5f5f5;strokeColor=#666666;fontColor=#333333;" parent="pttRT5z6rKzQrrYEBCru-1" vertex="1">
          <mxGeometry x="1080.5400000000002" y="850" width="80" height="40" as="geometry" />
        </mxCell>
        <mxCell id="CRXfzsOC0slFhMcfU7Hz-7" value="Int" style="ellipse;whiteSpace=wrap;html=1;fillColor=#f5f5f5;strokeColor=#666666;fontColor=#333333;" parent="pttRT5z6rKzQrrYEBCru-1" vertex="1">
          <mxGeometry x="1080.5400000000002" y="910" width="80" height="40" as="geometry" />
        </mxCell>
        <mxCell id="CRXfzsOC0slFhMcfU7Hz-10" value="" style="ellipse;whiteSpace=wrap;html=1;dashed=1;" parent="pttRT5z6rKzQrrYEBCru-1" vertex="1">
          <mxGeometry x="959.9399999999999" y="1000" width="80" height="40" as="geometry" />
        </mxCell>
        <mxCell id="OtbDP95pTsCMvHsCqmJp-15" style="edgeStyle=orthogonalEdgeStyle;rounded=0;orthogonalLoop=1;jettySize=auto;html=1;entryX=0.5;entryY=1;entryDx=0;entryDy=0;startArrow=ERmandOne;startFill=0;" parent="pttRT5z6rKzQrrYEBCru-1" source="OtbDP95pTsCMvHsCqmJp-16" target="OtbDP95pTsCMvHsCqmJp-18" edge="1">
          <mxGeometry relative="1" as="geometry" />
        </mxCell>
        <mxCell id="OtbDP95pTsCMvHsCqmJp-16" value="head" style="rounded=1;whiteSpace=wrap;html=1;fillColor=#fff2cc;strokeColor=#d6b656;" parent="pttRT5z6rKzQrrYEBCru-1" vertex="1">
          <mxGeometry x="780" y="160" width="40" height="40" as="geometry" />
        </mxCell>
        <mxCell id="OtbDP95pTsCMvHsCqmJp-17" style="edgeStyle=orthogonalEdgeStyle;rounded=0;orthogonalLoop=1;jettySize=auto;html=1;entryX=0;entryY=0.5;entryDx=0;entryDy=0;dashed=1;dashPattern=1 2;" parent="pttRT5z6rKzQrrYEBCru-1" source="OtbDP95pTsCMvHsCqmJp-18" target="OtbDP95pTsCMvHsCqmJp-27" edge="1">
          <mxGeometry relative="1" as="geometry" />
        </mxCell>
        <mxCell id="OtbDP95pTsCMvHsCqmJp-18" value="" style="rounded=1;whiteSpace=wrap;html=1;" parent="pttRT5z6rKzQrrYEBCru-1" vertex="1">
          <mxGeometry x="760.0000000000001" y="80" width="80" height="40" as="geometry" />
        </mxCell>
        <mxCell id="OtbDP95pTsCMvHsCqmJp-19" style="edgeStyle=orthogonalEdgeStyle;rounded=0;orthogonalLoop=1;jettySize=auto;html=1;entryX=0;entryY=0.5;entryDx=0;entryDy=0;dashed=1;dashPattern=1 2;exitX=1;exitY=0.5;exitDx=0;exitDy=0;" parent="pttRT5z6rKzQrrYEBCru-1" source="OtbDP95pTsCMvHsCqmJp-16" target="OtbDP95pTsCMvHsCqmJp-22" edge="1">
          <mxGeometry relative="1" as="geometry">
            <mxPoint x="840" y="180" as="sourcePoint" />
          </mxGeometry>
        </mxCell>
        <mxCell id="OtbDP95pTsCMvHsCqmJp-21" style="edgeStyle=orthogonalEdgeStyle;rounded=0;orthogonalLoop=1;jettySize=auto;html=1;entryX=0;entryY=0.5;entryDx=0;entryDy=0;dashed=1;dashPattern=1 2;" parent="pttRT5z6rKzQrrYEBCru-1" source="OtbDP95pTsCMvHsCqmJp-22" target="OtbDP95pTsCMvHsCqmJp-24" edge="1">
          <mxGeometry relative="1" as="geometry" />
        </mxCell>
        <mxCell id="OtbDP95pTsCMvHsCqmJp-22" value="BlockOf" style="ellipse;whiteSpace=wrap;html=1;fillColor=#b0e3e6;strokeColor=#0e8088;" parent="pttRT5z6rKzQrrYEBCru-1" vertex="1">
          <mxGeometry x="959.94" y="160" width="80" height="40" as="geometry" />
        </mxCell>
        <mxCell id="OtbDP95pTsCMvHsCqmJp-24" value="" style="ellipse;whiteSpace=wrap;html=1;dashed=1;" parent="pttRT5z6rKzQrrYEBCru-1" vertex="1">
          <mxGeometry x="1080.1799999999998" y="160" width="80" height="40" as="geometry" />
        </mxCell>
        <mxCell id="OtbDP95pTsCMvHsCqmJp-25" style="edgeStyle=orthogonalEdgeStyle;rounded=0;orthogonalLoop=1;jettySize=auto;html=1;entryX=0;entryY=0.5;entryDx=0;entryDy=0;dashed=1;dashPattern=1 2;" parent="pttRT5z6rKzQrrYEBCru-1" source="OtbDP95pTsCMvHsCqmJp-27" target="OtbDP95pTsCMvHsCqmJp-28" edge="1">
          <mxGeometry relative="1" as="geometry" />
        </mxCell>
        <mxCell id="OtbDP95pTsCMvHsCqmJp-27" value="BlockOf" style="ellipse;whiteSpace=wrap;html=1;fillColor=#b0e3e6;strokeColor=#0e8088;" parent="pttRT5z6rKzQrrYEBCru-1" vertex="1">
          <mxGeometry x="960.3000000000001" y="80" width="80" height="40" as="geometry" />
        </mxCell>
        <mxCell id="OtbDP95pTsCMvHsCqmJp-28" value="String" style="ellipse;whiteSpace=wrap;html=1;fillColor=#f5f5f5;strokeColor=#666666;fontColor=#333333;" parent="pttRT5z6rKzQrrYEBCru-1" vertex="1">
          <mxGeometry x="1080.54" y="80" width="80" height="40" as="geometry" />
        </mxCell>
        <mxCell id="OtbDP95pTsCMvHsCqmJp-30" style="edgeStyle=orthogonalEdgeStyle;rounded=0;orthogonalLoop=1;jettySize=auto;html=1;entryX=0.5;entryY=1;entryDx=0;entryDy=0;startArrow=ERmandOne;startFill=0;" parent="pttRT5z6rKzQrrYEBCru-1" source="OtbDP95pTsCMvHsCqmJp-32" target="OtbDP95pTsCMvHsCqmJp-34" edge="1">
          <mxGeometry relative="1" as="geometry" />
        </mxCell>
        <mxCell id="OtbDP95pTsCMvHsCqmJp-31" style="edgeStyle=orthogonalEdgeStyle;rounded=0;orthogonalLoop=1;jettySize=auto;html=1;entryX=0;entryY=0.5;entryDx=0;entryDy=0;dashed=1;dashPattern=1 2;" parent="pttRT5z6rKzQrrYEBCru-1" source="OtbDP95pTsCMvHsCqmJp-32" target="OtbDP95pTsCMvHsCqmJp-40" edge="1">
          <mxGeometry relative="1" as="geometry" />
        </mxCell>
        <mxCell id="OtbDP95pTsCMvHsCqmJp-32" value="" style="ellipse;whiteSpace=wrap;html=1;aspect=fixed;rounded=1;shadow=0;glass=0;sketch=0;align=left;fillColor=#fff2cc;strokeColor=#d6b656;" parent="pttRT5z6rKzQrrYEBCru-1" vertex="1">
          <mxGeometry x="790" y="730" width="20" height="20" as="geometry" />
        </mxCell>
        <mxCell id="OtbDP95pTsCMvHsCqmJp-33" style="edgeStyle=orthogonalEdgeStyle;rounded=0;orthogonalLoop=1;jettySize=auto;html=1;entryX=0;entryY=0.5;entryDx=0;entryDy=0;dashed=1;dashPattern=1 2;" parent="pttRT5z6rKzQrrYEBCru-1" source="OtbDP95pTsCMvHsCqmJp-34" target="OtbDP95pTsCMvHsCqmJp-38" edge="1">
          <mxGeometry relative="1" as="geometry">
            <mxPoint x="959.94" y="660" as="targetPoint" />
          </mxGeometry>
        </mxCell>
        <mxCell id="OtbDP95pTsCMvHsCqmJp-34" value="" style="rounded=1;whiteSpace=wrap;html=1;" parent="pttRT5z6rKzQrrYEBCru-1" vertex="1">
          <mxGeometry x="760.0000000000001" y="640" width="80" height="40" as="geometry" />
        </mxCell>
        <mxCell id="OtbDP95pTsCMvHsCqmJp-38" value="String" style="ellipse;whiteSpace=wrap;html=1;fillColor=#f5f5f5;strokeColor=#666666;fontColor=#333333;" parent="pttRT5z6rKzQrrYEBCru-1" vertex="1">
          <mxGeometry x="959.94" y="640" width="80" height="40" as="geometry" />
        </mxCell>
        <mxCell id="OtbDP95pTsCMvHsCqmJp-40" value="" style="ellipse;whiteSpace=wrap;html=1;dashed=1;" parent="pttRT5z6rKzQrrYEBCru-1" vertex="1">
          <mxGeometry x="959.9399999999999" y="720" width="80" height="40" as="geometry" />
        </mxCell>
        <mxCell id="weBOL5ipoGckPf3rUBJ2-0" style="edgeStyle=orthogonalEdgeStyle;rounded=0;orthogonalLoop=1;jettySize=auto;html=1;entryX=0.5;entryY=1;entryDx=0;entryDy=0;" parent="pttRT5z6rKzQrrYEBCru-1" source="weBOL5ipoGckPf3rUBJ2-1" target="weBOL5ipoGckPf3rUBJ2-3" edge="1">
          <mxGeometry relative="1" as="geometry" />
        </mxCell>
        <mxCell id="weBOL5ipoGckPf3rUBJ2-1" value="1" style="rounded=1;whiteSpace=wrap;html=1;fillColor=#fff2cc;strokeColor=#d6b656;" parent="pttRT5z6rKzQrrYEBCru-1" vertex="1">
          <mxGeometry x="1339.58" y="160" width="40" height="40" as="geometry" />
        </mxCell>
        <mxCell id="weBOL5ipoGckPf3rUBJ2-2" style="edgeStyle=orthogonalEdgeStyle;rounded=0;orthogonalLoop=1;jettySize=auto;html=1;entryX=0;entryY=0.5;entryDx=0;entryDy=0;dashed=1;dashPattern=1 2;" parent="pttRT5z6rKzQrrYEBCru-1" source="weBOL5ipoGckPf3rUBJ2-3" target="weBOL5ipoGckPf3rUBJ2-9" edge="1">
          <mxGeometry relative="1" as="geometry" />
        </mxCell>
        <mxCell id="weBOL5ipoGckPf3rUBJ2-3" value="" style="rounded=1;whiteSpace=wrap;html=1;" parent="pttRT5z6rKzQrrYEBCru-1" vertex="1">
          <mxGeometry x="1319.5800000000002" y="80" width="80" height="40" as="geometry" />
        </mxCell>
        <mxCell id="weBOL5ipoGckPf3rUBJ2-4" style="edgeStyle=orthogonalEdgeStyle;rounded=0;orthogonalLoop=1;jettySize=auto;html=1;dashed=1;dashPattern=1 2;exitX=1;exitY=0.5;exitDx=0;exitDy=0;entryX=0;entryY=0.5;entryDx=0;entryDy=0;" parent="pttRT5z6rKzQrrYEBCru-1" source="weBOL5ipoGckPf3rUBJ2-1" target="weBOL5ipoGckPf3rUBJ2-11" edge="1">
          <mxGeometry relative="1" as="geometry">
            <mxPoint x="1399.22" y="180" as="sourcePoint" />
            <mxPoint x="1500" y="220" as="targetPoint" />
          </mxGeometry>
        </mxCell>
        <mxCell id="weBOL5ipoGckPf3rUBJ2-8" style="edgeStyle=orthogonalEdgeStyle;rounded=0;orthogonalLoop=1;jettySize=auto;html=1;entryX=0;entryY=0.5;entryDx=0;entryDy=0;dashed=1;dashPattern=1 2;" parent="pttRT5z6rKzQrrYEBCru-1" source="weBOL5ipoGckPf3rUBJ2-9" target="weBOL5ipoGckPf3rUBJ2-10" edge="1">
          <mxGeometry relative="1" as="geometry" />
        </mxCell>
        <mxCell id="weBOL5ipoGckPf3rUBJ2-9" value="BlockOf" style="ellipse;whiteSpace=wrap;html=1;fillColor=#b0e3e6;strokeColor=#0e8088;" parent="pttRT5z6rKzQrrYEBCru-1" vertex="1">
          <mxGeometry x="1519.52" y="80" width="80" height="40" as="geometry" />
        </mxCell>
        <mxCell id="weBOL5ipoGckPf3rUBJ2-10" value="String" style="ellipse;whiteSpace=wrap;html=1;fillColor=#f5f5f5;strokeColor=#666666;fontColor=#333333;" parent="pttRT5z6rKzQrrYEBCru-1" vertex="1">
          <mxGeometry x="1639.76" y="80" width="80" height="40" as="geometry" />
        </mxCell>
        <mxCell id="weBOL5ipoGckPf3rUBJ2-11" value="String" style="ellipse;whiteSpace=wrap;html=1;fillColor=#f5f5f5;strokeColor=#666666;fontColor=#333333;" parent="pttRT5z6rKzQrrYEBCru-1" vertex="1">
          <mxGeometry x="1519.76" y="160" width="80" height="40" as="geometry" />
        </mxCell>
        <mxCell id="weBOL5ipoGckPf3rUBJ2-12" style="edgeStyle=orthogonalEdgeStyle;rounded=0;orthogonalLoop=1;jettySize=auto;html=1;entryX=0.5;entryY=1;entryDx=0;entryDy=0;" parent="pttRT5z6rKzQrrYEBCru-1" source="weBOL5ipoGckPf3rUBJ2-13" target="weBOL5ipoGckPf3rUBJ2-15" edge="1">
          <mxGeometry relative="1" as="geometry" />
        </mxCell>
        <mxCell id="weBOL5ipoGckPf3rUBJ2-13" value="2" style="rounded=1;whiteSpace=wrap;html=1;fillColor=#fff2cc;strokeColor=#d6b656;" parent="pttRT5z6rKzQrrYEBCru-1" vertex="1">
          <mxGeometry x="1340.06" y="480" width="40" height="40" as="geometry" />
        </mxCell>
        <mxCell id="weBOL5ipoGckPf3rUBJ2-14" style="edgeStyle=orthogonalEdgeStyle;rounded=0;orthogonalLoop=1;jettySize=auto;html=1;entryX=0;entryY=0.5;entryDx=0;entryDy=0;dashed=1;dashPattern=1 2;" parent="pttRT5z6rKzQrrYEBCru-1" source="weBOL5ipoGckPf3rUBJ2-15" target="weBOL5ipoGckPf3rUBJ2-24" edge="1">
          <mxGeometry relative="1" as="geometry" />
        </mxCell>
        <mxCell id="weBOL5ipoGckPf3rUBJ2-15" value="" style="rounded=1;whiteSpace=wrap;html=1;" parent="pttRT5z6rKzQrrYEBCru-1" vertex="1">
          <mxGeometry x="1320.0600000000002" y="360" width="80" height="40" as="geometry" />
        </mxCell>
        <mxCell id="weBOL5ipoGckPf3rUBJ2-16" style="edgeStyle=orthogonalEdgeStyle;rounded=0;orthogonalLoop=1;jettySize=auto;html=1;entryX=0;entryY=0.5;entryDx=0;entryDy=0;dashed=1;dashPattern=1 2;exitX=1;exitY=0.5;exitDx=0;exitDy=0;" parent="pttRT5z6rKzQrrYEBCru-1" source="weBOL5ipoGckPf3rUBJ2-13" target="weBOL5ipoGckPf3rUBJ2-27" edge="1">
          <mxGeometry relative="1" as="geometry">
            <mxPoint x="1400.06" y="500" as="sourcePoint" />
            <mxPoint x="1520" y="500" as="targetPoint" />
          </mxGeometry>
        </mxCell>
        <mxCell id="weBOL5ipoGckPf3rUBJ2-22" style="edgeStyle=orthogonalEdgeStyle;rounded=0;orthogonalLoop=1;jettySize=auto;html=1;entryX=0;entryY=0.5;entryDx=0;entryDy=0;dashed=1;dashPattern=1 2;" parent="pttRT5z6rKzQrrYEBCru-1" source="weBOL5ipoGckPf3rUBJ2-24" target="weBOL5ipoGckPf3rUBJ2-25" edge="1">
          <mxGeometry relative="1" as="geometry" />
        </mxCell>
        <mxCell id="weBOL5ipoGckPf3rUBJ2-23" style="edgeStyle=orthogonalEdgeStyle;rounded=0;orthogonalLoop=1;jettySize=auto;html=1;entryX=0;entryY=0.5;entryDx=0;entryDy=0;dashed=1;dashPattern=1 2;" parent="pttRT5z6rKzQrrYEBCru-1" source="weBOL5ipoGckPf3rUBJ2-24" target="weBOL5ipoGckPf3rUBJ2-26" edge="1">
          <mxGeometry relative="1" as="geometry" />
        </mxCell>
        <mxCell id="weBOL5ipoGckPf3rUBJ2-24" value="TupleOf" style="ellipse;whiteSpace=wrap;html=1;fillColor=#b0e3e6;strokeColor=#0e8088;" parent="pttRT5z6rKzQrrYEBCru-1" vertex="1">
          <mxGeometry x="1520" y="360" width="80" height="40" as="geometry" />
        </mxCell>
        <mxCell id="weBOL5ipoGckPf3rUBJ2-25" value="String" style="ellipse;whiteSpace=wrap;html=1;fillColor=#f5f5f5;strokeColor=#666666;fontColor=#333333;" parent="pttRT5z6rKzQrrYEBCru-1" vertex="1">
          <mxGeometry x="1639.6999999999998" y="330" width="80" height="40" as="geometry" />
        </mxCell>
        <mxCell id="weBOL5ipoGckPf3rUBJ2-26" value="Int" style="ellipse;whiteSpace=wrap;html=1;fillColor=#f5f5f5;strokeColor=#666666;fontColor=#333333;" parent="pttRT5z6rKzQrrYEBCru-1" vertex="1">
          <mxGeometry x="1639.6999999999998" y="390" width="80" height="40" as="geometry" />
        </mxCell>
        <mxCell id="weBOL5ipoGckPf3rUBJ2-27" value="Int" style="ellipse;whiteSpace=wrap;html=1;fillColor=#f5f5f5;strokeColor=#666666;fontColor=#333333;" parent="pttRT5z6rKzQrrYEBCru-1" vertex="1">
          <mxGeometry x="1519.6999999999998" y="480" width="80" height="40" as="geometry" />
        </mxCell>
        <mxCell id="n_0hpuoXhCBXNDB72fDZ-15" style="edgeStyle=orthogonalEdgeStyle;rounded=0;orthogonalLoop=1;jettySize=auto;html=1;entryX=0.5;entryY=1;entryDx=0;entryDy=0;startArrow=ERmandOne;startFill=0;" parent="pttRT5z6rKzQrrYEBCru-1" source="n_0hpuoXhCBXNDB72fDZ-0" target="n_0hpuoXhCBXNDB72fDZ-4" edge="1">
          <mxGeometry relative="1" as="geometry" />
        </mxCell>
        <mxCell id="n_0hpuoXhCBXNDB72fDZ-16" style="edgeStyle=orthogonalEdgeStyle;rounded=0;orthogonalLoop=1;jettySize=auto;html=1;entryX=0.5;entryY=1;entryDx=0;entryDy=0;" parent="pttRT5z6rKzQrrYEBCru-1" source="n_0hpuoXhCBXNDB72fDZ-0" target="n_0hpuoXhCBXNDB72fDZ-13" edge="1">
          <mxGeometry relative="1" as="geometry" />
        </mxCell>
        <mxCell id="n_0hpuoXhCBXNDB72fDZ-0" value="" style="rounded=0;whiteSpace=wrap;html=1;fillColor=#dae8fc;strokeColor=#6c8ebf;" parent="pttRT5z6rKzQrrYEBCru-1" vertex="1">
          <mxGeometry x="790.9000000000001" y="1530" width="20" height="20" as="geometry" />
        </mxCell>
        <mxCell id="n_0hpuoXhCBXNDB72fDZ-3" style="edgeStyle=orthogonalEdgeStyle;rounded=0;orthogonalLoop=1;jettySize=auto;html=1;entryX=0;entryY=0.5;entryDx=0;entryDy=0;dashed=1;dashPattern=1 2;" parent="pttRT5z6rKzQrrYEBCru-1" source="n_0hpuoXhCBXNDB72fDZ-4" target="n_0hpuoXhCBXNDB72fDZ-7" edge="1">
          <mxGeometry relative="1" as="geometry" />
        </mxCell>
        <mxCell id="n_0hpuoXhCBXNDB72fDZ-4" value="" style="rounded=1;whiteSpace=wrap;html=1;" parent="pttRT5z6rKzQrrYEBCru-1" vertex="1">
          <mxGeometry x="760.9000000000001" y="1360" width="80" height="40" as="geometry" />
        </mxCell>
        <mxCell id="n_0hpuoXhCBXNDB72fDZ-6" style="edgeStyle=orthogonalEdgeStyle;rounded=0;orthogonalLoop=1;jettySize=auto;html=1;entryX=0;entryY=0.5;entryDx=0;entryDy=0;dashed=1;dashPattern=1 2;" parent="pttRT5z6rKzQrrYEBCru-1" source="n_0hpuoXhCBXNDB72fDZ-7" target="n_0hpuoXhCBXNDB72fDZ-8" edge="1">
          <mxGeometry relative="1" as="geometry" />
        </mxCell>
        <mxCell id="n_0hpuoXhCBXNDB72fDZ-7" value="BlockOf" style="ellipse;whiteSpace=wrap;html=1;fillColor=#b0e3e6;strokeColor=#0e8088;" parent="pttRT5z6rKzQrrYEBCru-1" vertex="1">
          <mxGeometry x="1031.0500000000002" y="1360" width="80" height="40" as="geometry" />
        </mxCell>
        <mxCell id="n_0hpuoXhCBXNDB72fDZ-8" value="" style="ellipse;whiteSpace=wrap;html=1;dashed=1;" parent="pttRT5z6rKzQrrYEBCru-1" vertex="1">
          <mxGeometry x="1151.29" y="1360" width="80" height="40" as="geometry" />
        </mxCell>
        <mxCell id="n_0hpuoXhCBXNDB72fDZ-12" value="String" style="ellipse;whiteSpace=wrap;html=1;fillColor=#f5f5f5;strokeColor=#666666;fontColor=#333333;" parent="pttRT5z6rKzQrrYEBCru-1" vertex="1">
          <mxGeometry x="1031.59" y="1440" width="80" height="40" as="geometry" />
        </mxCell>
        <mxCell id="n_0hpuoXhCBXNDB72fDZ-14" style="edgeStyle=orthogonalEdgeStyle;rounded=0;orthogonalLoop=1;jettySize=auto;html=1;exitX=1;exitY=0.5;exitDx=0;exitDy=0;entryX=0;entryY=0.5;entryDx=0;entryDy=0;dashed=1;dashPattern=1 2;" parent="pttRT5z6rKzQrrYEBCru-1" source="n_0hpuoXhCBXNDB72fDZ-13" target="n_0hpuoXhCBXNDB72fDZ-12" edge="1">
          <mxGeometry relative="1" as="geometry" />
        </mxCell>
        <mxCell id="n_0hpuoXhCBXNDB72fDZ-13" value="" style="rounded=1;whiteSpace=wrap;html=1;" parent="pttRT5z6rKzQrrYEBCru-1" vertex="1">
          <mxGeometry x="840.9000000000001" y="1440" width="80" height="40" as="geometry" />
        </mxCell>
        <mxCell id="n_0hpuoXhCBXNDB72fDZ-19" style="edgeStyle=orthogonalEdgeStyle;rounded=0;orthogonalLoop=1;jettySize=auto;html=1;entryX=0;entryY=0.5;entryDx=0;entryDy=0;dashed=1;dashPattern=1 2;exitX=1;exitY=0.5;exitDx=0;exitDy=0;" parent="pttRT5z6rKzQrrYEBCru-1" source="n_0hpuoXhCBXNDB72fDZ-37" target="n_0hpuoXhCBXNDB72fDZ-29" edge="1">
          <mxGeometry relative="1" as="geometry">
            <mxPoint x="921.8000000000001" y="1980" as="sourcePoint" />
          </mxGeometry>
        </mxCell>
        <mxCell id="n_0hpuoXhCBXNDB72fDZ-21" style="edgeStyle=orthogonalEdgeStyle;rounded=0;orthogonalLoop=1;jettySize=auto;html=1;entryX=0;entryY=0.5;entryDx=0;entryDy=0;dashed=1;dashPattern=1 2;exitX=1;exitY=0.5;exitDx=0;exitDy=0;" parent="pttRT5z6rKzQrrYEBCru-1" source="n_0hpuoXhCBXNDB72fDZ-32" target="n_0hpuoXhCBXNDB72fDZ-24" edge="1">
          <mxGeometry relative="1" as="geometry">
            <mxPoint x="821.8000000000001" y="1740" as="sourcePoint" />
          </mxGeometry>
        </mxCell>
        <mxCell id="n_0hpuoXhCBXNDB72fDZ-22" style="edgeStyle=orthogonalEdgeStyle;rounded=0;orthogonalLoop=1;jettySize=auto;html=1;exitX=1;exitY=0.5;exitDx=0;exitDy=0;entryX=0;entryY=0.5;entryDx=0;entryDy=0;dashed=1;dashPattern=1 2;" parent="pttRT5z6rKzQrrYEBCru-1" source="n_0hpuoXhCBXNDB72fDZ-24" target="n_0hpuoXhCBXNDB72fDZ-25" edge="1">
          <mxGeometry relative="1" as="geometry" />
        </mxCell>
        <mxCell id="n_0hpuoXhCBXNDB72fDZ-23" style="edgeStyle=orthogonalEdgeStyle;rounded=0;orthogonalLoop=1;jettySize=auto;html=1;entryX=0;entryY=0.5;entryDx=0;entryDy=0;dashed=1;dashPattern=1 2;" parent="pttRT5z6rKzQrrYEBCru-1" source="n_0hpuoXhCBXNDB72fDZ-24" target="n_0hpuoXhCBXNDB72fDZ-26" edge="1">
          <mxGeometry relative="1" as="geometry" />
        </mxCell>
        <mxCell id="n_0hpuoXhCBXNDB72fDZ-24" value="TupleOf" style="ellipse;whiteSpace=wrap;html=1;fillColor=#b0e3e6;strokeColor=#0e8088;" parent="pttRT5z6rKzQrrYEBCru-1" vertex="1">
          <mxGeometry x="1040.8400000000001" y="1720" width="80" height="40" as="geometry" />
        </mxCell>
        <mxCell id="n_0hpuoXhCBXNDB72fDZ-25" value="" style="ellipse;whiteSpace=wrap;html=1;dashed=1;" parent="pttRT5z6rKzQrrYEBCru-1" vertex="1">
          <mxGeometry x="1160.7199999999998" y="1690" width="80" height="40" as="geometry" />
        </mxCell>
        <mxCell id="n_0hpuoXhCBXNDB72fDZ-26" value="" style="ellipse;whiteSpace=wrap;html=1;dashed=1;" parent="pttRT5z6rKzQrrYEBCru-1" vertex="1">
          <mxGeometry x="1160.5399999999997" y="1750" width="80" height="40" as="geometry" />
        </mxCell>
        <mxCell id="n_0hpuoXhCBXNDB72fDZ-27" style="edgeStyle=orthogonalEdgeStyle;rounded=0;orthogonalLoop=1;jettySize=auto;html=1;entryX=0;entryY=0.5;entryDx=0;entryDy=0;dashed=1;dashPattern=1 2;" parent="pttRT5z6rKzQrrYEBCru-1" source="n_0hpuoXhCBXNDB72fDZ-29" target="n_0hpuoXhCBXNDB72fDZ-30" edge="1">
          <mxGeometry relative="1" as="geometry" />
        </mxCell>
        <mxCell id="n_0hpuoXhCBXNDB72fDZ-28" style="edgeStyle=orthogonalEdgeStyle;rounded=0;orthogonalLoop=1;jettySize=auto;html=1;entryX=0;entryY=0.5;entryDx=0;entryDy=0;dashed=1;dashPattern=1 2;" parent="pttRT5z6rKzQrrYEBCru-1" source="n_0hpuoXhCBXNDB72fDZ-29" target="n_0hpuoXhCBXNDB72fDZ-31" edge="1">
          <mxGeometry relative="1" as="geometry" />
        </mxCell>
        <mxCell id="n_0hpuoXhCBXNDB72fDZ-29" value="TupleOf" style="ellipse;whiteSpace=wrap;html=1;fillColor=#b0e3e6;strokeColor=#0e8088;" parent="pttRT5z6rKzQrrYEBCru-1" vertex="1">
          <mxGeometry x="1041.7400000000002" y="1960" width="80" height="40" as="geometry" />
        </mxCell>
        <mxCell id="n_0hpuoXhCBXNDB72fDZ-30" value="String" style="ellipse;whiteSpace=wrap;html=1;fillColor=#f5f5f5;strokeColor=#666666;fontColor=#333333;" parent="pttRT5z6rKzQrrYEBCru-1" vertex="1">
          <mxGeometry x="1161.44" y="1930" width="80" height="40" as="geometry" />
        </mxCell>
        <mxCell id="n_0hpuoXhCBXNDB72fDZ-31" value="Int" style="ellipse;whiteSpace=wrap;html=1;fillColor=#f5f5f5;strokeColor=#666666;fontColor=#333333;" parent="pttRT5z6rKzQrrYEBCru-1" vertex="1">
          <mxGeometry x="1161.44" y="1990" width="80" height="40" as="geometry" />
        </mxCell>
        <mxCell id="n_0hpuoXhCBXNDB72fDZ-32" value="" style="rounded=1;whiteSpace=wrap;html=1;" parent="pttRT5z6rKzQrrYEBCru-1" vertex="1">
          <mxGeometry x="760.0000000000001" y="1720" width="80" height="40" as="geometry" />
        </mxCell>
        <mxCell id="n_0hpuoXhCBXNDB72fDZ-41" style="edgeStyle=orthogonalEdgeStyle;rounded=0;orthogonalLoop=1;jettySize=auto;html=1;entryX=0;entryY=0.5;entryDx=0;entryDy=0;dashed=1;dashPattern=1 2;" parent="pttRT5z6rKzQrrYEBCru-1" source="n_0hpuoXhCBXNDB72fDZ-33" target="n_0hpuoXhCBXNDB72fDZ-35" edge="1">
          <mxGeometry relative="1" as="geometry" />
        </mxCell>
        <mxCell id="n_0hpuoXhCBXNDB72fDZ-33" value="" style="rounded=1;whiteSpace=wrap;html=1;" parent="pttRT5z6rKzQrrYEBCru-1" vertex="1">
          <mxGeometry x="820.9000000000001" y="1800" width="80" height="40" as="geometry" />
        </mxCell>
        <mxCell id="n_0hpuoXhCBXNDB72fDZ-42" style="edgeStyle=orthogonalEdgeStyle;rounded=0;orthogonalLoop=1;jettySize=auto;html=1;entryX=0;entryY=0.5;entryDx=0;entryDy=0;dashed=1;dashPattern=1 2;" parent="pttRT5z6rKzQrrYEBCru-1" source="n_0hpuoXhCBXNDB72fDZ-34" target="n_0hpuoXhCBXNDB72fDZ-36" edge="1">
          <mxGeometry relative="1" as="geometry" />
        </mxCell>
        <mxCell id="n_0hpuoXhCBXNDB72fDZ-34" value="" style="rounded=1;whiteSpace=wrap;html=1;" parent="pttRT5z6rKzQrrYEBCru-1" vertex="1">
          <mxGeometry x="879.94" y="1880" width="80" height="40" as="geometry" />
        </mxCell>
        <mxCell id="n_0hpuoXhCBXNDB72fDZ-35" value="String" style="ellipse;whiteSpace=wrap;html=1;fillColor=#f5f5f5;strokeColor=#666666;fontColor=#333333;" parent="pttRT5z6rKzQrrYEBCru-1" vertex="1">
          <mxGeometry x="1040.8400000000001" y="1800" width="80" height="40" as="geometry" />
        </mxCell>
        <mxCell id="n_0hpuoXhCBXNDB72fDZ-36" value="Int" style="ellipse;whiteSpace=wrap;html=1;fillColor=#f5f5f5;strokeColor=#666666;fontColor=#333333;" parent="pttRT5z6rKzQrrYEBCru-1" vertex="1">
          <mxGeometry x="1040.8400000000001" y="1880" width="80" height="40" as="geometry" />
        </mxCell>
        <mxCell id="n_0hpuoXhCBXNDB72fDZ-38" style="edgeStyle=orthogonalEdgeStyle;rounded=0;orthogonalLoop=1;jettySize=auto;html=1;entryX=0.5;entryY=1;entryDx=0;entryDy=0;startArrow=ERmandOne;startFill=0;" parent="pttRT5z6rKzQrrYEBCru-1" source="n_0hpuoXhCBXNDB72fDZ-37" target="n_0hpuoXhCBXNDB72fDZ-32" edge="1">
          <mxGeometry relative="1" as="geometry" />
        </mxCell>
        <mxCell id="n_0hpuoXhCBXNDB72fDZ-39" style="edgeStyle=orthogonalEdgeStyle;rounded=0;orthogonalLoop=1;jettySize=auto;html=1;entryX=0.5;entryY=1;entryDx=0;entryDy=0;" parent="pttRT5z6rKzQrrYEBCru-1" source="n_0hpuoXhCBXNDB72fDZ-37" target="n_0hpuoXhCBXNDB72fDZ-33" edge="1">
          <mxGeometry relative="1" as="geometry" />
        </mxCell>
        <mxCell id="n_0hpuoXhCBXNDB72fDZ-40" style="edgeStyle=orthogonalEdgeStyle;rounded=0;orthogonalLoop=1;jettySize=auto;html=1;entryX=0.5;entryY=1;entryDx=0;entryDy=0;" parent="pttRT5z6rKzQrrYEBCru-1" source="n_0hpuoXhCBXNDB72fDZ-37" target="n_0hpuoXhCBXNDB72fDZ-34" edge="1">
          <mxGeometry relative="1" as="geometry" />
        </mxCell>
        <mxCell id="n_0hpuoXhCBXNDB72fDZ-37" value="" style="rounded=0;whiteSpace=wrap;html=1;fillColor=#dae8fc;strokeColor=#6c8ebf;" parent="pttRT5z6rKzQrrYEBCru-1" vertex="1">
          <mxGeometry x="790.0000000000001" y="1970" width="20" height="20" as="geometry" />
        </mxCell>
        <mxCell id="ftukYVihr1ctf7NKqVxL-17" style="edgeStyle=orthogonalEdgeStyle;rounded=0;orthogonalLoop=1;jettySize=auto;html=1;entryX=0;entryY=0.5;entryDx=0;entryDy=0;dashed=1;dashPattern=1 2;" parent="pttRT5z6rKzQrrYEBCru-1" source="ftukYVihr1ctf7NKqVxL-0" target="ftukYVihr1ctf7NKqVxL-16" edge="1">
          <mxGeometry relative="1" as="geometry" />
        </mxCell>
        <mxCell id="ftukYVihr1ctf7NKqVxL-0" value="" style="ellipse;whiteSpace=wrap;html=1;aspect=fixed;rounded=1;shadow=0;glass=0;sketch=0;align=left;fillColor=#dae8fc;strokeColor=#6c8ebf;" parent="pttRT5z6rKzQrrYEBCru-1" vertex="1">
          <mxGeometry x="789.9999999999998" y="2370" width="20" height="20" as="geometry" />
        </mxCell>
        <mxCell id="ftukYVihr1ctf7NKqVxL-1" style="edgeStyle=orthogonalEdgeStyle;rounded=0;orthogonalLoop=1;jettySize=auto;html=1;entryX=0.5;entryY=1;entryDx=0;entryDy=0;exitX=0.5;exitY=0;exitDx=0;exitDy=0;startArrow=ERmandOne;startFill=0;" parent="pttRT5z6rKzQrrYEBCru-1" source="ftukYVihr1ctf7NKqVxL-0" target="ftukYVihr1ctf7NKqVxL-5" edge="1">
          <mxGeometry relative="1" as="geometry">
            <mxPoint x="800" y="2370" as="sourcePoint" />
          </mxGeometry>
        </mxCell>
        <mxCell id="ftukYVihr1ctf7NKqVxL-2" style="edgeStyle=orthogonalEdgeStyle;rounded=0;orthogonalLoop=1;jettySize=auto;html=1;entryX=0.5;entryY=1;entryDx=0;entryDy=0;exitX=1;exitY=0.5;exitDx=0;exitDy=0;" parent="pttRT5z6rKzQrrYEBCru-1" source="ftukYVihr1ctf7NKqVxL-0" target="ftukYVihr1ctf7NKqVxL-11" edge="1">
          <mxGeometry relative="1" as="geometry">
            <mxPoint x="820" y="2390" as="sourcePoint" />
          </mxGeometry>
        </mxCell>
        <mxCell id="ftukYVihr1ctf7NKqVxL-4" style="edgeStyle=orthogonalEdgeStyle;rounded=0;orthogonalLoop=1;jettySize=auto;html=1;entryX=0;entryY=0.5;entryDx=0;entryDy=0;dashed=1;dashPattern=1 2;" parent="pttRT5z6rKzQrrYEBCru-1" source="ftukYVihr1ctf7NKqVxL-5" target="ftukYVihr1ctf7NKqVxL-8" edge="1">
          <mxGeometry relative="1" as="geometry">
            <mxPoint x="959.4000000000001" y="2220" as="targetPoint" />
          </mxGeometry>
        </mxCell>
        <mxCell id="ftukYVihr1ctf7NKqVxL-5" value="" style="rounded=1;whiteSpace=wrap;html=1;" parent="pttRT5z6rKzQrrYEBCru-1" vertex="1">
          <mxGeometry x="760.0000000000001" y="2200" width="80" height="40" as="geometry" />
        </mxCell>
        <mxCell id="ftukYVihr1ctf7NKqVxL-8" value="" style="ellipse;whiteSpace=wrap;html=1;dashed=1;" parent="pttRT5z6rKzQrrYEBCru-1" vertex="1">
          <mxGeometry x="1040.1499999999999" y="2200" width="80" height="40" as="geometry" />
        </mxCell>
        <mxCell id="ftukYVihr1ctf7NKqVxL-9" value="String" style="ellipse;whiteSpace=wrap;html=1;fillColor=#f5f5f5;strokeColor=#666666;fontColor=#333333;" parent="pttRT5z6rKzQrrYEBCru-1" vertex="1">
          <mxGeometry x="1040.84" y="2280" width="80" height="40" as="geometry" />
        </mxCell>
        <mxCell id="ftukYVihr1ctf7NKqVxL-10" style="edgeStyle=orthogonalEdgeStyle;rounded=0;orthogonalLoop=1;jettySize=auto;html=1;exitX=1;exitY=0.5;exitDx=0;exitDy=0;entryX=0;entryY=0.5;entryDx=0;entryDy=0;dashed=1;dashPattern=1 2;" parent="pttRT5z6rKzQrrYEBCru-1" source="ftukYVihr1ctf7NKqVxL-11" target="ftukYVihr1ctf7NKqVxL-9" edge="1">
          <mxGeometry relative="1" as="geometry">
            <mxPoint x="1000.9" y="2300" as="sourcePoint" />
          </mxGeometry>
        </mxCell>
        <mxCell id="ftukYVihr1ctf7NKqVxL-11" value="" style="rounded=1;whiteSpace=wrap;html=1;" parent="pttRT5z6rKzQrrYEBCru-1" vertex="1">
          <mxGeometry x="840.0000000000001" y="2280" width="80" height="40" as="geometry" />
        </mxCell>
        <mxCell id="ftukYVihr1ctf7NKqVxL-12" style="edgeStyle=orthogonalEdgeStyle;rounded=0;orthogonalLoop=1;jettySize=auto;html=1;entryX=0;entryY=0.5;entryDx=0;entryDy=0;dashed=1;dashPattern=1 2;exitX=1;exitY=0.5;exitDx=0;exitDy=0;" parent="pttRT5z6rKzQrrYEBCru-1" source="n_0hpuoXhCBXNDB72fDZ-0" target="ftukYVihr1ctf7NKqVxL-14" edge="1">
          <mxGeometry relative="1" as="geometry">
            <mxPoint x="839.3100000000002" y="1540" as="sourcePoint" />
          </mxGeometry>
        </mxCell>
        <mxCell id="ftukYVihr1ctf7NKqVxL-13" style="edgeStyle=orthogonalEdgeStyle;rounded=0;orthogonalLoop=1;jettySize=auto;html=1;entryX=0;entryY=0.5;entryDx=0;entryDy=0;dashed=1;dashPattern=1 2;" parent="pttRT5z6rKzQrrYEBCru-1" source="ftukYVihr1ctf7NKqVxL-14" target="ftukYVihr1ctf7NKqVxL-15" edge="1">
          <mxGeometry relative="1" as="geometry" />
        </mxCell>
        <mxCell id="ftukYVihr1ctf7NKqVxL-14" value="BlockOf" style="ellipse;whiteSpace=wrap;html=1;fillColor=#b0e3e6;strokeColor=#0e8088;" parent="pttRT5z6rKzQrrYEBCru-1" vertex="1">
          <mxGeometry x="1030" y="1520" width="80" height="40" as="geometry" />
        </mxCell>
        <mxCell id="ftukYVihr1ctf7NKqVxL-15" value="String" style="ellipse;whiteSpace=wrap;html=1;fillColor=#f5f5f5;strokeColor=#666666;fontColor=#333333;" parent="pttRT5z6rKzQrrYEBCru-1" vertex="1">
          <mxGeometry x="1150.24" y="1520" width="80" height="40" as="geometry" />
        </mxCell>
        <mxCell id="ftukYVihr1ctf7NKqVxL-16" value="String" style="ellipse;whiteSpace=wrap;html=1;fillColor=#f5f5f5;strokeColor=#666666;fontColor=#333333;" parent="pttRT5z6rKzQrrYEBCru-1" vertex="1">
          <mxGeometry x="1040.84" y="2360" width="80" height="40" as="geometry" />
        </mxCell>
      </root>
    </mxGraphModel>
  </diagram>
  <diagram name="Slot Propagation" id="UTyZ_nDhRGHTKxZSvGPJ">
    <mxGraphModel dx="1614" dy="934" grid="1" gridSize="10" guides="1" tooltips="1" connect="1" arrows="1" fold="1" page="1" pageScale="1" pageWidth="2339" pageHeight="3300" math="0" shadow="0">
      <root>
        <mxCell id="EDEIHEQZ1esRYnYp5eT2-0" />
        <mxCell id="EDEIHEQZ1esRYnYp5eT2-1" parent="EDEIHEQZ1esRYnYp5eT2-0" />
        <mxCell id="EDEIHEQZ1esRYnYp5eT2-5" style="edgeStyle=orthogonalEdgeStyle;rounded=0;orthogonalLoop=1;jettySize=auto;html=1;exitX=0.5;exitY=0;exitDx=0;exitDy=0;strokeWidth=1;endArrow=classic;endFill=1;startArrow=none;startFill=0;" edge="1" parent="EDEIHEQZ1esRYnYp5eT2-1" source="EDEIHEQZ1esRYnYp5eT2-6">
          <mxGeometry relative="1" as="geometry">
            <mxPoint x="400" y="160" as="targetPoint" />
          </mxGeometry>
        </mxCell>
        <mxCell id="EDEIHEQZ1esRYnYp5eT2-6" value="&lt;i&gt;p&lt;/i&gt;" style="rounded=1;whiteSpace=wrap;html=1;fillColor=#d5e8d4;strokeColor=#82b366;" vertex="1" parent="EDEIHEQZ1esRYnYp5eT2-1">
          <mxGeometry x="360.00000000000006" y="200" width="80" height="40" as="geometry" />
        </mxCell>
        <mxCell id="EDEIHEQZ1esRYnYp5eT2-9" value="&lt;i&gt;I&lt;/i&gt;" style="rounded=1;whiteSpace=wrap;html=1;" vertex="1" parent="EDEIHEQZ1esRYnYp5eT2-1">
          <mxGeometry x="360.00000000000006" y="120" width="80" height="40" as="geometry" />
        </mxCell>
        <mxCell id="EDEIHEQZ1esRYnYp5eT2-109" value="head" style="rounded=1;whiteSpace=wrap;html=1;fillColor=#fff2cc;strokeColor=#d6b656;" vertex="1" parent="EDEIHEQZ1esRYnYp5eT2-1">
          <mxGeometry x="380" y="520" width="40" height="40" as="geometry" />
        </mxCell>
        <mxCell id="EDEIHEQZ1esRYnYp5eT2-146" style="edgeStyle=orthogonalEdgeStyle;rounded=0;orthogonalLoop=1;jettySize=auto;html=1;entryX=0.5;entryY=1;entryDx=0;entryDy=0;startArrow=none;startFill=0;" edge="1" parent="EDEIHEQZ1esRYnYp5eT2-1" source="EDEIHEQZ1esRYnYp5eT2-148" target="EDEIHEQZ1esRYnYp5eT2-150">
          <mxGeometry relative="1" as="geometry" />
        </mxCell>
        <mxCell id="EDEIHEQZ1esRYnYp5eT2-147" style="edgeStyle=orthogonalEdgeStyle;rounded=1;orthogonalLoop=1;jettySize=auto;html=1;entryX=0.5;entryY=1;entryDx=0;entryDy=0;" edge="1" parent="EDEIHEQZ1esRYnYp5eT2-1" source="EDEIHEQZ1esRYnYp5eT2-148" target="EDEIHEQZ1esRYnYp5eT2-156">
          <mxGeometry relative="1" as="geometry" />
        </mxCell>
        <mxCell id="EDEIHEQZ1esRYnYp5eT2-148" value="" style="rounded=0;whiteSpace=wrap;html=1;fillColor=#dae8fc;strokeColor=#6c8ebf;" vertex="1" parent="EDEIHEQZ1esRYnYp5eT2-1">
          <mxGeometry x="390.00000000000006" y="930" width="20" height="20" as="geometry" />
        </mxCell>
        <mxCell id="EDEIHEQZ1esRYnYp5eT2-150" value="&lt;i&gt;H&lt;/i&gt;" style="rounded=1;whiteSpace=wrap;html=1;" vertex="1" parent="EDEIHEQZ1esRYnYp5eT2-1">
          <mxGeometry x="360.00000000000006" y="760" width="80" height="40" as="geometry" />
        </mxCell>
        <mxCell id="EDEIHEQZ1esRYnYp5eT2-156" value="&lt;i&gt;P&lt;/i&gt;" style="rounded=1;whiteSpace=wrap;html=1;" vertex="1" parent="EDEIHEQZ1esRYnYp5eT2-1">
          <mxGeometry x="440.00000000000006" y="840" width="80" height="40" as="geometry" />
        </mxCell>
        <mxCell id="EDEIHEQZ1esRYnYp5eT2-181" value="" style="ellipse;whiteSpace=wrap;html=1;aspect=fixed;rounded=1;shadow=0;glass=0;sketch=0;align=left;fillColor=#dae8fc;strokeColor=#6c8ebf;" vertex="1" parent="EDEIHEQZ1esRYnYp5eT2-1">
          <mxGeometry x="389.9999999999997" y="1330" width="20" height="20" as="geometry" />
        </mxCell>
        <mxCell id="EDEIHEQZ1esRYnYp5eT2-182" style="edgeStyle=orthogonalEdgeStyle;rounded=0;orthogonalLoop=1;jettySize=auto;html=1;entryX=0.5;entryY=1;entryDx=0;entryDy=0;exitX=0.5;exitY=0;exitDx=0;exitDy=0;startArrow=none;startFill=0;" edge="1" parent="EDEIHEQZ1esRYnYp5eT2-1" source="EDEIHEQZ1esRYnYp5eT2-181" target="EDEIHEQZ1esRYnYp5eT2-185">
          <mxGeometry relative="1" as="geometry">
            <mxPoint x="399.99999999999994" y="1330" as="sourcePoint" />
          </mxGeometry>
        </mxCell>
        <mxCell id="EDEIHEQZ1esRYnYp5eT2-183" style="edgeStyle=orthogonalEdgeStyle;rounded=1;orthogonalLoop=1;jettySize=auto;html=1;entryX=0.5;entryY=1;entryDx=0;entryDy=0;exitX=1;exitY=0.5;exitDx=0;exitDy=0;" edge="1" parent="EDEIHEQZ1esRYnYp5eT2-1" source="EDEIHEQZ1esRYnYp5eT2-181" target="EDEIHEQZ1esRYnYp5eT2-189">
          <mxGeometry relative="1" as="geometry">
            <mxPoint x="419.99999999999994" y="1350" as="sourcePoint" />
          </mxGeometry>
        </mxCell>
        <mxCell id="EDEIHEQZ1esRYnYp5eT2-185" value="&lt;i&gt;S&lt;/i&gt;" style="rounded=1;whiteSpace=wrap;html=1;" vertex="1" parent="EDEIHEQZ1esRYnYp5eT2-1">
          <mxGeometry x="360.00000000000006" y="1160" width="80" height="40" as="geometry" />
        </mxCell>
        <mxCell id="EDEIHEQZ1esRYnYp5eT2-189" value="&lt;i&gt;F&lt;/i&gt;" style="rounded=1;whiteSpace=wrap;html=1;" vertex="1" parent="EDEIHEQZ1esRYnYp5eT2-1">
          <mxGeometry x="440.00000000000006" y="1240" width="80" height="40" as="geometry" />
        </mxCell>
        <mxCell id="EDEIHEQZ1esRYnYp5eT2-195" style="edgeStyle=orthogonalEdgeStyle;rounded=0;orthogonalLoop=1;jettySize=auto;html=1;entryX=0.5;entryY=1;entryDx=0;entryDy=0;startArrow=none;startFill=0;" edge="1" parent="EDEIHEQZ1esRYnYp5eT2-1" source="EDEIHEQZ1esRYnYp5eT2-196" target="EDEIHEQZ1esRYnYp5eT2-6">
          <mxGeometry relative="1" as="geometry">
            <mxPoint x="399.99999999999994" y="240" as="targetPoint" />
          </mxGeometry>
        </mxCell>
        <mxCell id="EDEIHEQZ1esRYnYp5eT2-196" value="" style="ellipse;whiteSpace=wrap;html=1;aspect=fixed;rounded=1;shadow=0;glass=0;sketch=0;align=left;fillColor=#fff2cc;strokeColor=#d6b656;" vertex="1" parent="EDEIHEQZ1esRYnYp5eT2-1">
          <mxGeometry x="389.99999999999994" y="290" width="20" height="20" as="geometry" />
        </mxCell>
        <mxCell id="EDEIHEQZ1esRYnYp5eT2-198" value="" style="html=1;shadow=0;dashed=0;align=center;verticalAlign=middle;shape=mxgraph.arrows2.arrow;dy=0.6;dx=40;notch=0;fillColor=#eeeeee;strokeColor=none;" vertex="1" parent="EDEIHEQZ1esRYnYp5eT2-1">
          <mxGeometry x="499.94" y="265" width="80" height="70" as="geometry" />
        </mxCell>
        <mxCell id="EDEIHEQZ1esRYnYp5eT2-201" value="&lt;i&gt;I&lt;/i&gt;" style="rounded=1;whiteSpace=wrap;html=1;" vertex="1" parent="EDEIHEQZ1esRYnYp5eT2-1">
          <mxGeometry x="719.94" y="120" width="80" height="40" as="geometry" />
        </mxCell>
        <mxCell id="EDEIHEQZ1esRYnYp5eT2-202" style="edgeStyle=orthogonalEdgeStyle;rounded=1;orthogonalLoop=1;jettySize=auto;html=1;entryX=0.5;entryY=1;entryDx=0;entryDy=0;startArrow=none;startFill=0;" edge="1" parent="EDEIHEQZ1esRYnYp5eT2-1" source="EDEIHEQZ1esRYnYp5eT2-203" target="EDEIHEQZ1esRYnYp5eT2-201">
          <mxGeometry relative="1" as="geometry">
            <mxPoint x="679.9399999999999" y="240" as="targetPoint" />
            <Array as="points">
              <mxPoint x="760" y="260" />
              <mxPoint x="680" y="260" />
              <mxPoint x="680" y="180" />
              <mxPoint x="760" y="180" />
            </Array>
          </mxGeometry>
        </mxCell>
        <mxCell id="EDEIHEQZ1esRYnYp5eT2-203" value="" style="ellipse;whiteSpace=wrap;html=1;aspect=fixed;rounded=1;shadow=0;glass=0;sketch=0;align=left;fillColor=#fff2cc;strokeColor=#d6b656;" vertex="1" parent="EDEIHEQZ1esRYnYp5eT2-1">
          <mxGeometry x="749.9399999999999" y="290" width="20" height="20" as="geometry" />
        </mxCell>
        <mxCell id="EDEIHEQZ1esRYnYp5eT2-204" style="edgeStyle=orthogonalEdgeStyle;rounded=0;orthogonalLoop=1;jettySize=auto;html=1;strokeWidth=1;endArrow=classic;endFill=1;startArrow=none;startFill=0;entryX=0.5;entryY=1;entryDx=0;entryDy=0;exitX=0.5;exitY=0;exitDx=0;exitDy=0;" edge="1" parent="EDEIHEQZ1esRYnYp5eT2-1" source="EDEIHEQZ1esRYnYp5eT2-109" target="EDEIHEQZ1esRYnYp5eT2-206">
          <mxGeometry relative="1" as="geometry">
            <mxPoint x="399.99999999999994" y="480" as="targetPoint" />
            <mxPoint x="449.94" y="520" as="sourcePoint" />
          </mxGeometry>
        </mxCell>
        <mxCell id="EDEIHEQZ1esRYnYp5eT2-206" value="&lt;i&gt;B&lt;/i&gt;" style="rounded=1;whiteSpace=wrap;html=1;" vertex="1" parent="EDEIHEQZ1esRYnYp5eT2-1">
          <mxGeometry x="360.00000000000006" y="440" width="80" height="40" as="geometry" />
        </mxCell>
        <mxCell id="EDEIHEQZ1esRYnYp5eT2-207" style="edgeStyle=orthogonalEdgeStyle;rounded=0;orthogonalLoop=1;jettySize=auto;html=1;startArrow=none;startFill=0;entryX=0.5;entryY=1;entryDx=0;entryDy=0;" edge="1" parent="EDEIHEQZ1esRYnYp5eT2-1" source="EDEIHEQZ1esRYnYp5eT2-208" target="EDEIHEQZ1esRYnYp5eT2-109">
          <mxGeometry relative="1" as="geometry">
            <mxPoint x="419.94" y="570" as="targetPoint" />
          </mxGeometry>
        </mxCell>
        <mxCell id="EDEIHEQZ1esRYnYp5eT2-208" value="" style="ellipse;whiteSpace=wrap;html=1;aspect=fixed;rounded=1;shadow=0;glass=0;sketch=0;align=left;fillColor=#fff2cc;strokeColor=#d6b656;" vertex="1" parent="EDEIHEQZ1esRYnYp5eT2-1">
          <mxGeometry x="389.99999999999994" y="610" width="20" height="20" as="geometry" />
        </mxCell>
        <mxCell id="EDEIHEQZ1esRYnYp5eT2-209" value="" style="html=1;shadow=0;dashed=0;align=center;verticalAlign=middle;shape=mxgraph.arrows2.arrow;dy=0.6;dx=40;notch=0;fillColor=#eeeeee;strokeColor=none;" vertex="1" parent="EDEIHEQZ1esRYnYp5eT2-1">
          <mxGeometry x="499.94" y="585" width="80" height="70" as="geometry" />
        </mxCell>
        <mxCell id="EDEIHEQZ1esRYnYp5eT2-210" value="&lt;i&gt;B&lt;/i&gt;" style="rounded=1;whiteSpace=wrap;html=1;" vertex="1" parent="EDEIHEQZ1esRYnYp5eT2-1">
          <mxGeometry x="719.94" y="440" width="80" height="40" as="geometry" />
        </mxCell>
        <mxCell id="EDEIHEQZ1esRYnYp5eT2-211" style="edgeStyle=orthogonalEdgeStyle;rounded=1;orthogonalLoop=1;jettySize=auto;html=1;entryX=0.5;entryY=1;entryDx=0;entryDy=0;startArrow=none;startFill=0;" edge="1" parent="EDEIHEQZ1esRYnYp5eT2-1" source="EDEIHEQZ1esRYnYp5eT2-212" target="EDEIHEQZ1esRYnYp5eT2-210">
          <mxGeometry relative="1" as="geometry">
            <mxPoint x="679.9399999999999" y="560" as="targetPoint" />
            <Array as="points">
              <mxPoint x="760" y="580" />
              <mxPoint x="680" y="580" />
              <mxPoint x="680" y="500" />
              <mxPoint x="760" y="500" />
            </Array>
          </mxGeometry>
        </mxCell>
        <mxCell id="EDEIHEQZ1esRYnYp5eT2-212" value="" style="ellipse;whiteSpace=wrap;html=1;aspect=fixed;rounded=1;shadow=0;glass=0;sketch=0;align=left;fillColor=#fff2cc;strokeColor=#d6b656;" vertex="1" parent="EDEIHEQZ1esRYnYp5eT2-1">
          <mxGeometry x="749.9399999999999" y="610" width="20" height="20" as="geometry" />
        </mxCell>
        <mxCell id="EDEIHEQZ1esRYnYp5eT2-214" style="edgeStyle=orthogonalEdgeStyle;rounded=0;orthogonalLoop=1;jettySize=auto;html=1;entryX=0.5;entryY=1;entryDx=0;entryDy=0;startArrow=none;startFill=0;" edge="1" parent="EDEIHEQZ1esRYnYp5eT2-1" source="EDEIHEQZ1esRYnYp5eT2-213" target="EDEIHEQZ1esRYnYp5eT2-148">
          <mxGeometry relative="1" as="geometry" />
        </mxCell>
        <mxCell id="EDEIHEQZ1esRYnYp5eT2-213" value="" style="ellipse;whiteSpace=wrap;html=1;aspect=fixed;rounded=1;shadow=0;glass=0;sketch=0;align=left;fillColor=#fff2cc;strokeColor=#d6b656;" vertex="1" parent="EDEIHEQZ1esRYnYp5eT2-1">
          <mxGeometry x="389.99999999999994" y="1010" width="20" height="20" as="geometry" />
        </mxCell>
        <mxCell id="EDEIHEQZ1esRYnYp5eT2-215" value="" style="html=1;shadow=0;dashed=0;align=center;verticalAlign=middle;shape=mxgraph.arrows2.arrow;dy=0.6;dx=40;notch=0;fillColor=#eeeeee;strokeColor=none;" vertex="1" parent="EDEIHEQZ1esRYnYp5eT2-1">
          <mxGeometry x="579.94" y="985" width="80" height="70" as="geometry" />
        </mxCell>
        <mxCell id="EDEIHEQZ1esRYnYp5eT2-218" value="&lt;i&gt;H&lt;/i&gt;" style="rounded=1;whiteSpace=wrap;html=1;" vertex="1" parent="EDEIHEQZ1esRYnYp5eT2-1">
          <mxGeometry x="799.94" y="760" width="80" height="40" as="geometry" />
        </mxCell>
        <mxCell id="EDEIHEQZ1esRYnYp5eT2-219" style="edgeStyle=orthogonalEdgeStyle;rounded=1;orthogonalLoop=1;jettySize=auto;html=1;entryX=0.5;entryY=1;entryDx=0;entryDy=0;startArrow=none;startFill=0;" edge="1" parent="EDEIHEQZ1esRYnYp5eT2-1" source="EDEIHEQZ1esRYnYp5eT2-220" target="EDEIHEQZ1esRYnYp5eT2-218">
          <mxGeometry relative="1" as="geometry">
            <mxPoint x="759.9399999999998" y="949.9999999999998" as="targetPoint" />
            <Array as="points">
              <mxPoint x="840" y="980" />
              <mxPoint x="760" y="980" />
              <mxPoint x="760" y="820" />
              <mxPoint x="840" y="820" />
            </Array>
          </mxGeometry>
        </mxCell>
        <mxCell id="EDEIHEQZ1esRYnYp5eT2-220" value="" style="ellipse;whiteSpace=wrap;html=1;aspect=fixed;rounded=1;shadow=0;glass=0;sketch=0;align=left;fillColor=#fff2cc;strokeColor=#d6b656;" vertex="1" parent="EDEIHEQZ1esRYnYp5eT2-1">
          <mxGeometry x="829.9399999999999" y="1010" width="20" height="20" as="geometry" />
        </mxCell>
        <mxCell id="EDEIHEQZ1esRYnYp5eT2-222" style="edgeStyle=orthogonalEdgeStyle;rounded=0;orthogonalLoop=1;jettySize=auto;html=1;entryX=0.5;entryY=1;entryDx=0;entryDy=0;startArrow=none;startFill=0;" edge="1" parent="EDEIHEQZ1esRYnYp5eT2-1" source="EDEIHEQZ1esRYnYp5eT2-221" target="EDEIHEQZ1esRYnYp5eT2-181">
          <mxGeometry relative="1" as="geometry" />
        </mxCell>
        <mxCell id="EDEIHEQZ1esRYnYp5eT2-221" value="" style="ellipse;whiteSpace=wrap;html=1;aspect=fixed;rounded=1;shadow=0;glass=0;sketch=0;align=left;fillColor=#fff2cc;strokeColor=#d6b656;" vertex="1" parent="EDEIHEQZ1esRYnYp5eT2-1">
          <mxGeometry x="389.99999999999994" y="1410" width="20" height="20" as="geometry" />
        </mxCell>
        <mxCell id="EDEIHEQZ1esRYnYp5eT2-223" value="" style="html=1;shadow=0;dashed=0;align=center;verticalAlign=middle;shape=mxgraph.arrows2.arrow;dy=0.6;dx=40;notch=0;fillColor=#eeeeee;strokeColor=none;" vertex="1" parent="EDEIHEQZ1esRYnYp5eT2-1">
          <mxGeometry x="579.94" y="1385" width="80" height="70" as="geometry" />
        </mxCell>
        <mxCell id="EDEIHEQZ1esRYnYp5eT2-230" style="edgeStyle=orthogonalEdgeStyle;rounded=0;orthogonalLoop=1;jettySize=auto;html=1;strokeWidth=1;endArrow=classic;endFill=1;startArrow=none;startFill=0;entryX=0.5;entryY=1;entryDx=0;entryDy=0;exitX=0.5;exitY=0;exitDx=0;exitDy=0;" edge="1" parent="EDEIHEQZ1esRYnYp5eT2-1" source="EDEIHEQZ1esRYnYp5eT2-238" target="EDEIHEQZ1esRYnYp5eT2-231">
          <mxGeometry relative="1" as="geometry">
            <mxPoint x="399.99999999999994" y="1600" as="targetPoint" />
            <mxPoint x="399.99999999999994" y="1640" as="sourcePoint" />
          </mxGeometry>
        </mxCell>
        <mxCell id="EDEIHEQZ1esRYnYp5eT2-231" value="&lt;i&gt;B&lt;/i&gt;" style="rounded=1;whiteSpace=wrap;html=1;" vertex="1" parent="EDEIHEQZ1esRYnYp5eT2-1">
          <mxGeometry x="360.00000000000006" y="1560" width="80" height="40" as="geometry" />
        </mxCell>
        <mxCell id="EDEIHEQZ1esRYnYp5eT2-232" style="edgeStyle=orthogonalEdgeStyle;rounded=0;orthogonalLoop=1;jettySize=auto;html=1;startArrow=none;startFill=0;entryX=0.5;entryY=1;entryDx=0;entryDy=0;" edge="1" parent="EDEIHEQZ1esRYnYp5eT2-1" source="EDEIHEQZ1esRYnYp5eT2-233" target="EDEIHEQZ1esRYnYp5eT2-238">
          <mxGeometry relative="1" as="geometry">
            <mxPoint x="399.99999999999994" y="1680" as="targetPoint" />
          </mxGeometry>
        </mxCell>
        <mxCell id="EDEIHEQZ1esRYnYp5eT2-233" value="" style="ellipse;whiteSpace=wrap;html=1;aspect=fixed;rounded=1;shadow=0;glass=0;sketch=0;align=left;fillColor=#fff2cc;strokeColor=#d6b656;" vertex="1" parent="EDEIHEQZ1esRYnYp5eT2-1">
          <mxGeometry x="389.99999999999994" y="1730" width="20" height="20" as="geometry" />
        </mxCell>
        <mxCell id="EDEIHEQZ1esRYnYp5eT2-234" value="" style="html=1;shadow=0;dashed=0;align=center;verticalAlign=middle;shape=mxgraph.arrows2.arrow;dy=0.6;dx=40;notch=0;fillColor=#eeeeee;strokeColor=none;" vertex="1" parent="EDEIHEQZ1esRYnYp5eT2-1">
          <mxGeometry x="499.94" y="1705" width="80" height="70" as="geometry" />
        </mxCell>
        <mxCell id="EDEIHEQZ1esRYnYp5eT2-238" value="" style="ellipse;whiteSpace=wrap;html=1;aspect=fixed;rounded=1;shadow=0;glass=0;sketch=0;align=left;fillColor=#fff2cc;strokeColor=#d6b656;" vertex="1" parent="EDEIHEQZ1esRYnYp5eT2-1">
          <mxGeometry x="389.99999999999994" y="1650" width="20" height="20" as="geometry" />
        </mxCell>
        <mxCell id="gvBabcy8ZZv-u1FsDQUI-4" style="edgeStyle=orthogonalEdgeStyle;rounded=1;orthogonalLoop=1;jettySize=auto;html=1;entryX=0;entryY=0.5;entryDx=0;entryDy=0;startArrow=none;startFill=0;dashed=1;dashPattern=1 2;" edge="1" parent="EDEIHEQZ1esRYnYp5eT2-1" source="BRj3sy8hBxZhRtabKPd--2" target="EDEIHEQZ1esRYnYp5eT2-150">
          <mxGeometry relative="1" as="geometry" />
        </mxCell>
        <mxCell id="BRj3sy8hBxZhRtabKPd--2" value="&lt;i&gt;F&lt;/i&gt;" style="ellipse;whiteSpace=wrap;html=1;fillColor=#b0e3e6;strokeColor=#0e8088;" vertex="1" parent="EDEIHEQZ1esRYnYp5eT2-1">
          <mxGeometry x="160.06000000000012" y="760" width="80" height="40" as="geometry" />
        </mxCell>
        <mxCell id="AbnB5PojkTlQwKqKO-Hi-0" style="edgeStyle=orthogonalEdgeStyle;rounded=1;orthogonalLoop=1;jettySize=auto;html=1;exitX=1;exitY=0.5;exitDx=0;exitDy=0;entryX=0;entryY=0.5;entryDx=0;entryDy=0;dashed=1;dashPattern=1 2;startArrow=none;startFill=0;" edge="1" parent="EDEIHEQZ1esRYnYp5eT2-1" source="BRj3sy8hBxZhRtabKPd--3" target="BRj3sy8hBxZhRtabKPd--2">
          <mxGeometry relative="1" as="geometry" />
        </mxCell>
        <mxCell id="BRj3sy8hBxZhRtabKPd--3" value="" style="ellipse;whiteSpace=wrap;html=1;dashed=1;" vertex="1" parent="EDEIHEQZ1esRYnYp5eT2-1">
          <mxGeometry x="40" y="760" width="80" height="40" as="geometry" />
        </mxCell>
        <mxCell id="AbnB5PojkTlQwKqKO-Hi-1" style="edgeStyle=orthogonalEdgeStyle;rounded=1;orthogonalLoop=1;jettySize=auto;html=1;entryX=0;entryY=0.5;entryDx=0;entryDy=0;dashed=1;dashPattern=1 2;startArrow=none;startFill=0;" edge="1" parent="EDEIHEQZ1esRYnYp5eT2-1" source="gvBabcy8ZZv-u1FsDQUI-0" target="EDEIHEQZ1esRYnYp5eT2-156">
          <mxGeometry relative="1" as="geometry" />
        </mxCell>
        <mxCell id="gvBabcy8ZZv-u1FsDQUI-0" value="&lt;i&gt;T&lt;/i&gt;" style="ellipse;whiteSpace=wrap;html=1;fillColor=#f5f5f5;strokeColor=#666666;fontColor=#333333;" vertex="1" parent="EDEIHEQZ1esRYnYp5eT2-1">
          <mxGeometry x="160.06000000000006" y="840" width="80" height="40" as="geometry" />
        </mxCell>
        <mxCell id="AbnB5PojkTlQwKqKO-Hi-2" style="edgeStyle=orthogonalEdgeStyle;rounded=1;orthogonalLoop=1;jettySize=auto;html=1;exitX=1;exitY=0.5;exitDx=0;exitDy=0;entryX=0;entryY=0.5;entryDx=0;entryDy=0;dashed=1;dashPattern=1 2;startArrow=none;startFill=0;" edge="1" parent="EDEIHEQZ1esRYnYp5eT2-1" source="gvBabcy8ZZv-u1FsDQUI-1" target="EDEIHEQZ1esRYnYp5eT2-148">
          <mxGeometry relative="1" as="geometry" />
        </mxCell>
        <mxCell id="gvBabcy8ZZv-u1FsDQUI-1" value="&lt;i&gt;F&lt;/i&gt;" style="ellipse;whiteSpace=wrap;html=1;fillColor=#b0e3e6;strokeColor=#0e8088;" vertex="1" parent="EDEIHEQZ1esRYnYp5eT2-1">
          <mxGeometry x="160.06000000000012" y="920" width="80" height="40" as="geometry" />
        </mxCell>
        <mxCell id="AbnB5PojkTlQwKqKO-Hi-3" style="edgeStyle=orthogonalEdgeStyle;rounded=1;orthogonalLoop=1;jettySize=auto;html=1;exitX=1;exitY=0.5;exitDx=0;exitDy=0;entryX=0;entryY=0.5;entryDx=0;entryDy=0;dashed=1;dashPattern=1 2;startArrow=none;startFill=0;" edge="1" parent="EDEIHEQZ1esRYnYp5eT2-1" source="gvBabcy8ZZv-u1FsDQUI-2" target="gvBabcy8ZZv-u1FsDQUI-1">
          <mxGeometry relative="1" as="geometry" />
        </mxCell>
        <mxCell id="gvBabcy8ZZv-u1FsDQUI-2" value="&lt;i&gt;T&lt;/i&gt;" style="ellipse;whiteSpace=wrap;html=1;fillColor=#f5f5f5;strokeColor=#666666;fontColor=#333333;" vertex="1" parent="EDEIHEQZ1esRYnYp5eT2-1">
          <mxGeometry x="40.00000000000006" y="920" width="80" height="40" as="geometry" />
        </mxCell>
        <mxCell id="AbnB5PojkTlQwKqKO-Hi-4" style="edgeStyle=orthogonalEdgeStyle;rounded=1;orthogonalLoop=1;jettySize=auto;html=1;entryX=0;entryY=0.5;entryDx=0;entryDy=0;dashed=1;dashPattern=1 2;startArrow=none;startFill=0;" edge="1" parent="EDEIHEQZ1esRYnYp5eT2-1" source="gvBabcy8ZZv-u1FsDQUI-3" target="EDEIHEQZ1esRYnYp5eT2-213">
          <mxGeometry relative="1" as="geometry" />
        </mxCell>
        <mxCell id="gvBabcy8ZZv-u1FsDQUI-3" value="" style="ellipse;whiteSpace=wrap;html=1;dashed=1;" vertex="1" parent="EDEIHEQZ1esRYnYp5eT2-1">
          <mxGeometry x="160.06" y="1000" width="80" height="40" as="geometry" />
        </mxCell>
        <mxCell id="AbnB5PojkTlQwKqKO-Hi-12" style="edgeStyle=orthogonalEdgeStyle;rounded=1;orthogonalLoop=1;jettySize=auto;html=1;entryX=0;entryY=0.5;entryDx=0;entryDy=0;dashed=1;dashPattern=1 2;startArrow=none;startFill=0;" edge="1" parent="EDEIHEQZ1esRYnYp5eT2-1" source="AbnB5PojkTlQwKqKO-Hi-5" target="EDEIHEQZ1esRYnYp5eT2-206">
          <mxGeometry relative="1" as="geometry" />
        </mxCell>
        <mxCell id="AbnB5PojkTlQwKqKO-Hi-5" value="&lt;i&gt;F&lt;/i&gt;" style="ellipse;whiteSpace=wrap;html=1;fillColor=#b0e3e6;strokeColor=#0e8088;" vertex="1" parent="EDEIHEQZ1esRYnYp5eT2-1">
          <mxGeometry x="160.06000000000012" y="440" width="80" height="40" as="geometry" />
        </mxCell>
        <mxCell id="AbnB5PojkTlQwKqKO-Hi-6" style="edgeStyle=orthogonalEdgeStyle;rounded=1;orthogonalLoop=1;jettySize=auto;html=1;exitX=1;exitY=0.5;exitDx=0;exitDy=0;entryX=0;entryY=0.5;entryDx=0;entryDy=0;dashed=1;dashPattern=1 2;startArrow=none;startFill=0;" edge="1" parent="EDEIHEQZ1esRYnYp5eT2-1" source="AbnB5PojkTlQwKqKO-Hi-7" target="AbnB5PojkTlQwKqKO-Hi-5">
          <mxGeometry relative="1" as="geometry" />
        </mxCell>
        <mxCell id="AbnB5PojkTlQwKqKO-Hi-7" value="&lt;i&gt;T&lt;/i&gt;" style="ellipse;whiteSpace=wrap;html=1;fillColor=#f5f5f5;strokeColor=#666666;fontColor=#333333;" vertex="1" parent="EDEIHEQZ1esRYnYp5eT2-1">
          <mxGeometry x="40.00000000000006" y="440" width="80" height="40" as="geometry" />
        </mxCell>
        <mxCell id="AbnB5PojkTlQwKqKO-Hi-13" style="edgeStyle=orthogonalEdgeStyle;rounded=1;orthogonalLoop=1;jettySize=auto;html=1;entryX=0;entryY=0.5;entryDx=0;entryDy=0;dashed=1;dashPattern=1 2;startArrow=none;startFill=0;" edge="1" parent="EDEIHEQZ1esRYnYp5eT2-1" source="AbnB5PojkTlQwKqKO-Hi-8" target="EDEIHEQZ1esRYnYp5eT2-109">
          <mxGeometry relative="1" as="geometry" />
        </mxCell>
        <mxCell id="AbnB5PojkTlQwKqKO-Hi-8" value="&lt;i&gt;F&lt;/i&gt;" style="ellipse;whiteSpace=wrap;html=1;fillColor=#b0e3e6;strokeColor=#0e8088;" vertex="1" parent="EDEIHEQZ1esRYnYp5eT2-1">
          <mxGeometry x="160.06000000000012" y="520" width="80" height="40" as="geometry" />
        </mxCell>
        <mxCell id="AbnB5PojkTlQwKqKO-Hi-9" style="edgeStyle=orthogonalEdgeStyle;rounded=1;orthogonalLoop=1;jettySize=auto;html=1;exitX=1;exitY=0.5;exitDx=0;exitDy=0;entryX=0;entryY=0.5;entryDx=0;entryDy=0;dashed=1;dashPattern=1 2;startArrow=none;startFill=0;" edge="1" parent="EDEIHEQZ1esRYnYp5eT2-1" source="AbnB5PojkTlQwKqKO-Hi-10" target="AbnB5PojkTlQwKqKO-Hi-8">
          <mxGeometry relative="1" as="geometry" />
        </mxCell>
        <mxCell id="AbnB5PojkTlQwKqKO-Hi-10" value="" style="ellipse;whiteSpace=wrap;html=1;dashed=1;" vertex="1" parent="EDEIHEQZ1esRYnYp5eT2-1">
          <mxGeometry x="40" y="520" width="80" height="40" as="geometry" />
        </mxCell>
        <mxCell id="AbnB5PojkTlQwKqKO-Hi-14" style="edgeStyle=orthogonalEdgeStyle;rounded=1;orthogonalLoop=1;jettySize=auto;html=1;entryX=0;entryY=0.5;entryDx=0;entryDy=0;dashed=1;dashPattern=1 2;startArrow=none;startFill=0;" edge="1" parent="EDEIHEQZ1esRYnYp5eT2-1" source="AbnB5PojkTlQwKqKO-Hi-11" target="EDEIHEQZ1esRYnYp5eT2-208">
          <mxGeometry relative="1" as="geometry" />
        </mxCell>
        <mxCell id="AbnB5PojkTlQwKqKO-Hi-11" value="" style="ellipse;whiteSpace=wrap;html=1;dashed=1;" vertex="1" parent="EDEIHEQZ1esRYnYp5eT2-1">
          <mxGeometry x="160.06" y="600" width="80" height="40" as="geometry" />
        </mxCell>
        <mxCell id="AbnB5PojkTlQwKqKO-Hi-18" style="edgeStyle=orthogonalEdgeStyle;rounded=1;orthogonalLoop=1;jettySize=auto;html=1;entryX=0;entryY=0.5;entryDx=0;entryDy=0;dashed=1;dashPattern=1 2;startArrow=none;startFill=0;" edge="1" parent="EDEIHEQZ1esRYnYp5eT2-1" source="AbnB5PojkTlQwKqKO-Hi-15" target="EDEIHEQZ1esRYnYp5eT2-9">
          <mxGeometry relative="1" as="geometry" />
        </mxCell>
        <mxCell id="AbnB5PojkTlQwKqKO-Hi-15" value="&lt;i&gt;T&lt;sub&gt;1&lt;/sub&gt;&lt;/i&gt;" style="ellipse;whiteSpace=wrap;html=1;fillColor=#f5f5f5;strokeColor=#666666;fontColor=#333333;" vertex="1" parent="EDEIHEQZ1esRYnYp5eT2-1">
          <mxGeometry x="160.06000000000006" y="120" width="80" height="40" as="geometry" />
        </mxCell>
        <mxCell id="AbnB5PojkTlQwKqKO-Hi-19" style="edgeStyle=orthogonalEdgeStyle;rounded=1;orthogonalLoop=1;jettySize=auto;html=1;exitX=1;exitY=0.5;exitDx=0;exitDy=0;entryX=0;entryY=0.5;entryDx=0;entryDy=0;dashed=1;dashPattern=1 2;startArrow=none;startFill=0;" edge="1" parent="EDEIHEQZ1esRYnYp5eT2-1" source="AbnB5PojkTlQwKqKO-Hi-16" target="EDEIHEQZ1esRYnYp5eT2-6">
          <mxGeometry relative="1" as="geometry" />
        </mxCell>
        <mxCell id="AbnB5PojkTlQwKqKO-Hi-16" value="&lt;i&gt;T&lt;sub&gt;2&lt;/sub&gt;&lt;/i&gt;" style="ellipse;whiteSpace=wrap;html=1;fillColor=#f5f5f5;strokeColor=#666666;fontColor=#333333;" vertex="1" parent="EDEIHEQZ1esRYnYp5eT2-1">
          <mxGeometry x="160.06000000000006" y="200" width="80" height="40" as="geometry" />
        </mxCell>
        <mxCell id="AbnB5PojkTlQwKqKO-Hi-20" style="edgeStyle=orthogonalEdgeStyle;rounded=1;orthogonalLoop=1;jettySize=auto;html=1;exitX=1;exitY=0.5;exitDx=0;exitDy=0;entryX=0;entryY=0.5;entryDx=0;entryDy=0;dashed=1;dashPattern=1 2;startArrow=none;startFill=0;" edge="1" parent="EDEIHEQZ1esRYnYp5eT2-1" source="AbnB5PojkTlQwKqKO-Hi-17" target="EDEIHEQZ1esRYnYp5eT2-196">
          <mxGeometry relative="1" as="geometry" />
        </mxCell>
        <mxCell id="AbnB5PojkTlQwKqKO-Hi-17" value="" style="ellipse;whiteSpace=wrap;html=1;dashed=1;" vertex="1" parent="EDEIHEQZ1esRYnYp5eT2-1">
          <mxGeometry x="160.06" y="280" width="80" height="40" as="geometry" />
        </mxCell>
        <mxCell id="AbnB5PojkTlQwKqKO-Hi-25" style="edgeStyle=orthogonalEdgeStyle;rounded=1;orthogonalLoop=1;jettySize=auto;html=1;exitX=1;exitY=0.5;exitDx=0;exitDy=0;entryX=0;entryY=0.5;entryDx=0;entryDy=0;dashed=1;dashPattern=1 2;startArrow=none;startFill=0;" edge="1" parent="EDEIHEQZ1esRYnYp5eT2-1" source="AbnB5PojkTlQwKqKO-Hi-21" target="EDEIHEQZ1esRYnYp5eT2-185">
          <mxGeometry relative="1" as="geometry" />
        </mxCell>
        <mxCell id="AbnB5PojkTlQwKqKO-Hi-21" value="" style="ellipse;whiteSpace=wrap;html=1;dashed=1;" vertex="1" parent="EDEIHEQZ1esRYnYp5eT2-1">
          <mxGeometry x="160.06" y="1160" width="80" height="40" as="geometry" />
        </mxCell>
        <mxCell id="AbnB5PojkTlQwKqKO-Hi-28" style="edgeStyle=orthogonalEdgeStyle;rounded=1;orthogonalLoop=1;jettySize=auto;html=1;exitX=1;exitY=0.5;exitDx=0;exitDy=0;entryX=0;entryY=0.5;entryDx=0;entryDy=0;dashed=1;dashPattern=1 2;startArrow=none;startFill=0;" edge="1" parent="EDEIHEQZ1esRYnYp5eT2-1" source="AbnB5PojkTlQwKqKO-Hi-22" target="EDEIHEQZ1esRYnYp5eT2-221">
          <mxGeometry relative="1" as="geometry" />
        </mxCell>
        <mxCell id="AbnB5PojkTlQwKqKO-Hi-22" value="" style="ellipse;whiteSpace=wrap;html=1;dashed=1;" vertex="1" parent="EDEIHEQZ1esRYnYp5eT2-1">
          <mxGeometry x="160.06" y="1400" width="80" height="40" as="geometry" />
        </mxCell>
        <mxCell id="AbnB5PojkTlQwKqKO-Hi-26" style="edgeStyle=orthogonalEdgeStyle;rounded=1;orthogonalLoop=1;jettySize=auto;html=1;entryX=0;entryY=0.5;entryDx=0;entryDy=0;dashed=1;dashPattern=1 2;startArrow=none;startFill=0;" edge="1" parent="EDEIHEQZ1esRYnYp5eT2-1" source="AbnB5PojkTlQwKqKO-Hi-23" target="EDEIHEQZ1esRYnYp5eT2-189">
          <mxGeometry relative="1" as="geometry" />
        </mxCell>
        <mxCell id="AbnB5PojkTlQwKqKO-Hi-23" value="&lt;i&gt;T&lt;/i&gt;" style="ellipse;whiteSpace=wrap;html=1;fillColor=#f5f5f5;strokeColor=#666666;fontColor=#333333;" vertex="1" parent="EDEIHEQZ1esRYnYp5eT2-1">
          <mxGeometry x="160.06000000000006" y="1240" width="80" height="40" as="geometry" />
        </mxCell>
        <mxCell id="AbnB5PojkTlQwKqKO-Hi-27" style="edgeStyle=orthogonalEdgeStyle;rounded=1;orthogonalLoop=1;jettySize=auto;html=1;exitX=1;exitY=0.5;exitDx=0;exitDy=0;entryX=0;entryY=0.5;entryDx=0;entryDy=0;dashed=1;dashPattern=1 2;startArrow=none;startFill=0;" edge="1" parent="EDEIHEQZ1esRYnYp5eT2-1" source="AbnB5PojkTlQwKqKO-Hi-24" target="EDEIHEQZ1esRYnYp5eT2-181">
          <mxGeometry relative="1" as="geometry" />
        </mxCell>
        <mxCell id="AbnB5PojkTlQwKqKO-Hi-24" value="&lt;i&gt;T&lt;/i&gt;" style="ellipse;whiteSpace=wrap;html=1;fillColor=#f5f5f5;strokeColor=#666666;fontColor=#333333;" vertex="1" parent="EDEIHEQZ1esRYnYp5eT2-1">
          <mxGeometry x="160.06000000000006" y="1320" width="80" height="40" as="geometry" />
        </mxCell>
        <mxCell id="AbnB5PojkTlQwKqKO-Hi-32" style="edgeStyle=orthogonalEdgeStyle;rounded=1;orthogonalLoop=1;jettySize=auto;html=1;entryX=0;entryY=0.5;entryDx=0;entryDy=0;dashed=1;dashPattern=1 2;startArrow=none;startFill=0;" edge="1" parent="EDEIHEQZ1esRYnYp5eT2-1" source="AbnB5PojkTlQwKqKO-Hi-29" target="EDEIHEQZ1esRYnYp5eT2-231">
          <mxGeometry relative="1" as="geometry" />
        </mxCell>
        <mxCell id="AbnB5PojkTlQwKqKO-Hi-29" value="&lt;i&gt;T&lt;/i&gt;" style="ellipse;whiteSpace=wrap;html=1;fillColor=#f5f5f5;strokeColor=#666666;fontColor=#333333;" vertex="1" parent="EDEIHEQZ1esRYnYp5eT2-1">
          <mxGeometry x="160.06000000000006" y="1560" width="80" height="40" as="geometry" />
        </mxCell>
        <mxCell id="AbnB5PojkTlQwKqKO-Hi-33" style="edgeStyle=orthogonalEdgeStyle;rounded=1;orthogonalLoop=1;jettySize=auto;html=1;entryX=0;entryY=0.5;entryDx=0;entryDy=0;dashed=1;dashPattern=1 2;startArrow=none;startFill=0;" edge="1" parent="EDEIHEQZ1esRYnYp5eT2-1" source="AbnB5PojkTlQwKqKO-Hi-30" target="EDEIHEQZ1esRYnYp5eT2-238">
          <mxGeometry relative="1" as="geometry" />
        </mxCell>
        <mxCell id="AbnB5PojkTlQwKqKO-Hi-30" value="" style="ellipse;whiteSpace=wrap;html=1;dashed=1;" vertex="1" parent="EDEIHEQZ1esRYnYp5eT2-1">
          <mxGeometry x="160.06" y="1640" width="80" height="40" as="geometry" />
        </mxCell>
        <mxCell id="AbnB5PojkTlQwKqKO-Hi-34" style="edgeStyle=orthogonalEdgeStyle;rounded=1;orthogonalLoop=1;jettySize=auto;html=1;entryX=0;entryY=0.5;entryDx=0;entryDy=0;dashed=1;dashPattern=1 2;startArrow=none;startFill=0;" edge="1" parent="EDEIHEQZ1esRYnYp5eT2-1" source="AbnB5PojkTlQwKqKO-Hi-31" target="EDEIHEQZ1esRYnYp5eT2-233">
          <mxGeometry relative="1" as="geometry" />
        </mxCell>
        <mxCell id="AbnB5PojkTlQwKqKO-Hi-31" value="" style="ellipse;whiteSpace=wrap;html=1;dashed=1;" vertex="1" parent="EDEIHEQZ1esRYnYp5eT2-1">
          <mxGeometry x="160.06" y="1720" width="80" height="40" as="geometry" />
        </mxCell>
        <mxCell id="3VFXUrivfJ-qyx54W1Nv-1" style="edgeStyle=orthogonalEdgeStyle;rounded=1;orthogonalLoop=1;jettySize=auto;html=1;entryX=0.5;entryY=1;entryDx=0;entryDy=0;startArrow=none;startFill=0;opacity=50;" edge="1" parent="EDEIHEQZ1esRYnYp5eT2-1" source="3VFXUrivfJ-qyx54W1Nv-0" target="EDEIHEQZ1esRYnYp5eT2-201">
          <mxGeometry relative="1" as="geometry" />
        </mxCell>
        <mxCell id="3VFXUrivfJ-qyx54W1Nv-0" value="&lt;i&gt;p&lt;/i&gt;" style="rounded=1;whiteSpace=wrap;html=1;fillColor=#d5e8d4;strokeColor=#82b366;opacity=50;textOpacity=50;" vertex="1" parent="EDEIHEQZ1esRYnYp5eT2-1">
          <mxGeometry x="719.94" y="200" width="80" height="40" as="geometry" />
        </mxCell>
        <mxCell id="3VFXUrivfJ-qyx54W1Nv-8" style="edgeStyle=orthogonalEdgeStyle;rounded=1;orthogonalLoop=1;jettySize=auto;html=1;startArrow=none;startFill=0;entryX=0.5;entryY=1;entryDx=0;entryDy=0;opacity=50;textOpacity=50;" edge="1" parent="EDEIHEQZ1esRYnYp5eT2-1" source="3VFXUrivfJ-qyx54W1Nv-2" target="EDEIHEQZ1esRYnYp5eT2-210">
          <mxGeometry relative="1" as="geometry">
            <mxPoint x="839.9999999999998" y="510" as="targetPoint" />
          </mxGeometry>
        </mxCell>
        <mxCell id="3VFXUrivfJ-qyx54W1Nv-2" value="head" style="rounded=1;whiteSpace=wrap;html=1;fillColor=#fff2cc;strokeColor=#d6b656;opacity=50;textOpacity=50;" vertex="1" parent="EDEIHEQZ1esRYnYp5eT2-1">
          <mxGeometry x="739.94" y="520" width="40" height="40" as="geometry" />
        </mxCell>
        <mxCell id="3VFXUrivfJ-qyx54W1Nv-4" style="edgeStyle=orthogonalEdgeStyle;rounded=1;orthogonalLoop=1;jettySize=auto;html=1;entryX=0.5;entryY=1;entryDx=0;entryDy=0;opacity=50;textOpacity=50;" edge="1" parent="EDEIHEQZ1esRYnYp5eT2-1" source="3VFXUrivfJ-qyx54W1Nv-5" target="3VFXUrivfJ-qyx54W1Nv-6">
          <mxGeometry relative="1" as="geometry" />
        </mxCell>
        <mxCell id="3VFXUrivfJ-qyx54W1Nv-7" style="edgeStyle=orthogonalEdgeStyle;rounded=1;orthogonalLoop=1;jettySize=auto;html=1;entryX=0.5;entryY=1;entryDx=0;entryDy=0;startArrow=none;startFill=0;opacity=50;textOpacity=50;" edge="1" parent="EDEIHEQZ1esRYnYp5eT2-1" source="3VFXUrivfJ-qyx54W1Nv-5" target="EDEIHEQZ1esRYnYp5eT2-218">
          <mxGeometry relative="1" as="geometry">
            <Array as="points">
              <mxPoint x="840" y="810" />
              <mxPoint x="840" y="810" />
            </Array>
          </mxGeometry>
        </mxCell>
        <mxCell id="3VFXUrivfJ-qyx54W1Nv-5" value="" style="rounded=0;whiteSpace=wrap;html=1;fillColor=#dae8fc;strokeColor=#6c8ebf;opacity=50;textOpacity=50;" vertex="1" parent="EDEIHEQZ1esRYnYp5eT2-1">
          <mxGeometry x="830" y="930" width="20" height="20" as="geometry" />
        </mxCell>
        <mxCell id="3VFXUrivfJ-qyx54W1Nv-6" value="&lt;i&gt;P&lt;/i&gt;" style="rounded=1;whiteSpace=wrap;html=1;opacity=50;textOpacity=50;" vertex="1" parent="EDEIHEQZ1esRYnYp5eT2-1">
          <mxGeometry x="880" y="840" width="80" height="40" as="geometry" />
        </mxCell>
        <mxCell id="3VFXUrivfJ-qyx54W1Nv-10" value="" style="ellipse;whiteSpace=wrap;html=1;aspect=fixed;rounded=1;shadow=0;glass=0;sketch=0;align=left;fillColor=#dae8fc;strokeColor=#6c8ebf;opacity=50;textOpacity=50;" vertex="1" parent="EDEIHEQZ1esRYnYp5eT2-1">
          <mxGeometry x="829.9399999999997" y="1340" width="20" height="20" as="geometry" />
        </mxCell>
        <mxCell id="3VFXUrivfJ-qyx54W1Nv-11" style="edgeStyle=orthogonalEdgeStyle;rounded=0;orthogonalLoop=1;jettySize=auto;html=1;entryX=0.5;entryY=1;entryDx=0;entryDy=0;exitX=0.5;exitY=0;exitDx=0;exitDy=0;startArrow=none;startFill=0;opacity=50;textOpacity=50;" edge="1" parent="EDEIHEQZ1esRYnYp5eT2-1" source="3VFXUrivfJ-qyx54W1Nv-10" target="3VFXUrivfJ-qyx54W1Nv-13">
          <mxGeometry relative="1" as="geometry">
            <mxPoint x="839.9399999999999" y="1340" as="sourcePoint" />
          </mxGeometry>
        </mxCell>
        <mxCell id="3VFXUrivfJ-qyx54W1Nv-12" style="edgeStyle=orthogonalEdgeStyle;rounded=1;orthogonalLoop=1;jettySize=auto;html=1;entryX=0.5;entryY=1;entryDx=0;entryDy=0;exitX=1;exitY=0.5;exitDx=0;exitDy=0;opacity=50;textOpacity=50;" edge="1" parent="EDEIHEQZ1esRYnYp5eT2-1" source="3VFXUrivfJ-qyx54W1Nv-10" target="3VFXUrivfJ-qyx54W1Nv-14">
          <mxGeometry relative="1" as="geometry">
            <mxPoint x="859.9399999999999" y="1360" as="sourcePoint" />
          </mxGeometry>
        </mxCell>
        <mxCell id="3VFXUrivfJ-qyx54W1Nv-13" value="&lt;i&gt;S&lt;/i&gt;" style="rounded=1;whiteSpace=wrap;html=1;" vertex="1" parent="EDEIHEQZ1esRYnYp5eT2-1">
          <mxGeometry x="799.94" y="1170" width="80" height="40" as="geometry" />
        </mxCell>
        <mxCell id="3VFXUrivfJ-qyx54W1Nv-14" value="&lt;i&gt;F&lt;/i&gt;" style="rounded=1;whiteSpace=wrap;html=1;opacity=50;textOpacity=50;" vertex="1" parent="EDEIHEQZ1esRYnYp5eT2-1">
          <mxGeometry x="879.94" y="1250" width="80" height="40" as="geometry" />
        </mxCell>
        <mxCell id="3VFXUrivfJ-qyx54W1Nv-15" style="edgeStyle=orthogonalEdgeStyle;rounded=1;orthogonalLoop=1;jettySize=auto;html=1;entryX=0.5;entryY=1;entryDx=0;entryDy=0;startArrow=none;startFill=0;" edge="1" parent="EDEIHEQZ1esRYnYp5eT2-1" source="3VFXUrivfJ-qyx54W1Nv-16" target="3VFXUrivfJ-qyx54W1Nv-13">
          <mxGeometry relative="1" as="geometry">
            <Array as="points">
              <mxPoint x="840" y="1380" />
              <mxPoint x="760" y="1380" />
              <mxPoint x="760" y="1230" />
              <mxPoint x="840" y="1230" />
            </Array>
          </mxGeometry>
        </mxCell>
        <mxCell id="3VFXUrivfJ-qyx54W1Nv-16" value="" style="ellipse;whiteSpace=wrap;html=1;aspect=fixed;rounded=1;shadow=0;glass=0;sketch=0;align=left;fillColor=#fff2cc;strokeColor=#d6b656;" vertex="1" parent="EDEIHEQZ1esRYnYp5eT2-1">
          <mxGeometry x="829.9399999999999" y="1420" width="20" height="20" as="geometry" />
        </mxCell>
        <mxCell id="3VFXUrivfJ-qyx54W1Nv-17" style="edgeStyle=orthogonalEdgeStyle;rounded=0;orthogonalLoop=1;jettySize=auto;html=1;strokeWidth=1;endArrow=classic;endFill=1;startArrow=none;startFill=0;entryX=0.5;entryY=1;entryDx=0;entryDy=0;exitX=0.5;exitY=0;exitDx=0;exitDy=0;opacity=50;" edge="1" parent="EDEIHEQZ1esRYnYp5eT2-1" source="3VFXUrivfJ-qyx54W1Nv-21" target="3VFXUrivfJ-qyx54W1Nv-18">
          <mxGeometry relative="1" as="geometry">
            <mxPoint x="759.9399999999999" y="1600" as="targetPoint" />
            <mxPoint x="759.9399999999999" y="1640" as="sourcePoint" />
          </mxGeometry>
        </mxCell>
        <mxCell id="3VFXUrivfJ-qyx54W1Nv-18" value="&lt;i&gt;B&lt;/i&gt;" style="rounded=1;whiteSpace=wrap;html=1;" vertex="1" parent="EDEIHEQZ1esRYnYp5eT2-1">
          <mxGeometry x="719.94" y="1560" width="80" height="40" as="geometry" />
        </mxCell>
        <mxCell id="3VFXUrivfJ-qyx54W1Nv-19" style="edgeStyle=orthogonalEdgeStyle;rounded=1;orthogonalLoop=1;jettySize=auto;html=1;startArrow=none;startFill=0;entryX=0.5;entryY=1;entryDx=0;entryDy=0;" edge="1" parent="EDEIHEQZ1esRYnYp5eT2-1" source="3VFXUrivfJ-qyx54W1Nv-20" target="3VFXUrivfJ-qyx54W1Nv-18">
          <mxGeometry relative="1" as="geometry">
            <mxPoint x="759.9399999999999" y="1680" as="targetPoint" />
            <Array as="points">
              <mxPoint x="760" y="1700" />
              <mxPoint x="680" y="1700" />
              <mxPoint x="680" y="1620" />
              <mxPoint x="760" y="1620" />
            </Array>
          </mxGeometry>
        </mxCell>
        <mxCell id="3VFXUrivfJ-qyx54W1Nv-20" value="" style="ellipse;whiteSpace=wrap;html=1;aspect=fixed;rounded=1;shadow=0;glass=0;sketch=0;align=left;fillColor=#fff2cc;strokeColor=#d6b656;" vertex="1" parent="EDEIHEQZ1esRYnYp5eT2-1">
          <mxGeometry x="749.9399999999999" y="1730" width="20" height="20" as="geometry" />
        </mxCell>
        <mxCell id="3VFXUrivfJ-qyx54W1Nv-21" value="" style="ellipse;whiteSpace=wrap;html=1;aspect=fixed;rounded=1;shadow=0;glass=0;sketch=0;align=left;fillColor=#fff2cc;strokeColor=#d6b656;opacity=50;" vertex="1" parent="EDEIHEQZ1esRYnYp5eT2-1">
          <mxGeometry x="749.9399999999999" y="1650" width="20" height="20" as="geometry" />
        </mxCell>
        <mxCell id="NqQ-UQCtRoXBwpzDMsKL-2" style="edgeStyle=orthogonalEdgeStyle;rounded=0;orthogonalLoop=1;jettySize=auto;html=1;startArrow=none;startFill=0;entryX=0.5;entryY=1;entryDx=0;entryDy=0;" edge="1" parent="EDEIHEQZ1esRYnYp5eT2-1" source="NqQ-UQCtRoXBwpzDMsKL-3" target="NqQ-UQCtRoXBwpzDMsKL-5">
          <mxGeometry relative="1" as="geometry">
            <mxPoint x="1279.9399999999998" y="1680" as="targetPoint" />
          </mxGeometry>
        </mxCell>
        <mxCell id="NqQ-UQCtRoXBwpzDMsKL-3" value="" style="ellipse;whiteSpace=wrap;html=1;aspect=fixed;rounded=1;shadow=0;glass=0;sketch=0;align=left;fillColor=#fff2cc;strokeColor=#d6b656;" vertex="1" parent="EDEIHEQZ1esRYnYp5eT2-1">
          <mxGeometry x="1269.9399999999998" y="1730" width="20" height="20" as="geometry" />
        </mxCell>
        <mxCell id="NqQ-UQCtRoXBwpzDMsKL-4" value="" style="html=1;shadow=0;dashed=0;align=center;verticalAlign=middle;shape=mxgraph.arrows2.arrow;dy=0.6;dx=40;notch=0;fillColor=#eeeeee;strokeColor=none;" vertex="1" parent="EDEIHEQZ1esRYnYp5eT2-1">
          <mxGeometry x="1379.8799999999999" y="1705" width="80" height="70" as="geometry" />
        </mxCell>
        <mxCell id="NqQ-UQCtRoXBwpzDMsKL-5" value="" style="ellipse;whiteSpace=wrap;html=1;aspect=fixed;rounded=1;shadow=0;glass=0;sketch=0;align=left;fillColor=#fff2cc;strokeColor=#d6b656;" vertex="1" parent="EDEIHEQZ1esRYnYp5eT2-1">
          <mxGeometry x="1269.9399999999998" y="1650" width="20" height="20" as="geometry" />
        </mxCell>
        <mxCell id="NqQ-UQCtRoXBwpzDMsKL-8" style="edgeStyle=orthogonalEdgeStyle;rounded=1;orthogonalLoop=1;jettySize=auto;html=1;entryX=0;entryY=0.5;entryDx=0;entryDy=0;dashed=1;dashPattern=1 2;startArrow=none;startFill=0;" edge="1" parent="EDEIHEQZ1esRYnYp5eT2-1" source="NqQ-UQCtRoXBwpzDMsKL-9" target="NqQ-UQCtRoXBwpzDMsKL-5">
          <mxGeometry relative="1" as="geometry" />
        </mxCell>
        <mxCell id="NqQ-UQCtRoXBwpzDMsKL-9" value="" style="ellipse;whiteSpace=wrap;html=1;dashed=1;" vertex="1" parent="EDEIHEQZ1esRYnYp5eT2-1">
          <mxGeometry x="1040" y="1640" width="80" height="40" as="geometry" />
        </mxCell>
        <mxCell id="NqQ-UQCtRoXBwpzDMsKL-10" style="edgeStyle=orthogonalEdgeStyle;rounded=1;orthogonalLoop=1;jettySize=auto;html=1;entryX=0;entryY=0.5;entryDx=0;entryDy=0;dashed=1;dashPattern=1 2;startArrow=none;startFill=0;" edge="1" parent="EDEIHEQZ1esRYnYp5eT2-1" source="NqQ-UQCtRoXBwpzDMsKL-11" target="NqQ-UQCtRoXBwpzDMsKL-3">
          <mxGeometry relative="1" as="geometry" />
        </mxCell>
        <mxCell id="NqQ-UQCtRoXBwpzDMsKL-11" value="" style="ellipse;whiteSpace=wrap;html=1;dashed=1;" vertex="1" parent="EDEIHEQZ1esRYnYp5eT2-1">
          <mxGeometry x="1040" y="1720" width="80" height="40" as="geometry" />
        </mxCell>
        <mxCell id="NqQ-UQCtRoXBwpzDMsKL-20" style="edgeStyle=orthogonalEdgeStyle;rounded=1;orthogonalLoop=1;jettySize=auto;html=1;entryX=0.5;entryY=1;entryDx=0;entryDy=0;startArrow=none;startFill=0;" edge="1" parent="EDEIHEQZ1esRYnYp5eT2-1" source="NqQ-UQCtRoXBwpzDMsKL-17" target="NqQ-UQCtRoXBwpzDMsKL-3">
          <mxGeometry relative="1" as="geometry" />
        </mxCell>
        <mxCell id="NqQ-UQCtRoXBwpzDMsKL-17" value="&lt;i&gt;U&lt;/i&gt;" style="rounded=1;whiteSpace=wrap;html=1;" vertex="1" parent="EDEIHEQZ1esRYnYp5eT2-1">
          <mxGeometry x="1239.94" y="1800" width="80" height="40" as="geometry" />
        </mxCell>
        <mxCell id="NqQ-UQCtRoXBwpzDMsKL-21" style="edgeStyle=orthogonalEdgeStyle;rounded=1;orthogonalLoop=1;jettySize=auto;html=1;entryX=0;entryY=0.5;entryDx=0;entryDy=0;dashed=1;dashPattern=1 2;startArrow=none;startFill=0;" edge="1" parent="EDEIHEQZ1esRYnYp5eT2-1" source="NqQ-UQCtRoXBwpzDMsKL-19" target="NqQ-UQCtRoXBwpzDMsKL-17">
          <mxGeometry relative="1" as="geometry" />
        </mxCell>
        <mxCell id="NqQ-UQCtRoXBwpzDMsKL-19" value="&lt;i&gt;T&lt;/i&gt;" style="ellipse;whiteSpace=wrap;html=1;fillColor=#f5f5f5;strokeColor=#666666;fontColor=#333333;" vertex="1" parent="EDEIHEQZ1esRYnYp5eT2-1">
          <mxGeometry x="1040" y="1800" width="80" height="40" as="geometry" />
        </mxCell>
        <mxCell id="NqQ-UQCtRoXBwpzDMsKL-24" style="edgeStyle=orthogonalEdgeStyle;rounded=0;orthogonalLoop=1;jettySize=auto;html=1;startArrow=none;startFill=0;entryX=0.5;entryY=1;entryDx=0;entryDy=0;opacity=50;" edge="1" parent="EDEIHEQZ1esRYnYp5eT2-1" source="NqQ-UQCtRoXBwpzDMsKL-25" target="NqQ-UQCtRoXBwpzDMsKL-26">
          <mxGeometry relative="1" as="geometry">
            <mxPoint x="1639.9999999999998" y="1680" as="targetPoint" />
          </mxGeometry>
        </mxCell>
        <mxCell id="NqQ-UQCtRoXBwpzDMsKL-25" value="" style="ellipse;whiteSpace=wrap;html=1;aspect=fixed;rounded=1;shadow=0;glass=0;sketch=0;align=left;fillColor=#fff2cc;strokeColor=#d6b656;opacity=50;" vertex="1" parent="EDEIHEQZ1esRYnYp5eT2-1">
          <mxGeometry x="1629.9999999999998" y="1730" width="20" height="20" as="geometry" />
        </mxCell>
        <mxCell id="NqQ-UQCtRoXBwpzDMsKL-26" value="" style="ellipse;whiteSpace=wrap;html=1;aspect=fixed;rounded=1;shadow=0;glass=0;sketch=0;align=left;fillColor=#fff2cc;strokeColor=#d6b656;" vertex="1" parent="EDEIHEQZ1esRYnYp5eT2-1">
          <mxGeometry x="1629.9999999999998" y="1650" width="20" height="20" as="geometry" />
        </mxCell>
        <mxCell id="NqQ-UQCtRoXBwpzDMsKL-27" style="edgeStyle=orthogonalEdgeStyle;rounded=1;orthogonalLoop=1;jettySize=auto;html=1;entryX=0.5;entryY=1;entryDx=0;entryDy=0;startArrow=none;startFill=0;" edge="1" parent="EDEIHEQZ1esRYnYp5eT2-1" source="NqQ-UQCtRoXBwpzDMsKL-28" target="NqQ-UQCtRoXBwpzDMsKL-26">
          <mxGeometry relative="1" as="geometry">
            <Array as="points">
              <mxPoint x="1640" y="1780" />
              <mxPoint x="1560" y="1780" />
              <mxPoint x="1560" y="1700" />
              <mxPoint x="1640" y="1700" />
            </Array>
          </mxGeometry>
        </mxCell>
        <mxCell id="NqQ-UQCtRoXBwpzDMsKL-28" value="&lt;i&gt;U&lt;/i&gt;" style="rounded=1;whiteSpace=wrap;html=1;" vertex="1" parent="EDEIHEQZ1esRYnYp5eT2-1">
          <mxGeometry x="1600" y="1800" width="80" height="40" as="geometry" />
        </mxCell>
      </root>
    </mxGraphModel>
  </diagram>
  <diagram name="Tuple Elimination" id="VNrjPNBzPZbw00XSloFC">
    <mxGraphModel dx="949" dy="549" grid="1" gridSize="10" guides="1" tooltips="1" connect="1" arrows="1" fold="1" page="1" pageScale="1" pageWidth="2339" pageHeight="3300" math="0" shadow="0">
      <root>
        <mxCell id="_Tuip0jEUwCS70qPGEYa-0" />
        <mxCell id="_Tuip0jEUwCS70qPGEYa-1" parent="_Tuip0jEUwCS70qPGEYa-0" />
        <mxCell id="SNK9-QcOYiPm-XlS8Fqf-9" style="edgeStyle=orthogonalEdgeStyle;rounded=1;orthogonalLoop=1;jettySize=auto;html=1;dashed=1;dashPattern=1 2;startArrow=none;startFill=0;" edge="1" parent="_Tuip0jEUwCS70qPGEYa-1" source="SNK9-QcOYiPm-XlS8Fqf-4">
          <mxGeometry relative="1" as="geometry">
            <mxPoint x="160" y="220" as="targetPoint" />
            <Array as="points">
              <mxPoint x="140" y="240" />
              <mxPoint x="140" y="220" />
            </Array>
          </mxGeometry>
        </mxCell>
        <mxCell id="SNK9-QcOYiPm-XlS8Fqf-4" value="" style="ellipse;whiteSpace=wrap;html=1;dashed=1;" vertex="1" parent="_Tuip0jEUwCS70qPGEYa-1">
          <mxGeometry x="20" y="220" width="80" height="40" as="geometry" />
        </mxCell>
        <mxCell id="SNK9-QcOYiPm-XlS8Fqf-8" style="edgeStyle=orthogonalEdgeStyle;rounded=1;orthogonalLoop=1;jettySize=auto;html=1;dashed=1;dashPattern=1 2;startArrow=none;startFill=0;" edge="1" parent="_Tuip0jEUwCS70qPGEYa-1" source="SNK9-QcOYiPm-XlS8Fqf-3">
          <mxGeometry relative="1" as="geometry">
            <mxPoint x="160" y="220" as="targetPoint" />
          </mxGeometry>
        </mxCell>
        <mxCell id="SNK9-QcOYiPm-XlS8Fqf-3" value="" style="ellipse;whiteSpace=wrap;html=1;dashed=1;" vertex="1" parent="_Tuip0jEUwCS70qPGEYa-1">
          <mxGeometry x="30" y="210" width="80" height="40" as="geometry" />
        </mxCell>
        <mxCell id="_Tuip0jEUwCS70qPGEYa-2" style="edgeStyle=orthogonalEdgeStyle;rounded=0;orthogonalLoop=1;jettySize=auto;html=1;exitX=0.5;exitY=0;exitDx=0;exitDy=0;strokeWidth=1;endArrow=classic;endFill=1;startArrow=none;startFill=0;" edge="1" parent="_Tuip0jEUwCS70qPGEYa-1" source="_Tuip0jEUwCS70qPGEYa-3">
          <mxGeometry relative="1" as="geometry">
            <mxPoint x="400" y="160" as="targetPoint" />
          </mxGeometry>
        </mxCell>
        <mxCell id="_Tuip0jEUwCS70qPGEYa-3" value="tuple_of(n)" style="rounded=1;whiteSpace=wrap;html=1;fillColor=#d5e8d4;strokeColor=#82b366;" vertex="1" parent="_Tuip0jEUwCS70qPGEYa-1">
          <mxGeometry x="360.00000000000006" y="200" width="80" height="40" as="geometry" />
        </mxCell>
        <mxCell id="_Tuip0jEUwCS70qPGEYa-4" value="&lt;i&gt;I&lt;/i&gt;" style="rounded=1;whiteSpace=wrap;html=1;" vertex="1" parent="_Tuip0jEUwCS70qPGEYa-1">
          <mxGeometry x="360.00000000000006" y="120" width="80" height="40" as="geometry" />
        </mxCell>
        <mxCell id="_Tuip0jEUwCS70qPGEYa-18" value="" style="html=1;shadow=0;dashed=0;align=center;verticalAlign=middle;shape=mxgraph.arrows2.arrow;dy=0.6;dx=40;notch=0;fillColor=#eeeeee;strokeColor=none;" vertex="1" parent="_Tuip0jEUwCS70qPGEYa-1">
          <mxGeometry x="499.94" y="265" width="80" height="70" as="geometry" />
        </mxCell>
        <mxCell id="SNK9-QcOYiPm-XlS8Fqf-10" style="edgeStyle=orthogonalEdgeStyle;rounded=1;orthogonalLoop=1;jettySize=auto;html=1;entryX=0;entryY=0.5;entryDx=0;entryDy=0;dashed=1;dashPattern=1 2;startArrow=none;startFill=0;" edge="1" parent="_Tuip0jEUwCS70qPGEYa-1" source="_Tuip0jEUwCS70qPGEYa-78" target="_Tuip0jEUwCS70qPGEYa-93">
          <mxGeometry relative="1" as="geometry" />
        </mxCell>
        <mxCell id="_Tuip0jEUwCS70qPGEYa-78" value="" style="ellipse;whiteSpace=wrap;html=1;dashed=1;" vertex="1" parent="_Tuip0jEUwCS70qPGEYa-1">
          <mxGeometry x="160.06" y="280" width="80" height="40" as="geometry" />
        </mxCell>
        <mxCell id="SNK9-QcOYiPm-XlS8Fqf-1" style="edgeStyle=orthogonalEdgeStyle;rounded=1;orthogonalLoop=1;jettySize=auto;html=1;entryX=0.5;entryY=1;entryDx=0;entryDy=0;startArrow=none;startFill=0;" edge="1" parent="_Tuip0jEUwCS70qPGEYa-1" source="_Tuip0jEUwCS70qPGEYa-93" target="_Tuip0jEUwCS70qPGEYa-3">
          <mxGeometry relative="1" as="geometry" />
        </mxCell>
        <mxCell id="_Tuip0jEUwCS70qPGEYa-93" value="column(k)" style="rounded=1;whiteSpace=wrap;html=1;fillColor=#d5e8d4;strokeColor=#82b366;" vertex="1" parent="_Tuip0jEUwCS70qPGEYa-1">
          <mxGeometry x="360.00000000000006" y="280" width="80" height="40" as="geometry" />
        </mxCell>
        <mxCell id="SNK9-QcOYiPm-XlS8Fqf-5" style="edgeStyle=orthogonalEdgeStyle;rounded=1;orthogonalLoop=1;jettySize=auto;html=1;entryX=0;entryY=0.5;entryDx=0;entryDy=0;startArrow=none;startFill=0;dashed=1;dashPattern=1 2;" edge="1" parent="_Tuip0jEUwCS70qPGEYa-1" source="nZoCVik1eAOpL7e34Y7w-0" target="_Tuip0jEUwCS70qPGEYa-4">
          <mxGeometry relative="1" as="geometry" />
        </mxCell>
        <mxCell id="nZoCVik1eAOpL7e34Y7w-0" value="" style="ellipse;whiteSpace=wrap;html=1;dashed=1;" vertex="1" parent="_Tuip0jEUwCS70qPGEYa-1">
          <mxGeometry x="160.06" y="120" width="80" height="40" as="geometry" />
        </mxCell>
        <mxCell id="SNK9-QcOYiPm-XlS8Fqf-6" style="edgeStyle=orthogonalEdgeStyle;rounded=1;orthogonalLoop=1;jettySize=auto;html=1;entryX=0;entryY=0.5;entryDx=0;entryDy=0;dashed=1;dashPattern=1 2;startArrow=none;startFill=0;" edge="1" parent="_Tuip0jEUwCS70qPGEYa-1" source="SNK9-QcOYiPm-XlS8Fqf-0" target="_Tuip0jEUwCS70qPGEYa-3">
          <mxGeometry relative="1" as="geometry" />
        </mxCell>
        <mxCell id="SNK9-QcOYiPm-XlS8Fqf-0" value="TupleOf" style="ellipse;whiteSpace=wrap;html=1;fillColor=#b0e3e6;strokeColor=#0e8088;" vertex="1" parent="_Tuip0jEUwCS70qPGEYa-1">
          <mxGeometry x="160.06000000000012" y="200" width="80" height="40" as="geometry" />
        </mxCell>
        <mxCell id="SNK9-QcOYiPm-XlS8Fqf-7" style="edgeStyle=orthogonalEdgeStyle;rounded=1;orthogonalLoop=1;jettySize=auto;html=1;exitX=1;exitY=0.5;exitDx=0;exitDy=0;entryX=0;entryY=0.5;entryDx=0;entryDy=0;dashed=1;dashPattern=1 2;startArrow=none;startFill=0;" edge="1" parent="_Tuip0jEUwCS70qPGEYa-1" source="SNK9-QcOYiPm-XlS8Fqf-2" target="SNK9-QcOYiPm-XlS8Fqf-0">
          <mxGeometry relative="1" as="geometry" />
        </mxCell>
        <mxCell id="SNK9-QcOYiPm-XlS8Fqf-2" value="" style="ellipse;whiteSpace=wrap;html=1;dashed=1;" vertex="1" parent="_Tuip0jEUwCS70qPGEYa-1">
          <mxGeometry x="40" y="200" width="80" height="40" as="geometry" />
        </mxCell>
        <mxCell id="KvY5hP0Oi5dXXCAZVitz-1" style="edgeStyle=orthogonalEdgeStyle;rounded=1;orthogonalLoop=1;jettySize=auto;html=1;entryX=0.5;entryY=1;entryDx=0;entryDy=0;startArrow=none;startFill=0;" edge="1" parent="_Tuip0jEUwCS70qPGEYa-1" source="KvY5hP0Oi5dXXCAZVitz-0" target="_Tuip0jEUwCS70qPGEYa-93">
          <mxGeometry relative="1" as="geometry" />
        </mxCell>
        <mxCell id="KvY5hP0Oi5dXXCAZVitz-0" value="&lt;i&gt;U&lt;/i&gt;" style="rounded=1;whiteSpace=wrap;html=1;" vertex="1" parent="_Tuip0jEUwCS70qPGEYa-1">
          <mxGeometry x="360.00000000000006" y="360" width="80" height="40" as="geometry" />
        </mxCell>
        <mxCell id="xeccp-88SFlEACpIKxVd-1" style="edgeStyle=orthogonalEdgeStyle;rounded=1;orthogonalLoop=1;jettySize=auto;html=1;entryX=0;entryY=0.5;entryDx=0;entryDy=0;startArrow=none;startFill=0;dashed=1;dashPattern=1 2;" edge="1" parent="_Tuip0jEUwCS70qPGEYa-1" source="xeccp-88SFlEACpIKxVd-0" target="KvY5hP0Oi5dXXCAZVitz-0">
          <mxGeometry relative="1" as="geometry" />
        </mxCell>
        <mxCell id="xeccp-88SFlEACpIKxVd-0" value="&lt;i&gt;T&lt;/i&gt;" style="ellipse;whiteSpace=wrap;html=1;fillColor=#f5f5f5;strokeColor=#666666;fontColor=#333333;" vertex="1" parent="_Tuip0jEUwCS70qPGEYa-1">
          <mxGeometry x="160.06000000000006" y="360" width="80" height="40" as="geometry" />
        </mxCell>
        <mxCell id="F_zofSZMKaG5kQR8mWlw-0" style="edgeStyle=orthogonalEdgeStyle;rounded=0;orthogonalLoop=1;jettySize=auto;html=1;exitX=0.5;exitY=0;exitDx=0;exitDy=0;strokeWidth=1;endArrow=classic;endFill=1;startArrow=none;startFill=0;opacity=50;textOpacity=50;" edge="1" parent="_Tuip0jEUwCS70qPGEYa-1" source="F_zofSZMKaG5kQR8mWlw-1">
          <mxGeometry relative="1" as="geometry">
            <mxPoint x="759.9999999999998" y="160" as="targetPoint" />
          </mxGeometry>
        </mxCell>
        <mxCell id="F_zofSZMKaG5kQR8mWlw-1" value="tuple_of(n)" style="rounded=1;whiteSpace=wrap;html=1;fillColor=#d5e8d4;strokeColor=#82b366;opacity=50;textOpacity=50;" vertex="1" parent="_Tuip0jEUwCS70qPGEYa-1">
          <mxGeometry x="720" y="200" width="80" height="40" as="geometry" />
        </mxCell>
        <mxCell id="F_zofSZMKaG5kQR8mWlw-2" value="&lt;i&gt;I&lt;/i&gt;" style="rounded=1;whiteSpace=wrap;html=1;" vertex="1" parent="_Tuip0jEUwCS70qPGEYa-1">
          <mxGeometry x="720" y="120" width="80" height="40" as="geometry" />
        </mxCell>
        <mxCell id="F_zofSZMKaG5kQR8mWlw-3" style="edgeStyle=orthogonalEdgeStyle;rounded=1;orthogonalLoop=1;jettySize=auto;html=1;entryX=0.5;entryY=1;entryDx=0;entryDy=0;startArrow=none;startFill=0;opacity=50;textOpacity=50;" edge="1" parent="_Tuip0jEUwCS70qPGEYa-1" source="F_zofSZMKaG5kQR8mWlw-4" target="F_zofSZMKaG5kQR8mWlw-1">
          <mxGeometry relative="1" as="geometry" />
        </mxCell>
        <mxCell id="F_zofSZMKaG5kQR8mWlw-4" value="column(k)" style="rounded=1;whiteSpace=wrap;html=1;fillColor=#d5e8d4;strokeColor=#82b366;opacity=50;textOpacity=50;" vertex="1" parent="_Tuip0jEUwCS70qPGEYa-1">
          <mxGeometry x="720" y="280" width="80" height="40" as="geometry" />
        </mxCell>
        <mxCell id="F_zofSZMKaG5kQR8mWlw-5" style="edgeStyle=orthogonalEdgeStyle;rounded=1;orthogonalLoop=1;jettySize=auto;html=1;entryX=0.5;entryY=1;entryDx=0;entryDy=0;startArrow=none;startFill=0;" edge="1" parent="_Tuip0jEUwCS70qPGEYa-1" source="F_zofSZMKaG5kQR8mWlw-6" target="F_zofSZMKaG5kQR8mWlw-2">
          <mxGeometry relative="1" as="geometry">
            <Array as="points">
              <mxPoint x="760" y="340" />
              <mxPoint x="680" y="340" />
              <mxPoint x="680" y="180" />
              <mxPoint x="760" y="180" />
            </Array>
          </mxGeometry>
        </mxCell>
        <mxCell id="F_zofSZMKaG5kQR8mWlw-6" value="&lt;i&gt;U&lt;/i&gt;" style="rounded=1;whiteSpace=wrap;html=1;" vertex="1" parent="_Tuip0jEUwCS70qPGEYa-1">
          <mxGeometry x="720" y="360" width="80" height="40" as="geometry" />
        </mxCell>
      </root>
    </mxGraphModel>
  </diagram>
  <diagram name="Tightening" id="I7zAf1lICBI6OPjWapyS">
    <mxGraphModel dx="949" dy="549" grid="1" gridSize="10" guides="1" tooltips="1" connect="1" arrows="1" fold="1" page="1" pageScale="1" pageWidth="2339" pageHeight="3300" math="0" shadow="0">
      <root>
        <mxCell id="FKooBP50Hkaf7h43tlIz-0" />
        <mxCell id="FKooBP50Hkaf7h43tlIz-1" parent="FKooBP50Hkaf7h43tlIz-0" />
        <mxCell id="FKooBP50Hkaf7h43tlIz-160" style="edgeStyle=orthogonalEdgeStyle;rounded=1;orthogonalLoop=1;jettySize=auto;html=1;entryX=0.5;entryY=1;entryDx=0;entryDy=0;startArrow=none;startFill=0;" edge="1" parent="FKooBP50Hkaf7h43tlIz-1" source="FKooBP50Hkaf7h43tlIz-134" target="FKooBP50Hkaf7h43tlIz-23">
          <mxGeometry relative="1" as="geometry">
            <Array as="points">
              <mxPoint x="500" y="140" />
              <mxPoint x="400" y="140" />
            </Array>
          </mxGeometry>
        </mxCell>
        <mxCell id="FKooBP50Hkaf7h43tlIz-134" value="" style="rounded=1;whiteSpace=wrap;html=1;fillColor=#fff2cc;strokeColor=#d6b656;" vertex="1" parent="FKooBP50Hkaf7h43tlIz-1">
          <mxGeometry x="479.94" y="260" width="40" height="40" as="geometry" />
        </mxCell>
        <mxCell id="FKooBP50Hkaf7h43tlIz-144" style="edgeStyle=orthogonalEdgeStyle;rounded=1;orthogonalLoop=1;jettySize=auto;html=1;entryX=0;entryY=0.5;entryDx=0;entryDy=0;dashed=1;dashPattern=1 2;startArrow=none;startFill=0;" edge="1" parent="FKooBP50Hkaf7h43tlIz-1" source="FKooBP50Hkaf7h43tlIz-139" target="FKooBP50Hkaf7h43tlIz-134">
          <mxGeometry relative="1" as="geometry" />
        </mxCell>
        <mxCell id="FKooBP50Hkaf7h43tlIz-143" style="edgeStyle=orthogonalEdgeStyle;rounded=1;orthogonalLoop=1;jettySize=auto;html=1;entryX=0;entryY=0.5;entryDx=0;entryDy=0;dashed=1;dashPattern=1 2;startArrow=none;startFill=0;" edge="1" parent="FKooBP50Hkaf7h43tlIz-1" source="FKooBP50Hkaf7h43tlIz-140" target="FKooBP50Hkaf7h43tlIz-133">
          <mxGeometry relative="1" as="geometry" />
        </mxCell>
        <mxCell id="FKooBP50Hkaf7h43tlIz-159" style="edgeStyle=orthogonalEdgeStyle;rounded=1;orthogonalLoop=1;jettySize=auto;html=1;entryX=0.5;entryY=1;entryDx=0;entryDy=0;startArrow=none;startFill=0;" edge="1" parent="FKooBP50Hkaf7h43tlIz-1" source="FKooBP50Hkaf7h43tlIz-133" target="FKooBP50Hkaf7h43tlIz-23">
          <mxGeometry relative="1" as="geometry">
            <Array as="points">
              <mxPoint x="490" y="140" />
              <mxPoint x="400" y="140" />
            </Array>
          </mxGeometry>
        </mxCell>
        <mxCell id="FKooBP50Hkaf7h43tlIz-133" value="" style="rounded=1;whiteSpace=wrap;html=1;fillColor=#fff2cc;strokeColor=#d6b656;" vertex="1" parent="FKooBP50Hkaf7h43tlIz-1">
          <mxGeometry x="469.94" y="250" width="40" height="40" as="geometry" />
        </mxCell>
        <mxCell id="FKooBP50Hkaf7h43tlIz-125" value="1" style="rounded=1;whiteSpace=wrap;html=1;fillColor=#fff2cc;strokeColor=#d6b656;" vertex="1" parent="FKooBP50Hkaf7h43tlIz-1">
          <mxGeometry x="459.94" y="240" width="40" height="40" as="geometry" />
        </mxCell>
        <mxCell id="FKooBP50Hkaf7h43tlIz-138" style="edgeStyle=orthogonalEdgeStyle;rounded=1;orthogonalLoop=1;jettySize=auto;html=1;entryX=0;entryY=0.5;entryDx=0;entryDy=0;dashed=1;dashPattern=1 2;startArrow=none;startFill=0;" edge="1" parent="FKooBP50Hkaf7h43tlIz-1" source="FKooBP50Hkaf7h43tlIz-136" target="FKooBP50Hkaf7h43tlIz-46">
          <mxGeometry relative="1" as="geometry">
            <Array as="points">
              <mxPoint x="140" y="200" />
              <mxPoint x="140" y="180" />
            </Array>
          </mxGeometry>
        </mxCell>
        <mxCell id="FKooBP50Hkaf7h43tlIz-136" value="" style="ellipse;whiteSpace=wrap;html=1;dashed=1;" vertex="1" parent="FKooBP50Hkaf7h43tlIz-1">
          <mxGeometry x="20" y="180" width="80" height="40" as="geometry" />
        </mxCell>
        <mxCell id="FKooBP50Hkaf7h43tlIz-137" style="edgeStyle=orthogonalEdgeStyle;rounded=1;orthogonalLoop=1;jettySize=auto;html=1;entryX=0;entryY=0.5;entryDx=0;entryDy=0;dashed=1;dashPattern=1 2;startArrow=none;startFill=0;" edge="1" parent="FKooBP50Hkaf7h43tlIz-1" source="FKooBP50Hkaf7h43tlIz-135" target="FKooBP50Hkaf7h43tlIz-46">
          <mxGeometry relative="1" as="geometry" />
        </mxCell>
        <mxCell id="FKooBP50Hkaf7h43tlIz-135" value="" style="ellipse;whiteSpace=wrap;html=1;dashed=1;" vertex="1" parent="FKooBP50Hkaf7h43tlIz-1">
          <mxGeometry x="30" y="170" width="80" height="40" as="geometry" />
        </mxCell>
        <mxCell id="FKooBP50Hkaf7h43tlIz-131" style="edgeStyle=orthogonalEdgeStyle;rounded=1;orthogonalLoop=1;jettySize=auto;html=1;entryX=0;entryY=0.5;entryDx=0;entryDy=0;dashed=1;dashPattern=1 2;startArrow=none;startFill=0;" edge="1" parent="FKooBP50Hkaf7h43tlIz-1" source="FKooBP50Hkaf7h43tlIz-130" target="FKooBP50Hkaf7h43tlIz-58">
          <mxGeometry relative="1" as="geometry">
            <Array as="points">
              <mxPoint x="140" y="120" />
              <mxPoint x="140" y="100" />
            </Array>
          </mxGeometry>
        </mxCell>
        <mxCell id="FKooBP50Hkaf7h43tlIz-130" value="" style="ellipse;whiteSpace=wrap;html=1;fillColor=#f5f5f5;strokeColor=#666666;fontColor=#333333;" vertex="1" parent="FKooBP50Hkaf7h43tlIz-1">
          <mxGeometry x="20.000000000000057" y="100" width="80" height="40" as="geometry" />
        </mxCell>
        <mxCell id="FKooBP50Hkaf7h43tlIz-132" style="edgeStyle=orthogonalEdgeStyle;rounded=1;orthogonalLoop=1;jettySize=auto;html=1;entryX=0;entryY=0.5;entryDx=0;entryDy=0;dashed=1;dashPattern=1 2;startArrow=none;startFill=0;" edge="1" parent="FKooBP50Hkaf7h43tlIz-1" source="FKooBP50Hkaf7h43tlIz-128" target="FKooBP50Hkaf7h43tlIz-58">
          <mxGeometry relative="1" as="geometry" />
        </mxCell>
        <mxCell id="FKooBP50Hkaf7h43tlIz-128" value="" style="ellipse;whiteSpace=wrap;html=1;fillColor=#f5f5f5;strokeColor=#666666;fontColor=#333333;" vertex="1" parent="FKooBP50Hkaf7h43tlIz-1">
          <mxGeometry x="30.000000000000057" y="90" width="80" height="40" as="geometry" />
        </mxCell>
        <mxCell id="FKooBP50Hkaf7h43tlIz-6" style="edgeStyle=orthogonalEdgeStyle;rounded=0;orthogonalLoop=1;jettySize=auto;html=1;entryX=0.5;entryY=1;entryDx=0;entryDy=0;startArrow=none;startFill=0;" edge="1" parent="FKooBP50Hkaf7h43tlIz-1" source="FKooBP50Hkaf7h43tlIz-8">
          <mxGeometry relative="1" as="geometry">
            <mxPoint x="400" y="200" as="targetPoint" />
          </mxGeometry>
        </mxCell>
        <mxCell id="FKooBP50Hkaf7h43tlIz-7" style="edgeStyle=orthogonalEdgeStyle;rounded=1;orthogonalLoop=1;jettySize=auto;html=1;entryX=0.5;entryY=1;entryDx=0;entryDy=0;" edge="1" parent="FKooBP50Hkaf7h43tlIz-1" source="FKooBP50Hkaf7h43tlIz-8">
          <mxGeometry relative="1" as="geometry">
            <mxPoint x="480" y="280" as="targetPoint" />
          </mxGeometry>
        </mxCell>
        <mxCell id="FKooBP50Hkaf7h43tlIz-145" style="edgeStyle=orthogonalEdgeStyle;rounded=1;orthogonalLoop=1;jettySize=auto;html=1;entryX=0.5;entryY=1;entryDx=0;entryDy=0;startArrow=none;startFill=0;" edge="1" parent="FKooBP50Hkaf7h43tlIz-1" source="FKooBP50Hkaf7h43tlIz-8" target="FKooBP50Hkaf7h43tlIz-133">
          <mxGeometry relative="1" as="geometry" />
        </mxCell>
        <mxCell id="FKooBP50Hkaf7h43tlIz-146" style="edgeStyle=orthogonalEdgeStyle;rounded=1;orthogonalLoop=1;jettySize=auto;html=1;entryX=0.5;entryY=1;entryDx=0;entryDy=0;startArrow=none;startFill=0;" edge="1" parent="FKooBP50Hkaf7h43tlIz-1" source="FKooBP50Hkaf7h43tlIz-8" target="FKooBP50Hkaf7h43tlIz-134">
          <mxGeometry relative="1" as="geometry" />
        </mxCell>
        <mxCell id="FKooBP50Hkaf7h43tlIz-8" value="" style="rounded=0;whiteSpace=wrap;html=1;fillColor=#dae8fc;strokeColor=#6c8ebf;" vertex="1" parent="FKooBP50Hkaf7h43tlIz-1">
          <mxGeometry x="390.00000000000006" y="330" width="20" height="20" as="geometry" />
        </mxCell>
        <mxCell id="FKooBP50Hkaf7h43tlIz-23" value="&lt;i&gt;B&lt;/i&gt;" style="rounded=1;whiteSpace=wrap;html=1;" vertex="1" parent="FKooBP50Hkaf7h43tlIz-1">
          <mxGeometry x="360.00000000000006" y="80" width="80" height="40" as="geometry" />
        </mxCell>
        <mxCell id="FKooBP50Hkaf7h43tlIz-32" value="" style="html=1;shadow=0;dashed=0;align=center;verticalAlign=middle;shape=mxgraph.arrows2.arrow;dy=0.6;dx=40;notch=0;fillColor=#eeeeee;strokeColor=none;" vertex="1" parent="FKooBP50Hkaf7h43tlIz-1">
          <mxGeometry x="579.94" y="305" width="80" height="70" as="geometry" />
        </mxCell>
        <mxCell id="FKooBP50Hkaf7h43tlIz-36" style="edgeStyle=orthogonalEdgeStyle;rounded=0;orthogonalLoop=1;jettySize=auto;html=1;startArrow=none;startFill=0;entryX=0.5;entryY=1;entryDx=0;entryDy=0;" edge="1" parent="FKooBP50Hkaf7h43tlIz-1" source="FKooBP50Hkaf7h43tlIz-37" target="FKooBP50Hkaf7h43tlIz-178">
          <mxGeometry relative="1" as="geometry">
            <mxPoint x="400" y="700" as="targetPoint" />
          </mxGeometry>
        </mxCell>
        <mxCell id="FKooBP50Hkaf7h43tlIz-37" value="" style="ellipse;whiteSpace=wrap;html=1;aspect=fixed;rounded=1;shadow=0;glass=0;sketch=0;align=left;fillColor=#fff2cc;strokeColor=#d6b656;" vertex="1" parent="FKooBP50Hkaf7h43tlIz-1">
          <mxGeometry x="389.99999999999994" y="730" width="20" height="20" as="geometry" />
        </mxCell>
        <mxCell id="FKooBP50Hkaf7h43tlIz-38" value="" style="html=1;shadow=0;dashed=0;align=center;verticalAlign=middle;shape=mxgraph.arrows2.arrow;dy=0.6;dx=40;notch=0;fillColor=#eeeeee;strokeColor=none;" vertex="1" parent="FKooBP50Hkaf7h43tlIz-1">
          <mxGeometry x="579.94" y="785" width="80" height="70" as="geometry" />
        </mxCell>
        <mxCell id="FKooBP50Hkaf7h43tlIz-45" style="edgeStyle=orthogonalEdgeStyle;rounded=1;orthogonalLoop=1;jettySize=auto;html=1;entryX=0;entryY=0.5;entryDx=0;entryDy=0;startArrow=none;startFill=0;dashed=1;dashPattern=1 2;" edge="1" parent="FKooBP50Hkaf7h43tlIz-1" source="FKooBP50Hkaf7h43tlIz-46" target="FKooBP50Hkaf7h43tlIz-124">
          <mxGeometry relative="1" as="geometry">
            <mxPoint x="360" y="180" as="targetPoint" />
          </mxGeometry>
        </mxCell>
        <mxCell id="FKooBP50Hkaf7h43tlIz-46" value="&lt;i&gt;F&lt;/i&gt;" style="ellipse;whiteSpace=wrap;html=1;fillColor=#b0e3e6;strokeColor=#0e8088;" vertex="1" parent="FKooBP50Hkaf7h43tlIz-1">
          <mxGeometry x="160.06000000000012" y="160" width="80" height="40" as="geometry" />
        </mxCell>
        <mxCell id="FKooBP50Hkaf7h43tlIz-47" style="edgeStyle=orthogonalEdgeStyle;rounded=1;orthogonalLoop=1;jettySize=auto;html=1;exitX=1;exitY=0.5;exitDx=0;exitDy=0;entryX=0;entryY=0.5;entryDx=0;entryDy=0;dashed=1;dashPattern=1 2;startArrow=none;startFill=0;" edge="1" parent="FKooBP50Hkaf7h43tlIz-1" source="FKooBP50Hkaf7h43tlIz-48" target="FKooBP50Hkaf7h43tlIz-46">
          <mxGeometry relative="1" as="geometry" />
        </mxCell>
        <mxCell id="FKooBP50Hkaf7h43tlIz-48" value="" style="ellipse;whiteSpace=wrap;html=1;dashed=1;" vertex="1" parent="FKooBP50Hkaf7h43tlIz-1">
          <mxGeometry x="40" y="160" width="80" height="40" as="geometry" />
        </mxCell>
        <mxCell id="FKooBP50Hkaf7h43tlIz-57" style="edgeStyle=orthogonalEdgeStyle;rounded=1;orthogonalLoop=1;jettySize=auto;html=1;entryX=0;entryY=0.5;entryDx=0;entryDy=0;dashed=1;dashPattern=1 2;startArrow=none;startFill=0;" edge="1" parent="FKooBP50Hkaf7h43tlIz-1" source="FKooBP50Hkaf7h43tlIz-58" target="FKooBP50Hkaf7h43tlIz-23">
          <mxGeometry relative="1" as="geometry" />
        </mxCell>
        <mxCell id="FKooBP50Hkaf7h43tlIz-58" value="&lt;i&gt;F&lt;/i&gt;" style="ellipse;whiteSpace=wrap;html=1;fillColor=#b0e3e6;strokeColor=#0e8088;" vertex="1" parent="FKooBP50Hkaf7h43tlIz-1">
          <mxGeometry x="160.06000000000012" y="80" width="80" height="40" as="geometry" />
        </mxCell>
        <mxCell id="FKooBP50Hkaf7h43tlIz-59" style="edgeStyle=orthogonalEdgeStyle;rounded=1;orthogonalLoop=1;jettySize=auto;html=1;exitX=1;exitY=0.5;exitDx=0;exitDy=0;entryX=0;entryY=0.5;entryDx=0;entryDy=0;dashed=1;dashPattern=1 2;startArrow=none;startFill=0;" edge="1" parent="FKooBP50Hkaf7h43tlIz-1" source="FKooBP50Hkaf7h43tlIz-60" target="FKooBP50Hkaf7h43tlIz-58">
          <mxGeometry relative="1" as="geometry" />
        </mxCell>
        <mxCell id="FKooBP50Hkaf7h43tlIz-60" value="&lt;i&gt;T&lt;sub&gt;1&lt;/sub&gt;&lt;/i&gt;" style="ellipse;whiteSpace=wrap;html=1;fillColor=#f5f5f5;strokeColor=#666666;fontColor=#333333;" vertex="1" parent="FKooBP50Hkaf7h43tlIz-1">
          <mxGeometry x="40.00000000000006" y="80" width="80" height="40" as="geometry" />
        </mxCell>
        <mxCell id="FKooBP50Hkaf7h43tlIz-75" style="edgeStyle=orthogonalEdgeStyle;rounded=1;orthogonalLoop=1;jettySize=auto;html=1;exitX=1;exitY=0.5;exitDx=0;exitDy=0;entryX=0;entryY=0.5;entryDx=0;entryDy=0;dashed=1;dashPattern=1 2;startArrow=none;startFill=0;" edge="1" parent="FKooBP50Hkaf7h43tlIz-1" source="FKooBP50Hkaf7h43tlIz-76" target="FKooBP50Hkaf7h43tlIz-37">
          <mxGeometry relative="1" as="geometry" />
        </mxCell>
        <mxCell id="FKooBP50Hkaf7h43tlIz-76" value="" style="ellipse;whiteSpace=wrap;html=1;dashed=1;" vertex="1" parent="FKooBP50Hkaf7h43tlIz-1">
          <mxGeometry x="160.06" y="720" width="80" height="40" as="geometry" />
        </mxCell>
        <mxCell id="FKooBP50Hkaf7h43tlIz-185" style="edgeStyle=orthogonalEdgeStyle;rounded=1;orthogonalLoop=1;jettySize=auto;html=1;entryX=0;entryY=0.5;entryDx=0;entryDy=0;startArrow=none;startFill=0;dashed=1;dashPattern=1 2;" edge="1" parent="FKooBP50Hkaf7h43tlIz-1" source="FKooBP50Hkaf7h43tlIz-80" target="FKooBP50Hkaf7h43tlIz-178">
          <mxGeometry relative="1" as="geometry" />
        </mxCell>
        <mxCell id="FKooBP50Hkaf7h43tlIz-80" value="&lt;i&gt;T&lt;sub&gt;1&lt;/sub&gt;&lt;/i&gt;" style="ellipse;whiteSpace=wrap;html=1;fillColor=#f5f5f5;strokeColor=#666666;fontColor=#333333;" vertex="1" parent="FKooBP50Hkaf7h43tlIz-1">
          <mxGeometry x="160.06000000000006" y="640" width="80" height="40" as="geometry" />
        </mxCell>
        <mxCell id="FKooBP50Hkaf7h43tlIz-126" style="edgeStyle=orthogonalEdgeStyle;rounded=1;orthogonalLoop=1;jettySize=auto;html=1;entryX=0.5;entryY=1;entryDx=0;entryDy=0;startArrow=none;startFill=0;" edge="1" parent="FKooBP50Hkaf7h43tlIz-1" source="FKooBP50Hkaf7h43tlIz-124" target="FKooBP50Hkaf7h43tlIz-23">
          <mxGeometry relative="1" as="geometry" />
        </mxCell>
        <mxCell id="FKooBP50Hkaf7h43tlIz-124" value="head" style="rounded=1;whiteSpace=wrap;html=1;fillColor=#fff2cc;strokeColor=#d6b656;" vertex="1" parent="FKooBP50Hkaf7h43tlIz-1">
          <mxGeometry x="380" y="160" width="40" height="40" as="geometry" />
        </mxCell>
        <mxCell id="FKooBP50Hkaf7h43tlIz-127" style="edgeStyle=orthogonalEdgeStyle;rounded=1;orthogonalLoop=1;jettySize=auto;html=1;startArrow=none;startFill=0;" edge="1" parent="FKooBP50Hkaf7h43tlIz-1" source="FKooBP50Hkaf7h43tlIz-125">
          <mxGeometry relative="1" as="geometry">
            <mxPoint x="400" y="120" as="targetPoint" />
            <Array as="points">
              <mxPoint x="480" y="140" />
              <mxPoint x="400" y="140" />
            </Array>
          </mxGeometry>
        </mxCell>
        <mxCell id="FKooBP50Hkaf7h43tlIz-139" value="" style="ellipse;whiteSpace=wrap;html=1;fillColor=#f5f5f5;strokeColor=#666666;fontColor=#333333;" vertex="1" parent="FKooBP50Hkaf7h43tlIz-1">
          <mxGeometry x="140.06000000000006" y="260" width="80" height="40" as="geometry" />
        </mxCell>
        <mxCell id="FKooBP50Hkaf7h43tlIz-140" value="" style="ellipse;whiteSpace=wrap;html=1;fillColor=#f5f5f5;strokeColor=#666666;fontColor=#333333;" vertex="1" parent="FKooBP50Hkaf7h43tlIz-1">
          <mxGeometry x="150.06000000000006" y="250" width="80" height="40" as="geometry" />
        </mxCell>
        <mxCell id="FKooBP50Hkaf7h43tlIz-142" style="edgeStyle=orthogonalEdgeStyle;rounded=1;orthogonalLoop=1;jettySize=auto;html=1;entryX=0;entryY=0.5;entryDx=0;entryDy=0;dashed=1;dashPattern=1 2;startArrow=none;startFill=0;" edge="1" parent="FKooBP50Hkaf7h43tlIz-1" source="FKooBP50Hkaf7h43tlIz-141" target="FKooBP50Hkaf7h43tlIz-125">
          <mxGeometry relative="1" as="geometry" />
        </mxCell>
        <mxCell id="FKooBP50Hkaf7h43tlIz-141" value="&lt;i&gt;T&lt;sub&gt;1&lt;/sub&gt;&lt;/i&gt;" style="ellipse;whiteSpace=wrap;html=1;fillColor=#f5f5f5;strokeColor=#666666;fontColor=#333333;" vertex="1" parent="FKooBP50Hkaf7h43tlIz-1">
          <mxGeometry x="160.06000000000006" y="240" width="80" height="40" as="geometry" />
        </mxCell>
        <mxCell id="FKooBP50Hkaf7h43tlIz-147" style="edgeStyle=orthogonalEdgeStyle;rounded=1;orthogonalLoop=1;jettySize=auto;html=1;entryX=0;entryY=0.5;entryDx=0;entryDy=0;dashed=1;dashPattern=1 2;startArrow=none;startFill=0;" edge="1" parent="FKooBP50Hkaf7h43tlIz-1" source="FKooBP50Hkaf7h43tlIz-148" target="FKooBP50Hkaf7h43tlIz-151">
          <mxGeometry relative="1" as="geometry">
            <Array as="points">
              <mxPoint x="140" y="360" />
              <mxPoint x="140" y="340" />
            </Array>
          </mxGeometry>
        </mxCell>
        <mxCell id="FKooBP50Hkaf7h43tlIz-148" value="" style="ellipse;whiteSpace=wrap;html=1;fillColor=#f5f5f5;strokeColor=#666666;fontColor=#333333;" vertex="1" parent="FKooBP50Hkaf7h43tlIz-1">
          <mxGeometry x="20.000000000000057" y="340" width="80" height="40" as="geometry" />
        </mxCell>
        <mxCell id="FKooBP50Hkaf7h43tlIz-149" style="edgeStyle=orthogonalEdgeStyle;rounded=1;orthogonalLoop=1;jettySize=auto;html=1;entryX=0;entryY=0.5;entryDx=0;entryDy=0;dashed=1;dashPattern=1 2;startArrow=none;startFill=0;" edge="1" parent="FKooBP50Hkaf7h43tlIz-1" source="FKooBP50Hkaf7h43tlIz-150" target="FKooBP50Hkaf7h43tlIz-151">
          <mxGeometry relative="1" as="geometry" />
        </mxCell>
        <mxCell id="FKooBP50Hkaf7h43tlIz-150" value="" style="ellipse;whiteSpace=wrap;html=1;fillColor=#f5f5f5;strokeColor=#666666;fontColor=#333333;" vertex="1" parent="FKooBP50Hkaf7h43tlIz-1">
          <mxGeometry x="30.000000000000057" y="330" width="80" height="40" as="geometry" />
        </mxCell>
        <mxCell id="FKooBP50Hkaf7h43tlIz-154" style="edgeStyle=orthogonalEdgeStyle;rounded=1;orthogonalLoop=1;jettySize=auto;html=1;entryX=0;entryY=0.5;entryDx=0;entryDy=0;startArrow=none;startFill=0;dashed=1;dashPattern=1 2;" edge="1" parent="FKooBP50Hkaf7h43tlIz-1" source="FKooBP50Hkaf7h43tlIz-151" target="FKooBP50Hkaf7h43tlIz-8">
          <mxGeometry relative="1" as="geometry" />
        </mxCell>
        <mxCell id="FKooBP50Hkaf7h43tlIz-151" value="&lt;i&gt;F&lt;/i&gt;" style="ellipse;whiteSpace=wrap;html=1;fillColor=#b0e3e6;strokeColor=#0e8088;" vertex="1" parent="FKooBP50Hkaf7h43tlIz-1">
          <mxGeometry x="160.06000000000012" y="320" width="80" height="40" as="geometry" />
        </mxCell>
        <mxCell id="FKooBP50Hkaf7h43tlIz-152" style="edgeStyle=orthogonalEdgeStyle;rounded=1;orthogonalLoop=1;jettySize=auto;html=1;exitX=1;exitY=0.5;exitDx=0;exitDy=0;entryX=0;entryY=0.5;entryDx=0;entryDy=0;dashed=1;dashPattern=1 2;startArrow=none;startFill=0;" edge="1" parent="FKooBP50Hkaf7h43tlIz-1" source="FKooBP50Hkaf7h43tlIz-153" target="FKooBP50Hkaf7h43tlIz-151">
          <mxGeometry relative="1" as="geometry" />
        </mxCell>
        <mxCell id="FKooBP50Hkaf7h43tlIz-153" value="&lt;i&gt;T&lt;sub&gt;1&lt;/sub&gt;&lt;/i&gt;" style="ellipse;whiteSpace=wrap;html=1;fillColor=#f5f5f5;strokeColor=#666666;fontColor=#333333;" vertex="1" parent="FKooBP50Hkaf7h43tlIz-1">
          <mxGeometry x="40.00000000000006" y="320" width="80" height="40" as="geometry" />
        </mxCell>
        <mxCell id="FKooBP50Hkaf7h43tlIz-158" style="edgeStyle=orthogonalEdgeStyle;rounded=1;orthogonalLoop=1;jettySize=auto;html=1;entryX=0.5;entryY=1;entryDx=0;entryDy=0;startArrow=none;startFill=0;" edge="1" parent="FKooBP50Hkaf7h43tlIz-1" source="FKooBP50Hkaf7h43tlIz-155" target="FKooBP50Hkaf7h43tlIz-8">
          <mxGeometry relative="1" as="geometry" />
        </mxCell>
        <mxCell id="FKooBP50Hkaf7h43tlIz-155" value="&lt;i&gt;U&lt;/i&gt;" style="rounded=1;whiteSpace=wrap;html=1;" vertex="1" parent="FKooBP50Hkaf7h43tlIz-1">
          <mxGeometry x="360.00000000000006" y="400" width="80" height="40" as="geometry" />
        </mxCell>
        <mxCell id="FKooBP50Hkaf7h43tlIz-157" style="edgeStyle=orthogonalEdgeStyle;rounded=1;orthogonalLoop=1;jettySize=auto;html=1;entryX=0;entryY=0.5;entryDx=0;entryDy=0;dashed=1;dashPattern=1 2;startArrow=none;startFill=0;" edge="1" parent="FKooBP50Hkaf7h43tlIz-1" source="FKooBP50Hkaf7h43tlIz-156" target="FKooBP50Hkaf7h43tlIz-155">
          <mxGeometry relative="1" as="geometry" />
        </mxCell>
        <mxCell id="FKooBP50Hkaf7h43tlIz-156" value="&lt;i&gt;T&lt;/i&gt;" style="ellipse;whiteSpace=wrap;html=1;fillColor=#f5f5f5;strokeColor=#666666;fontColor=#333333;" vertex="1" parent="FKooBP50Hkaf7h43tlIz-1">
          <mxGeometry x="160.06000000000006" y="400" width="80" height="40" as="geometry" />
        </mxCell>
        <mxCell id="FKooBP50Hkaf7h43tlIz-161" style="edgeStyle=orthogonalEdgeStyle;rounded=1;orthogonalLoop=1;jettySize=auto;html=1;entryX=0.5;entryY=1;entryDx=0;entryDy=0;startArrow=none;startFill=0;opacity=50;textOpacity=50;" edge="1" parent="FKooBP50Hkaf7h43tlIz-1" source="FKooBP50Hkaf7h43tlIz-162" target="FKooBP50Hkaf7h43tlIz-171">
          <mxGeometry relative="1" as="geometry">
            <Array as="points">
              <mxPoint x="939.94" y="140" />
              <mxPoint x="839.94" y="140" />
            </Array>
          </mxGeometry>
        </mxCell>
        <mxCell id="FKooBP50Hkaf7h43tlIz-162" value="" style="rounded=1;whiteSpace=wrap;html=1;fillColor=#fff2cc;strokeColor=#d6b656;opacity=50;textOpacity=50;" vertex="1" parent="FKooBP50Hkaf7h43tlIz-1">
          <mxGeometry x="919.88" y="260" width="40" height="40" as="geometry" />
        </mxCell>
        <mxCell id="FKooBP50Hkaf7h43tlIz-163" style="edgeStyle=orthogonalEdgeStyle;rounded=1;orthogonalLoop=1;jettySize=auto;html=1;entryX=0.5;entryY=1;entryDx=0;entryDy=0;startArrow=none;startFill=0;opacity=50;textOpacity=50;" edge="1" parent="FKooBP50Hkaf7h43tlIz-1" source="FKooBP50Hkaf7h43tlIz-164" target="FKooBP50Hkaf7h43tlIz-171">
          <mxGeometry relative="1" as="geometry">
            <Array as="points">
              <mxPoint x="929.94" y="140" />
              <mxPoint x="839.94" y="140" />
            </Array>
          </mxGeometry>
        </mxCell>
        <mxCell id="FKooBP50Hkaf7h43tlIz-164" value="" style="rounded=1;whiteSpace=wrap;html=1;fillColor=#fff2cc;strokeColor=#d6b656;opacity=50;textOpacity=50;" vertex="1" parent="FKooBP50Hkaf7h43tlIz-1">
          <mxGeometry x="909.88" y="250" width="40" height="40" as="geometry" />
        </mxCell>
        <mxCell id="FKooBP50Hkaf7h43tlIz-165" value="1" style="rounded=1;whiteSpace=wrap;html=1;fillColor=#fff2cc;strokeColor=#d6b656;opacity=50;textOpacity=50;" vertex="1" parent="FKooBP50Hkaf7h43tlIz-1">
          <mxGeometry x="899.88" y="240" width="40" height="40" as="geometry" />
        </mxCell>
        <mxCell id="FKooBP50Hkaf7h43tlIz-166" style="edgeStyle=orthogonalEdgeStyle;rounded=0;orthogonalLoop=1;jettySize=auto;html=1;entryX=0.5;entryY=1;entryDx=0;entryDy=0;startArrow=none;startFill=0;opacity=50;textOpacity=50;" edge="1" parent="FKooBP50Hkaf7h43tlIz-1" source="FKooBP50Hkaf7h43tlIz-170">
          <mxGeometry relative="1" as="geometry">
            <mxPoint x="839.94" y="200" as="targetPoint" />
          </mxGeometry>
        </mxCell>
        <mxCell id="FKooBP50Hkaf7h43tlIz-167" style="edgeStyle=orthogonalEdgeStyle;rounded=1;orthogonalLoop=1;jettySize=auto;html=1;entryX=0.5;entryY=1;entryDx=0;entryDy=0;opacity=50;textOpacity=50;" edge="1" parent="FKooBP50Hkaf7h43tlIz-1" source="FKooBP50Hkaf7h43tlIz-170">
          <mxGeometry relative="1" as="geometry">
            <mxPoint x="919.94" y="280" as="targetPoint" />
          </mxGeometry>
        </mxCell>
        <mxCell id="FKooBP50Hkaf7h43tlIz-168" style="edgeStyle=orthogonalEdgeStyle;rounded=1;orthogonalLoop=1;jettySize=auto;html=1;entryX=0.5;entryY=1;entryDx=0;entryDy=0;startArrow=none;startFill=0;opacity=50;textOpacity=50;" edge="1" parent="FKooBP50Hkaf7h43tlIz-1" source="FKooBP50Hkaf7h43tlIz-170" target="FKooBP50Hkaf7h43tlIz-164">
          <mxGeometry relative="1" as="geometry" />
        </mxCell>
        <mxCell id="FKooBP50Hkaf7h43tlIz-169" style="edgeStyle=orthogonalEdgeStyle;rounded=1;orthogonalLoop=1;jettySize=auto;html=1;entryX=0.5;entryY=1;entryDx=0;entryDy=0;startArrow=none;startFill=0;opacity=50;textOpacity=50;" edge="1" parent="FKooBP50Hkaf7h43tlIz-1" source="FKooBP50Hkaf7h43tlIz-170" target="FKooBP50Hkaf7h43tlIz-162">
          <mxGeometry relative="1" as="geometry" />
        </mxCell>
        <mxCell id="FKooBP50Hkaf7h43tlIz-170" value="" style="rounded=0;whiteSpace=wrap;html=1;fillColor=#dae8fc;strokeColor=#6c8ebf;opacity=50;textOpacity=50;" vertex="1" parent="FKooBP50Hkaf7h43tlIz-1">
          <mxGeometry x="829.94" y="330" width="20" height="20" as="geometry" />
        </mxCell>
        <mxCell id="FKooBP50Hkaf7h43tlIz-171" value="&lt;i&gt;B&lt;/i&gt;" style="rounded=1;whiteSpace=wrap;html=1;" vertex="1" parent="FKooBP50Hkaf7h43tlIz-1">
          <mxGeometry x="799.94" y="80" width="80" height="40" as="geometry" />
        </mxCell>
        <mxCell id="FKooBP50Hkaf7h43tlIz-172" style="edgeStyle=orthogonalEdgeStyle;rounded=1;orthogonalLoop=1;jettySize=auto;html=1;entryX=0.5;entryY=1;entryDx=0;entryDy=0;startArrow=none;startFill=0;opacity=50;textOpacity=50;" edge="1" parent="FKooBP50Hkaf7h43tlIz-1" source="FKooBP50Hkaf7h43tlIz-173" target="FKooBP50Hkaf7h43tlIz-171">
          <mxGeometry relative="1" as="geometry" />
        </mxCell>
        <mxCell id="FKooBP50Hkaf7h43tlIz-173" value="head" style="rounded=1;whiteSpace=wrap;html=1;fillColor=#fff2cc;strokeColor=#d6b656;opacity=50;textOpacity=50;" vertex="1" parent="FKooBP50Hkaf7h43tlIz-1">
          <mxGeometry x="819.94" y="160" width="40" height="40" as="geometry" />
        </mxCell>
        <mxCell id="FKooBP50Hkaf7h43tlIz-174" style="edgeStyle=orthogonalEdgeStyle;rounded=1;orthogonalLoop=1;jettySize=auto;html=1;startArrow=none;startFill=0;opacity=50;textOpacity=50;" edge="1" parent="FKooBP50Hkaf7h43tlIz-1" source="FKooBP50Hkaf7h43tlIz-165">
          <mxGeometry relative="1" as="geometry">
            <mxPoint x="839.94" y="120" as="targetPoint" />
            <Array as="points">
              <mxPoint x="919.94" y="140" />
              <mxPoint x="839.94" y="140" />
            </Array>
          </mxGeometry>
        </mxCell>
        <mxCell id="FKooBP50Hkaf7h43tlIz-175" style="edgeStyle=orthogonalEdgeStyle;rounded=1;orthogonalLoop=1;jettySize=auto;html=1;entryX=0.5;entryY=1;entryDx=0;entryDy=0;startArrow=none;startFill=0;" edge="1" parent="FKooBP50Hkaf7h43tlIz-1" source="FKooBP50Hkaf7h43tlIz-176" target="FKooBP50Hkaf7h43tlIz-171">
          <mxGeometry relative="1" as="geometry">
            <Array as="points">
              <mxPoint x="840" y="380" />
              <mxPoint x="760" y="380" />
              <mxPoint x="760" y="140" />
              <mxPoint x="840" y="140" />
            </Array>
          </mxGeometry>
        </mxCell>
        <mxCell id="FKooBP50Hkaf7h43tlIz-176" value="&lt;i&gt;U&lt;/i&gt;" style="rounded=1;whiteSpace=wrap;html=1;" vertex="1" parent="FKooBP50Hkaf7h43tlIz-1">
          <mxGeometry x="799.94" y="400" width="80" height="40" as="geometry" />
        </mxCell>
        <mxCell id="FKooBP50Hkaf7h43tlIz-181" style="edgeStyle=orthogonalEdgeStyle;rounded=1;orthogonalLoop=1;jettySize=auto;html=1;entryX=0.5;entryY=1;entryDx=0;entryDy=0;startArrow=none;startFill=0;" edge="1" parent="FKooBP50Hkaf7h43tlIz-1" source="FKooBP50Hkaf7h43tlIz-177" target="FKooBP50Hkaf7h43tlIz-37">
          <mxGeometry relative="1" as="geometry" />
        </mxCell>
        <mxCell id="FKooBP50Hkaf7h43tlIz-182" style="edgeStyle=orthogonalEdgeStyle;rounded=1;orthogonalLoop=1;jettySize=auto;html=1;entryX=0.5;entryY=1;entryDx=0;entryDy=0;startArrow=none;startFill=0;" edge="1" parent="FKooBP50Hkaf7h43tlIz-1" source="FKooBP50Hkaf7h43tlIz-177" target="FKooBP50Hkaf7h43tlIz-178">
          <mxGeometry relative="1" as="geometry">
            <Array as="points">
              <mxPoint x="480" y="820" />
              <mxPoint x="480" y="700" />
              <mxPoint x="400" y="700" />
            </Array>
          </mxGeometry>
        </mxCell>
        <mxCell id="FKooBP50Hkaf7h43tlIz-177" value="" style="ellipse;whiteSpace=wrap;html=1;aspect=fixed;rounded=1;shadow=0;glass=0;sketch=0;align=left;fillColor=#dae8fc;strokeColor=#6c8ebf;" vertex="1" parent="FKooBP50Hkaf7h43tlIz-1">
          <mxGeometry x="389.9999999999997" y="810" width="20" height="20" as="geometry" />
        </mxCell>
        <mxCell id="FKooBP50Hkaf7h43tlIz-178" value="&lt;i&gt;B&lt;/i&gt;" style="rounded=1;whiteSpace=wrap;html=1;" vertex="1" parent="FKooBP50Hkaf7h43tlIz-1">
          <mxGeometry x="360.00000000000006" y="640" width="80" height="40" as="geometry" />
        </mxCell>
        <mxCell id="FKooBP50Hkaf7h43tlIz-180" style="edgeStyle=orthogonalEdgeStyle;rounded=1;orthogonalLoop=1;jettySize=auto;html=1;entryX=0.5;entryY=1;entryDx=0;entryDy=0;startArrow=none;startFill=0;" edge="1" parent="FKooBP50Hkaf7h43tlIz-1" source="FKooBP50Hkaf7h43tlIz-179" target="FKooBP50Hkaf7h43tlIz-177">
          <mxGeometry relative="1" as="geometry" />
        </mxCell>
        <mxCell id="FKooBP50Hkaf7h43tlIz-179" value="&lt;i&gt;U&lt;/i&gt;" style="rounded=1;whiteSpace=wrap;html=1;" vertex="1" parent="FKooBP50Hkaf7h43tlIz-1">
          <mxGeometry x="360.00000000000006" y="880" width="80" height="40" as="geometry" />
        </mxCell>
        <mxCell id="FKooBP50Hkaf7h43tlIz-186" style="edgeStyle=orthogonalEdgeStyle;rounded=1;orthogonalLoop=1;jettySize=auto;html=1;entryX=0;entryY=0.5;entryDx=0;entryDy=0;dashed=1;dashPattern=1 2;startArrow=none;startFill=0;" edge="1" parent="FKooBP50Hkaf7h43tlIz-1" source="FKooBP50Hkaf7h43tlIz-183" target="FKooBP50Hkaf7h43tlIz-177">
          <mxGeometry relative="1" as="geometry" />
        </mxCell>
        <mxCell id="FKooBP50Hkaf7h43tlIz-183" value="&lt;i&gt;T&lt;sub&gt;1&lt;/sub&gt;&lt;/i&gt;" style="ellipse;whiteSpace=wrap;html=1;fillColor=#f5f5f5;strokeColor=#666666;fontColor=#333333;" vertex="1" parent="FKooBP50Hkaf7h43tlIz-1">
          <mxGeometry x="160.06000000000006" y="800" width="80" height="40" as="geometry" />
        </mxCell>
        <mxCell id="FKooBP50Hkaf7h43tlIz-187" style="edgeStyle=orthogonalEdgeStyle;rounded=1;orthogonalLoop=1;jettySize=auto;html=1;entryX=0;entryY=0.5;entryDx=0;entryDy=0;dashed=1;dashPattern=1 2;startArrow=none;startFill=0;" edge="1" parent="FKooBP50Hkaf7h43tlIz-1" source="FKooBP50Hkaf7h43tlIz-184" target="FKooBP50Hkaf7h43tlIz-179">
          <mxGeometry relative="1" as="geometry" />
        </mxCell>
        <mxCell id="FKooBP50Hkaf7h43tlIz-184" value="&lt;i&gt;T&lt;sub&gt;2&lt;/sub&gt;&lt;/i&gt;" style="ellipse;whiteSpace=wrap;html=1;fillColor=#f5f5f5;strokeColor=#666666;fontColor=#333333;" vertex="1" parent="FKooBP50Hkaf7h43tlIz-1">
          <mxGeometry x="160.06000000000006" y="880" width="80" height="40" as="geometry" />
        </mxCell>
        <mxCell id="EHZtsx2TjZjeLn213nwo-0" style="edgeStyle=orthogonalEdgeStyle;rounded=0;orthogonalLoop=1;jettySize=auto;html=1;startArrow=none;startFill=0;entryX=0.5;entryY=1;entryDx=0;entryDy=0;opacity=50;" edge="1" parent="FKooBP50Hkaf7h43tlIz-1" source="EHZtsx2TjZjeLn213nwo-1" target="EHZtsx2TjZjeLn213nwo-5">
          <mxGeometry relative="1" as="geometry">
            <mxPoint x="839.88" y="700" as="targetPoint" />
          </mxGeometry>
        </mxCell>
        <mxCell id="EHZtsx2TjZjeLn213nwo-1" value="" style="ellipse;whiteSpace=wrap;html=1;aspect=fixed;rounded=1;shadow=0;glass=0;sketch=0;align=left;fillColor=#fff2cc;strokeColor=#d6b656;opacity=50;" vertex="1" parent="FKooBP50Hkaf7h43tlIz-1">
          <mxGeometry x="829.8799999999999" y="730" width="20" height="20" as="geometry" />
        </mxCell>
        <mxCell id="EHZtsx2TjZjeLn213nwo-2" style="edgeStyle=orthogonalEdgeStyle;rounded=1;orthogonalLoop=1;jettySize=auto;html=1;entryX=0.5;entryY=1;entryDx=0;entryDy=0;startArrow=none;startFill=0;opacity=50;" edge="1" parent="FKooBP50Hkaf7h43tlIz-1" source="EHZtsx2TjZjeLn213nwo-4" target="EHZtsx2TjZjeLn213nwo-1">
          <mxGeometry relative="1" as="geometry" />
        </mxCell>
        <mxCell id="EHZtsx2TjZjeLn213nwo-3" style="edgeStyle=orthogonalEdgeStyle;rounded=1;orthogonalLoop=1;jettySize=auto;html=1;entryX=0.5;entryY=1;entryDx=0;entryDy=0;startArrow=none;startFill=0;opacity=50;" edge="1" parent="FKooBP50Hkaf7h43tlIz-1" source="EHZtsx2TjZjeLn213nwo-4" target="EHZtsx2TjZjeLn213nwo-5">
          <mxGeometry relative="1" as="geometry">
            <Array as="points">
              <mxPoint x="919.88" y="820" />
              <mxPoint x="919.88" y="700" />
              <mxPoint x="839.88" y="700" />
            </Array>
          </mxGeometry>
        </mxCell>
        <mxCell id="EHZtsx2TjZjeLn213nwo-4" value="" style="ellipse;whiteSpace=wrap;html=1;aspect=fixed;rounded=1;shadow=0;glass=0;sketch=0;align=left;fillColor=#dae8fc;strokeColor=#6c8ebf;opacity=50;" vertex="1" parent="FKooBP50Hkaf7h43tlIz-1">
          <mxGeometry x="829.8799999999997" y="810" width="20" height="20" as="geometry" />
        </mxCell>
        <mxCell id="EHZtsx2TjZjeLn213nwo-5" value="&lt;i&gt;B&lt;/i&gt;" style="rounded=1;whiteSpace=wrap;html=1;" vertex="1" parent="FKooBP50Hkaf7h43tlIz-1">
          <mxGeometry x="799.8800000000001" y="640" width="80" height="40" as="geometry" />
        </mxCell>
        <mxCell id="EHZtsx2TjZjeLn213nwo-6" style="edgeStyle=orthogonalEdgeStyle;rounded=1;orthogonalLoop=1;jettySize=auto;html=1;entryX=0.5;entryY=1;entryDx=0;entryDy=0;startArrow=none;startFill=0;" edge="1" parent="FKooBP50Hkaf7h43tlIz-1" source="EHZtsx2TjZjeLn213nwo-7" target="EHZtsx2TjZjeLn213nwo-5">
          <mxGeometry relative="1" as="geometry">
            <Array as="points">
              <mxPoint x="840" y="860" />
              <mxPoint x="760" y="860" />
              <mxPoint x="760" y="700" />
              <mxPoint x="840" y="700" />
            </Array>
          </mxGeometry>
        </mxCell>
        <mxCell id="EHZtsx2TjZjeLn213nwo-7" value="&lt;i&gt;U&lt;/i&gt;" style="rounded=1;whiteSpace=wrap;html=1;" vertex="1" parent="FKooBP50Hkaf7h43tlIz-1">
          <mxGeometry x="799.8800000000001" y="880" width="80" height="40" as="geometry" />
        </mxCell>
      </root>
    </mxGraphModel>
  </diagram>
  <diagram name="Join Elimination" id="0lMDtyMC_ku1VZPB9Iy_">
    <mxGraphModel dx="949" dy="549" grid="1" gridSize="10" guides="1" tooltips="1" connect="1" arrows="1" fold="1" page="1" pageScale="1" pageWidth="2339" pageHeight="3300" math="0" shadow="0">
      <root>
        <mxCell id="NF4OEass7fatmLV0XUIu-0" />
        <mxCell id="NF4OEass7fatmLV0XUIu-1" parent="NF4OEass7fatmLV0XUIu-0" />
        <mxCell id="NF4OEass7fatmLV0XUIu-96" value="" style="rounded=1;whiteSpace=wrap;html=1;" vertex="1" parent="NF4OEass7fatmLV0XUIu-1">
          <mxGeometry x="460.00000000000006" y="180" width="80" height="40" as="geometry" />
        </mxCell>
        <mxCell id="NF4OEass7fatmLV0XUIu-109" style="edgeStyle=orthogonalEdgeStyle;rounded=1;orthogonalLoop=1;jettySize=auto;html=1;dashed=1;dashPattern=1 2;startArrow=none;startFill=0;entryX=0;entryY=0.5;entryDx=0;entryDy=0;" edge="1" parent="NF4OEass7fatmLV0XUIu-1" source="NF4OEass7fatmLV0XUIu-111" target="NF4OEass7fatmLV0XUIu-96">
          <mxGeometry relative="1" as="geometry">
            <mxPoint x="420" y="210" as="targetPoint" />
          </mxGeometry>
        </mxCell>
        <mxCell id="NF4OEass7fatmLV0XUIu-95" value="" style="rounded=1;whiteSpace=wrap;html=1;" vertex="1" parent="NF4OEass7fatmLV0XUIu-1">
          <mxGeometry x="450.00000000000006" y="170" width="80" height="40" as="geometry" />
        </mxCell>
        <mxCell id="NF4OEass7fatmLV0XUIu-110" style="edgeStyle=orthogonalEdgeStyle;rounded=1;orthogonalLoop=1;jettySize=auto;html=1;dashed=1;dashPattern=1 2;startArrow=none;startFill=0;entryX=0;entryY=0.5;entryDx=0;entryDy=0;" edge="1" parent="NF4OEass7fatmLV0XUIu-1" source="NF4OEass7fatmLV0XUIu-112" target="NF4OEass7fatmLV0XUIu-95">
          <mxGeometry relative="1" as="geometry">
            <mxPoint x="420" y="190" as="targetPoint" />
          </mxGeometry>
        </mxCell>
        <mxCell id="NF4OEass7fatmLV0XUIu-2" style="edgeStyle=orthogonalEdgeStyle;rounded=1;orthogonalLoop=1;jettySize=auto;html=1;entryX=0.5;entryY=1;entryDx=0;entryDy=0;startArrow=none;startFill=0;" edge="1" parent="NF4OEass7fatmLV0XUIu-1" source="NF4OEass7fatmLV0XUIu-3" target="NF4OEass7fatmLV0XUIu-92">
          <mxGeometry relative="1" as="geometry">
            <mxPoint x="399.9999999999998" y="280" as="targetPoint" />
            <Array as="points">
              <mxPoint x="500" y="300" />
              <mxPoint x="400" y="300" />
            </Array>
          </mxGeometry>
        </mxCell>
        <mxCell id="NF4OEass7fatmLV0XUIu-3" value="" style="rounded=1;whiteSpace=wrap;html=1;fillColor=#fff2cc;strokeColor=#d6b656;" vertex="1" parent="NF4OEass7fatmLV0XUIu-1">
          <mxGeometry x="479.94" y="420" width="40" height="40" as="geometry" />
        </mxCell>
        <mxCell id="NF4OEass7fatmLV0XUIu-4" style="edgeStyle=orthogonalEdgeStyle;rounded=1;orthogonalLoop=1;jettySize=auto;html=1;entryX=0;entryY=0.5;entryDx=0;entryDy=0;dashed=1;dashPattern=1 2;startArrow=none;startFill=0;" edge="1" parent="NF4OEass7fatmLV0XUIu-1" source="NF4OEass7fatmLV0XUIu-42" target="NF4OEass7fatmLV0XUIu-3">
          <mxGeometry relative="1" as="geometry" />
        </mxCell>
        <mxCell id="NF4OEass7fatmLV0XUIu-5" style="edgeStyle=orthogonalEdgeStyle;rounded=1;orthogonalLoop=1;jettySize=auto;html=1;entryX=0;entryY=0.5;entryDx=0;entryDy=0;dashed=1;dashPattern=1 2;startArrow=none;startFill=0;" edge="1" parent="NF4OEass7fatmLV0XUIu-1" source="NF4OEass7fatmLV0XUIu-43" target="NF4OEass7fatmLV0XUIu-7">
          <mxGeometry relative="1" as="geometry" />
        </mxCell>
        <mxCell id="NF4OEass7fatmLV0XUIu-6" style="edgeStyle=orthogonalEdgeStyle;rounded=1;orthogonalLoop=1;jettySize=auto;html=1;entryX=0.5;entryY=1;entryDx=0;entryDy=0;startArrow=none;startFill=0;" edge="1" parent="NF4OEass7fatmLV0XUIu-1" source="NF4OEass7fatmLV0XUIu-7" target="NF4OEass7fatmLV0XUIu-92">
          <mxGeometry relative="1" as="geometry">
            <mxPoint x="399.9999999999998" y="280" as="targetPoint" />
            <Array as="points">
              <mxPoint x="490" y="300" />
              <mxPoint x="400" y="300" />
            </Array>
          </mxGeometry>
        </mxCell>
        <mxCell id="NF4OEass7fatmLV0XUIu-7" value="" style="rounded=1;whiteSpace=wrap;html=1;fillColor=#fff2cc;strokeColor=#d6b656;" vertex="1" parent="NF4OEass7fatmLV0XUIu-1">
          <mxGeometry x="469.94" y="410" width="40" height="40" as="geometry" />
        </mxCell>
        <mxCell id="NF4OEass7fatmLV0XUIu-8" value="1" style="rounded=1;whiteSpace=wrap;html=1;fillColor=#fff2cc;strokeColor=#d6b656;" vertex="1" parent="NF4OEass7fatmLV0XUIu-1">
          <mxGeometry x="459.94" y="400" width="40" height="40" as="geometry" />
        </mxCell>
        <mxCell id="NF4OEass7fatmLV0XUIu-9" style="edgeStyle=orthogonalEdgeStyle;rounded=1;orthogonalLoop=1;jettySize=auto;html=1;entryX=0;entryY=0.5;entryDx=0;entryDy=0;dashed=1;dashPattern=1 2;startArrow=none;startFill=0;" edge="1" parent="NF4OEass7fatmLV0XUIu-1" source="NF4OEass7fatmLV0XUIu-10" target="NF4OEass7fatmLV0XUIu-28">
          <mxGeometry relative="1" as="geometry">
            <Array as="points">
              <mxPoint x="140" y="360" />
              <mxPoint x="140" y="340" />
            </Array>
          </mxGeometry>
        </mxCell>
        <mxCell id="NF4OEass7fatmLV0XUIu-10" value="" style="ellipse;whiteSpace=wrap;html=1;dashed=1;" vertex="1" parent="NF4OEass7fatmLV0XUIu-1">
          <mxGeometry x="20" y="340" width="80" height="40" as="geometry" />
        </mxCell>
        <mxCell id="NF4OEass7fatmLV0XUIu-11" style="edgeStyle=orthogonalEdgeStyle;rounded=1;orthogonalLoop=1;jettySize=auto;html=1;entryX=0;entryY=0.5;entryDx=0;entryDy=0;dashed=1;dashPattern=1 2;startArrow=none;startFill=0;" edge="1" parent="NF4OEass7fatmLV0XUIu-1" source="NF4OEass7fatmLV0XUIu-12" target="NF4OEass7fatmLV0XUIu-28">
          <mxGeometry relative="1" as="geometry" />
        </mxCell>
        <mxCell id="NF4OEass7fatmLV0XUIu-12" value="" style="ellipse;whiteSpace=wrap;html=1;dashed=1;" vertex="1" parent="NF4OEass7fatmLV0XUIu-1">
          <mxGeometry x="30" y="330" width="80" height="40" as="geometry" />
        </mxCell>
        <mxCell id="NF4OEass7fatmLV0XUIu-13" style="edgeStyle=orthogonalEdgeStyle;rounded=1;orthogonalLoop=1;jettySize=auto;html=1;entryX=0;entryY=0.5;entryDx=0;entryDy=0;dashed=1;dashPattern=1 2;startArrow=none;startFill=0;" edge="1" parent="NF4OEass7fatmLV0XUIu-1" source="NF4OEass7fatmLV0XUIu-14" target="NF4OEass7fatmLV0XUIu-32">
          <mxGeometry relative="1" as="geometry">
            <Array as="points">
              <mxPoint x="140" y="280" />
              <mxPoint x="140" y="260" />
            </Array>
          </mxGeometry>
        </mxCell>
        <mxCell id="NF4OEass7fatmLV0XUIu-14" value="" style="ellipse;whiteSpace=wrap;html=1;fillColor=#f5f5f5;strokeColor=#666666;fontColor=#333333;" vertex="1" parent="NF4OEass7fatmLV0XUIu-1">
          <mxGeometry x="20.000000000000057" y="260" width="80" height="40" as="geometry" />
        </mxCell>
        <mxCell id="NF4OEass7fatmLV0XUIu-15" style="edgeStyle=orthogonalEdgeStyle;rounded=1;orthogonalLoop=1;jettySize=auto;html=1;entryX=0;entryY=0.5;entryDx=0;entryDy=0;dashed=1;dashPattern=1 2;startArrow=none;startFill=0;" edge="1" parent="NF4OEass7fatmLV0XUIu-1" source="NF4OEass7fatmLV0XUIu-16" target="NF4OEass7fatmLV0XUIu-32">
          <mxGeometry relative="1" as="geometry" />
        </mxCell>
        <mxCell id="NF4OEass7fatmLV0XUIu-16" value="" style="ellipse;whiteSpace=wrap;html=1;fillColor=#f5f5f5;strokeColor=#666666;fontColor=#333333;" vertex="1" parent="NF4OEass7fatmLV0XUIu-1">
          <mxGeometry x="30.000000000000057" y="250" width="80" height="40" as="geometry" />
        </mxCell>
        <mxCell id="NF4OEass7fatmLV0XUIu-23" value="" style="html=1;shadow=0;dashed=0;align=center;verticalAlign=middle;shape=mxgraph.arrows2.arrow;dy=0.6;dx=40;notch=0;fillColor=#eeeeee;strokeColor=none;" vertex="1" parent="NF4OEass7fatmLV0XUIu-1">
          <mxGeometry x="570" y="305" width="80" height="70" as="geometry" />
        </mxCell>
        <mxCell id="NF4OEass7fatmLV0XUIu-27" style="edgeStyle=orthogonalEdgeStyle;rounded=1;orthogonalLoop=1;jettySize=auto;html=1;entryX=0;entryY=0.5;entryDx=0;entryDy=0;startArrow=none;startFill=0;dashed=1;dashPattern=1 2;" edge="1" parent="NF4OEass7fatmLV0XUIu-1" source="NF4OEass7fatmLV0XUIu-28" target="NF4OEass7fatmLV0XUIu-40">
          <mxGeometry relative="1" as="geometry">
            <mxPoint x="360" y="340" as="targetPoint" />
          </mxGeometry>
        </mxCell>
        <mxCell id="NF4OEass7fatmLV0XUIu-28" value="&lt;i&gt;F&lt;/i&gt;" style="ellipse;whiteSpace=wrap;html=1;fillColor=#b0e3e6;strokeColor=#0e8088;" vertex="1" parent="NF4OEass7fatmLV0XUIu-1">
          <mxGeometry x="160.06000000000012" y="320" width="80" height="40" as="geometry" />
        </mxCell>
        <mxCell id="NF4OEass7fatmLV0XUIu-29" style="edgeStyle=orthogonalEdgeStyle;rounded=1;orthogonalLoop=1;jettySize=auto;html=1;exitX=1;exitY=0.5;exitDx=0;exitDy=0;entryX=0;entryY=0.5;entryDx=0;entryDy=0;dashed=1;dashPattern=1 2;startArrow=none;startFill=0;" edge="1" parent="NF4OEass7fatmLV0XUIu-1" source="NF4OEass7fatmLV0XUIu-30" target="NF4OEass7fatmLV0XUIu-28">
          <mxGeometry relative="1" as="geometry" />
        </mxCell>
        <mxCell id="NF4OEass7fatmLV0XUIu-30" value="" style="ellipse;whiteSpace=wrap;html=1;dashed=1;" vertex="1" parent="NF4OEass7fatmLV0XUIu-1">
          <mxGeometry x="40" y="320" width="80" height="40" as="geometry" />
        </mxCell>
        <mxCell id="NF4OEass7fatmLV0XUIu-31" style="edgeStyle=orthogonalEdgeStyle;rounded=1;orthogonalLoop=1;jettySize=auto;html=1;entryX=0;entryY=0.5;entryDx=0;entryDy=0;dashed=1;dashPattern=1 2;startArrow=none;startFill=0;" edge="1" parent="NF4OEass7fatmLV0XUIu-1" source="NF4OEass7fatmLV0XUIu-32" target="NF4OEass7fatmLV0XUIu-92">
          <mxGeometry relative="1" as="geometry">
            <mxPoint x="359.9999999999998" y="260" as="targetPoint" />
          </mxGeometry>
        </mxCell>
        <mxCell id="NF4OEass7fatmLV0XUIu-32" value="&lt;i&gt;F&lt;/i&gt;" style="ellipse;whiteSpace=wrap;html=1;fillColor=#b0e3e6;strokeColor=#0e8088;" vertex="1" parent="NF4OEass7fatmLV0XUIu-1">
          <mxGeometry x="160.06000000000012" y="240" width="80" height="40" as="geometry" />
        </mxCell>
        <mxCell id="NF4OEass7fatmLV0XUIu-33" style="edgeStyle=orthogonalEdgeStyle;rounded=1;orthogonalLoop=1;jettySize=auto;html=1;exitX=1;exitY=0.5;exitDx=0;exitDy=0;entryX=0;entryY=0.5;entryDx=0;entryDy=0;dashed=1;dashPattern=1 2;startArrow=none;startFill=0;" edge="1" parent="NF4OEass7fatmLV0XUIu-1" source="NF4OEass7fatmLV0XUIu-34" target="NF4OEass7fatmLV0XUIu-32">
          <mxGeometry relative="1" as="geometry" />
        </mxCell>
        <mxCell id="NF4OEass7fatmLV0XUIu-34" value="&lt;i&gt;T&lt;sub&gt;1&lt;/sub&gt;&lt;/i&gt;" style="ellipse;whiteSpace=wrap;html=1;fillColor=#f5f5f5;strokeColor=#666666;fontColor=#333333;" vertex="1" parent="NF4OEass7fatmLV0XUIu-1">
          <mxGeometry x="40.00000000000006" y="240" width="80" height="40" as="geometry" />
        </mxCell>
        <mxCell id="NF4OEass7fatmLV0XUIu-39" style="edgeStyle=orthogonalEdgeStyle;rounded=1;orthogonalLoop=1;jettySize=auto;html=1;entryX=0.5;entryY=1;entryDx=0;entryDy=0;startArrow=none;startFill=0;" edge="1" parent="NF4OEass7fatmLV0XUIu-1" source="NF4OEass7fatmLV0XUIu-40" target="NF4OEass7fatmLV0XUIu-92">
          <mxGeometry relative="1" as="geometry">
            <mxPoint x="399.9999999999998" y="280" as="targetPoint" />
          </mxGeometry>
        </mxCell>
        <mxCell id="NF4OEass7fatmLV0XUIu-40" value="head" style="rounded=1;whiteSpace=wrap;html=1;fillColor=#fff2cc;strokeColor=#d6b656;" vertex="1" parent="NF4OEass7fatmLV0XUIu-1">
          <mxGeometry x="380" y="320" width="40" height="40" as="geometry" />
        </mxCell>
        <mxCell id="NF4OEass7fatmLV0XUIu-41" style="edgeStyle=orthogonalEdgeStyle;rounded=1;orthogonalLoop=1;jettySize=auto;html=1;startArrow=none;startFill=0;entryX=0.5;entryY=1;entryDx=0;entryDy=0;" edge="1" parent="NF4OEass7fatmLV0XUIu-1" source="NF4OEass7fatmLV0XUIu-8" target="NF4OEass7fatmLV0XUIu-92">
          <mxGeometry relative="1" as="geometry">
            <mxPoint x="400" y="280" as="targetPoint" />
            <Array as="points">
              <mxPoint x="480" y="300" />
              <mxPoint x="400" y="300" />
            </Array>
          </mxGeometry>
        </mxCell>
        <mxCell id="NF4OEass7fatmLV0XUIu-42" value="" style="ellipse;whiteSpace=wrap;html=1;fillColor=#f5f5f5;strokeColor=#666666;fontColor=#333333;" vertex="1" parent="NF4OEass7fatmLV0XUIu-1">
          <mxGeometry x="140.06000000000006" y="420" width="80" height="40" as="geometry" />
        </mxCell>
        <mxCell id="NF4OEass7fatmLV0XUIu-43" value="" style="ellipse;whiteSpace=wrap;html=1;fillColor=#f5f5f5;strokeColor=#666666;fontColor=#333333;" vertex="1" parent="NF4OEass7fatmLV0XUIu-1">
          <mxGeometry x="150.06000000000006" y="410" width="80" height="40" as="geometry" />
        </mxCell>
        <mxCell id="NF4OEass7fatmLV0XUIu-44" style="edgeStyle=orthogonalEdgeStyle;rounded=1;orthogonalLoop=1;jettySize=auto;html=1;entryX=0;entryY=0.5;entryDx=0;entryDy=0;dashed=1;dashPattern=1 2;startArrow=none;startFill=0;" edge="1" parent="NF4OEass7fatmLV0XUIu-1" source="NF4OEass7fatmLV0XUIu-45" target="NF4OEass7fatmLV0XUIu-8">
          <mxGeometry relative="1" as="geometry" />
        </mxCell>
        <mxCell id="NF4OEass7fatmLV0XUIu-45" value="&lt;i&gt;T&lt;sub&gt;1&lt;/sub&gt;&lt;/i&gt;" style="ellipse;whiteSpace=wrap;html=1;fillColor=#f5f5f5;strokeColor=#666666;fontColor=#333333;" vertex="1" parent="NF4OEass7fatmLV0XUIu-1">
          <mxGeometry x="160.06000000000006" y="400" width="80" height="40" as="geometry" />
        </mxCell>
        <mxCell id="NF4OEass7fatmLV0XUIu-97" style="edgeStyle=orthogonalEdgeStyle;rounded=1;orthogonalLoop=1;jettySize=auto;html=1;entryX=0.5;entryY=1;entryDx=0;entryDy=0;startArrow=none;startFill=0;" edge="1" parent="NF4OEass7fatmLV0XUIu-1" source="NF4OEass7fatmLV0XUIu-92" target="NF4OEass7fatmLV0XUIu-93">
          <mxGeometry relative="1" as="geometry" />
        </mxCell>
        <mxCell id="NF4OEass7fatmLV0XUIu-98" style="edgeStyle=orthogonalEdgeStyle;rounded=1;orthogonalLoop=1;jettySize=auto;html=1;entryX=0.5;entryY=1;entryDx=0;entryDy=0;startArrow=none;startFill=0;" edge="1" parent="NF4OEass7fatmLV0XUIu-1" source="NF4OEass7fatmLV0XUIu-92" target="NF4OEass7fatmLV0XUIu-94">
          <mxGeometry relative="1" as="geometry" />
        </mxCell>
        <mxCell id="NF4OEass7fatmLV0XUIu-99" style="edgeStyle=orthogonalEdgeStyle;rounded=1;orthogonalLoop=1;jettySize=auto;html=1;entryX=0.5;entryY=1;entryDx=0;entryDy=0;startArrow=none;startFill=0;" edge="1" parent="NF4OEass7fatmLV0XUIu-1" source="NF4OEass7fatmLV0XUIu-92" target="NF4OEass7fatmLV0XUIu-95">
          <mxGeometry relative="1" as="geometry" />
        </mxCell>
        <mxCell id="NF4OEass7fatmLV0XUIu-100" style="edgeStyle=orthogonalEdgeStyle;rounded=1;orthogonalLoop=1;jettySize=auto;html=1;entryX=0.5;entryY=1;entryDx=0;entryDy=0;startArrow=none;startFill=0;" edge="1" parent="NF4OEass7fatmLV0XUIu-1" source="NF4OEass7fatmLV0XUIu-92" target="NF4OEass7fatmLV0XUIu-96">
          <mxGeometry relative="1" as="geometry" />
        </mxCell>
        <mxCell id="NF4OEass7fatmLV0XUIu-92" value="" style="rounded=0;whiteSpace=wrap;html=1;fillColor=#dae8fc;strokeColor=#6c8ebf;" vertex="1" parent="NF4OEass7fatmLV0XUIu-1">
          <mxGeometry x="390.00000000000006" y="250" width="20" height="20" as="geometry" />
        </mxCell>
        <mxCell id="NF4OEass7fatmLV0XUIu-93" value="&lt;i&gt;H&lt;/i&gt;" style="rounded=1;whiteSpace=wrap;html=1;" vertex="1" parent="NF4OEass7fatmLV0XUIu-1">
          <mxGeometry x="360.00000000000006" y="80" width="80" height="40" as="geometry" />
        </mxCell>
        <mxCell id="NF4OEass7fatmLV0XUIu-94" value="&lt;i&gt;P&lt;sub&gt;1&lt;/sub&gt;&lt;/i&gt;" style="rounded=1;whiteSpace=wrap;html=1;" vertex="1" parent="NF4OEass7fatmLV0XUIu-1">
          <mxGeometry x="440.00000000000006" y="160" width="80" height="40" as="geometry" />
        </mxCell>
        <mxCell id="NF4OEass7fatmLV0XUIu-101" style="edgeStyle=orthogonalEdgeStyle;rounded=1;orthogonalLoop=1;jettySize=auto;html=1;entryX=0;entryY=0.5;entryDx=0;entryDy=0;dashed=1;dashPattern=1 2;startArrow=none;startFill=0;" edge="1" parent="NF4OEass7fatmLV0XUIu-1" source="NF4OEass7fatmLV0XUIu-102" target="NF4OEass7fatmLV0XUIu-106">
          <mxGeometry relative="1" as="geometry">
            <Array as="points">
              <mxPoint x="140.06" y="120" />
              <mxPoint x="140.06" y="100" />
            </Array>
          </mxGeometry>
        </mxCell>
        <mxCell id="NF4OEass7fatmLV0XUIu-102" value="" style="ellipse;whiteSpace=wrap;html=1;dashed=1;" vertex="1" parent="NF4OEass7fatmLV0XUIu-1">
          <mxGeometry x="20.060000000000002" y="100" width="80" height="40" as="geometry" />
        </mxCell>
        <mxCell id="NF4OEass7fatmLV0XUIu-103" style="edgeStyle=orthogonalEdgeStyle;rounded=1;orthogonalLoop=1;jettySize=auto;html=1;entryX=0;entryY=0.5;entryDx=0;entryDy=0;dashed=1;dashPattern=1 2;startArrow=none;startFill=0;" edge="1" parent="NF4OEass7fatmLV0XUIu-1" source="NF4OEass7fatmLV0XUIu-104" target="NF4OEass7fatmLV0XUIu-106">
          <mxGeometry relative="1" as="geometry" />
        </mxCell>
        <mxCell id="NF4OEass7fatmLV0XUIu-104" value="" style="ellipse;whiteSpace=wrap;html=1;dashed=1;" vertex="1" parent="NF4OEass7fatmLV0XUIu-1">
          <mxGeometry x="30.060000000000002" y="90" width="80" height="40" as="geometry" />
        </mxCell>
        <mxCell id="NF4OEass7fatmLV0XUIu-105" style="edgeStyle=orthogonalEdgeStyle;rounded=1;orthogonalLoop=1;jettySize=auto;html=1;startArrow=none;startFill=0;dashed=1;dashPattern=1 2;entryX=0;entryY=0.5;entryDx=0;entryDy=0;" edge="1" parent="NF4OEass7fatmLV0XUIu-1" source="NF4OEass7fatmLV0XUIu-106" target="NF4OEass7fatmLV0XUIu-93">
          <mxGeometry relative="1" as="geometry">
            <mxPoint x="320" y="110" as="targetPoint" />
          </mxGeometry>
        </mxCell>
        <mxCell id="NF4OEass7fatmLV0XUIu-106" value="&lt;i&gt;F&lt;/i&gt;" style="ellipse;whiteSpace=wrap;html=1;fillColor=#b0e3e6;strokeColor=#0e8088;" vertex="1" parent="NF4OEass7fatmLV0XUIu-1">
          <mxGeometry x="160.12000000000012" y="80" width="80" height="40" as="geometry" />
        </mxCell>
        <mxCell id="NF4OEass7fatmLV0XUIu-107" style="edgeStyle=orthogonalEdgeStyle;rounded=1;orthogonalLoop=1;jettySize=auto;html=1;exitX=1;exitY=0.5;exitDx=0;exitDy=0;entryX=0;entryY=0.5;entryDx=0;entryDy=0;dashed=1;dashPattern=1 2;startArrow=none;startFill=0;" edge="1" parent="NF4OEass7fatmLV0XUIu-1" source="NF4OEass7fatmLV0XUIu-108" target="NF4OEass7fatmLV0XUIu-106">
          <mxGeometry relative="1" as="geometry" />
        </mxCell>
        <mxCell id="NF4OEass7fatmLV0XUIu-108" value="" style="ellipse;whiteSpace=wrap;html=1;dashed=1;" vertex="1" parent="NF4OEass7fatmLV0XUIu-1">
          <mxGeometry x="40.06" y="80" width="80" height="40" as="geometry" />
        </mxCell>
        <mxCell id="NF4OEass7fatmLV0XUIu-111" value="" style="ellipse;whiteSpace=wrap;html=1;fillColor=#f5f5f5;strokeColor=#666666;fontColor=#333333;" vertex="1" parent="NF4OEass7fatmLV0XUIu-1">
          <mxGeometry x="140.06000000000006" y="180" width="80" height="40" as="geometry" />
        </mxCell>
        <mxCell id="NF4OEass7fatmLV0XUIu-112" value="" style="ellipse;whiteSpace=wrap;html=1;fillColor=#f5f5f5;strokeColor=#666666;fontColor=#333333;" vertex="1" parent="NF4OEass7fatmLV0XUIu-1">
          <mxGeometry x="150.06000000000006" y="170" width="80" height="40" as="geometry" />
        </mxCell>
        <mxCell id="NF4OEass7fatmLV0XUIu-113" style="edgeStyle=orthogonalEdgeStyle;rounded=1;orthogonalLoop=1;jettySize=auto;html=1;dashed=1;dashPattern=1 2;startArrow=none;startFill=0;entryX=0;entryY=0.5;entryDx=0;entryDy=0;" edge="1" parent="NF4OEass7fatmLV0XUIu-1" source="NF4OEass7fatmLV0XUIu-114" target="NF4OEass7fatmLV0XUIu-94">
          <mxGeometry relative="1" as="geometry">
            <mxPoint x="430" y="180" as="targetPoint" />
          </mxGeometry>
        </mxCell>
        <mxCell id="NF4OEass7fatmLV0XUIu-114" value="&lt;i&gt;T&lt;sub&gt;1&lt;/sub&gt;&lt;/i&gt;" style="ellipse;whiteSpace=wrap;html=1;fillColor=#f5f5f5;strokeColor=#666666;fontColor=#333333;" vertex="1" parent="NF4OEass7fatmLV0XUIu-1">
          <mxGeometry x="160.06000000000006" y="160" width="80" height="40" as="geometry" />
        </mxCell>
        <mxCell id="NF4OEass7fatmLV0XUIu-127" style="edgeStyle=orthogonalEdgeStyle;rounded=1;orthogonalLoop=1;jettySize=auto;html=1;entryX=0.5;entryY=1;entryDx=0;entryDy=0;startArrow=none;startFill=0;" edge="1" parent="NF4OEass7fatmLV0XUIu-1" source="NF4OEass7fatmLV0XUIu-115" target="NF4OEass7fatmLV0XUIu-40">
          <mxGeometry relative="1" as="geometry" />
        </mxCell>
        <mxCell id="NF4OEass7fatmLV0XUIu-115" value="&lt;i&gt;U&lt;/i&gt;" style="rounded=1;whiteSpace=wrap;html=1;" vertex="1" parent="NF4OEass7fatmLV0XUIu-1">
          <mxGeometry x="360.00000000000006" y="480" width="80" height="40" as="geometry" />
        </mxCell>
        <mxCell id="NF4OEass7fatmLV0XUIu-130" style="edgeStyle=orthogonalEdgeStyle;rounded=1;orthogonalLoop=1;jettySize=auto;html=1;entryX=0.5;entryY=1;entryDx=0;entryDy=0;startArrow=none;startFill=0;" edge="1" parent="NF4OEass7fatmLV0XUIu-1" source="NF4OEass7fatmLV0XUIu-116" target="NF4OEass7fatmLV0XUIu-3">
          <mxGeometry relative="1" as="geometry" />
        </mxCell>
        <mxCell id="NF4OEass7fatmLV0XUIu-116" value="" style="rounded=1;whiteSpace=wrap;html=1;" vertex="1" parent="NF4OEass7fatmLV0XUIu-1">
          <mxGeometry x="460.00000000000006" y="580" width="80" height="40" as="geometry" />
        </mxCell>
        <mxCell id="NF4OEass7fatmLV0XUIu-117" style="edgeStyle=orthogonalEdgeStyle;rounded=1;orthogonalLoop=1;jettySize=auto;html=1;dashed=1;dashPattern=1 2;startArrow=none;startFill=0;entryX=0;entryY=0.5;entryDx=0;entryDy=0;" edge="1" parent="NF4OEass7fatmLV0XUIu-1" source="NF4OEass7fatmLV0XUIu-121" target="NF4OEass7fatmLV0XUIu-116">
          <mxGeometry relative="1" as="geometry">
            <mxPoint x="420" y="610" as="targetPoint" />
          </mxGeometry>
        </mxCell>
        <mxCell id="NF4OEass7fatmLV0XUIu-129" style="edgeStyle=orthogonalEdgeStyle;rounded=1;orthogonalLoop=1;jettySize=auto;html=1;entryX=0.5;entryY=1;entryDx=0;entryDy=0;startArrow=none;startFill=0;" edge="1" parent="NF4OEass7fatmLV0XUIu-1" source="NF4OEass7fatmLV0XUIu-118" target="NF4OEass7fatmLV0XUIu-7">
          <mxGeometry relative="1" as="geometry" />
        </mxCell>
        <mxCell id="NF4OEass7fatmLV0XUIu-118" value="" style="rounded=1;whiteSpace=wrap;html=1;" vertex="1" parent="NF4OEass7fatmLV0XUIu-1">
          <mxGeometry x="450.00000000000006" y="570" width="80" height="40" as="geometry" />
        </mxCell>
        <mxCell id="NF4OEass7fatmLV0XUIu-119" style="edgeStyle=orthogonalEdgeStyle;rounded=1;orthogonalLoop=1;jettySize=auto;html=1;dashed=1;dashPattern=1 2;startArrow=none;startFill=0;entryX=0;entryY=0.5;entryDx=0;entryDy=0;" edge="1" parent="NF4OEass7fatmLV0XUIu-1" source="NF4OEass7fatmLV0XUIu-122" target="NF4OEass7fatmLV0XUIu-118">
          <mxGeometry relative="1" as="geometry">
            <mxPoint x="420" y="590" as="targetPoint" />
          </mxGeometry>
        </mxCell>
        <mxCell id="NF4OEass7fatmLV0XUIu-128" style="edgeStyle=orthogonalEdgeStyle;rounded=1;orthogonalLoop=1;jettySize=auto;html=1;entryX=0.5;entryY=1;entryDx=0;entryDy=0;startArrow=none;startFill=0;" edge="1" parent="NF4OEass7fatmLV0XUIu-1" source="NF4OEass7fatmLV0XUIu-120" target="NF4OEass7fatmLV0XUIu-8">
          <mxGeometry relative="1" as="geometry" />
        </mxCell>
        <mxCell id="NF4OEass7fatmLV0XUIu-120" value="&lt;i&gt;U&lt;sub&gt;1&lt;/sub&gt;&lt;/i&gt;" style="rounded=1;whiteSpace=wrap;html=1;" vertex="1" parent="NF4OEass7fatmLV0XUIu-1">
          <mxGeometry x="440.00000000000006" y="560" width="80" height="40" as="geometry" />
        </mxCell>
        <mxCell id="NF4OEass7fatmLV0XUIu-121" value="" style="ellipse;whiteSpace=wrap;html=1;fillColor=#f5f5f5;strokeColor=#666666;fontColor=#333333;" vertex="1" parent="NF4OEass7fatmLV0XUIu-1">
          <mxGeometry x="140.06000000000006" y="580" width="80" height="40" as="geometry" />
        </mxCell>
        <mxCell id="NF4OEass7fatmLV0XUIu-122" value="" style="ellipse;whiteSpace=wrap;html=1;fillColor=#f5f5f5;strokeColor=#666666;fontColor=#333333;" vertex="1" parent="NF4OEass7fatmLV0XUIu-1">
          <mxGeometry x="150.06000000000006" y="570" width="80" height="40" as="geometry" />
        </mxCell>
        <mxCell id="NF4OEass7fatmLV0XUIu-123" style="edgeStyle=orthogonalEdgeStyle;rounded=1;orthogonalLoop=1;jettySize=auto;html=1;dashed=1;dashPattern=1 2;startArrow=none;startFill=0;entryX=0;entryY=0.5;entryDx=0;entryDy=0;" edge="1" parent="NF4OEass7fatmLV0XUIu-1" source="NF4OEass7fatmLV0XUIu-124" target="NF4OEass7fatmLV0XUIu-120">
          <mxGeometry relative="1" as="geometry">
            <mxPoint x="430" y="580" as="targetPoint" />
          </mxGeometry>
        </mxCell>
        <mxCell id="NF4OEass7fatmLV0XUIu-124" value="&lt;i&gt;T&#39;&lt;sub&gt;1&lt;/sub&gt;&lt;/i&gt;" style="ellipse;whiteSpace=wrap;html=1;fillColor=#f5f5f5;strokeColor=#666666;fontColor=#333333;" vertex="1" parent="NF4OEass7fatmLV0XUIu-1">
          <mxGeometry x="160.06000000000006" y="560" width="80" height="40" as="geometry" />
        </mxCell>
        <mxCell id="NF4OEass7fatmLV0XUIu-126" style="edgeStyle=orthogonalEdgeStyle;rounded=1;orthogonalLoop=1;jettySize=auto;html=1;entryX=0;entryY=0.5;entryDx=0;entryDy=0;startArrow=none;startFill=0;dashed=1;dashPattern=1 2;" edge="1" parent="NF4OEass7fatmLV0XUIu-1" source="NF4OEass7fatmLV0XUIu-125" target="NF4OEass7fatmLV0XUIu-115">
          <mxGeometry relative="1" as="geometry" />
        </mxCell>
        <mxCell id="NF4OEass7fatmLV0XUIu-125" value="&lt;i&gt;T&#39;&lt;/i&gt;" style="ellipse;whiteSpace=wrap;html=1;fillColor=#f5f5f5;strokeColor=#666666;fontColor=#333333;" vertex="1" parent="NF4OEass7fatmLV0XUIu-1">
          <mxGeometry x="160.06000000000006" y="480" width="80" height="40" as="geometry" />
        </mxCell>
        <mxCell id="NF4OEass7fatmLV0XUIu-131" value="" style="rounded=1;whiteSpace=wrap;html=1;" vertex="1" parent="NF4OEass7fatmLV0XUIu-1">
          <mxGeometry x="900" y="180" width="80" height="40" as="geometry" />
        </mxCell>
        <mxCell id="NF4OEass7fatmLV0XUIu-132" value="" style="rounded=1;whiteSpace=wrap;html=1;" vertex="1" parent="NF4OEass7fatmLV0XUIu-1">
          <mxGeometry x="890" y="170" width="80" height="40" as="geometry" />
        </mxCell>
        <mxCell id="NF4OEass7fatmLV0XUIu-133" style="edgeStyle=orthogonalEdgeStyle;rounded=1;orthogonalLoop=1;jettySize=auto;html=1;entryX=0.5;entryY=1;entryDx=0;entryDy=0;startArrow=none;startFill=0;opacity=50;textOpacity=50;" edge="1" parent="NF4OEass7fatmLV0XUIu-1" source="NF4OEass7fatmLV0XUIu-134" target="NF4OEass7fatmLV0XUIu-145">
          <mxGeometry relative="1" as="geometry">
            <mxPoint x="839.9999999999998" y="280" as="targetPoint" />
            <Array as="points">
              <mxPoint x="940" y="300" />
              <mxPoint x="840" y="300" />
            </Array>
          </mxGeometry>
        </mxCell>
        <mxCell id="NF4OEass7fatmLV0XUIu-134" value="" style="rounded=1;whiteSpace=wrap;html=1;fillColor=#fff2cc;strokeColor=#d6b656;opacity=50;textOpacity=50;" vertex="1" parent="NF4OEass7fatmLV0XUIu-1">
          <mxGeometry x="919.94" y="420" width="40" height="40" as="geometry" />
        </mxCell>
        <mxCell id="NF4OEass7fatmLV0XUIu-135" style="edgeStyle=orthogonalEdgeStyle;rounded=1;orthogonalLoop=1;jettySize=auto;html=1;entryX=0.5;entryY=1;entryDx=0;entryDy=0;startArrow=none;startFill=0;opacity=50;textOpacity=50;" edge="1" parent="NF4OEass7fatmLV0XUIu-1" source="NF4OEass7fatmLV0XUIu-136" target="NF4OEass7fatmLV0XUIu-145">
          <mxGeometry relative="1" as="geometry">
            <mxPoint x="839.9999999999998" y="280" as="targetPoint" />
            <Array as="points">
              <mxPoint x="930" y="300" />
              <mxPoint x="840" y="300" />
            </Array>
          </mxGeometry>
        </mxCell>
        <mxCell id="NF4OEass7fatmLV0XUIu-136" value="" style="rounded=1;whiteSpace=wrap;html=1;fillColor=#fff2cc;strokeColor=#d6b656;opacity=50;textOpacity=50;" vertex="1" parent="NF4OEass7fatmLV0XUIu-1">
          <mxGeometry x="909.94" y="410" width="40" height="40" as="geometry" />
        </mxCell>
        <mxCell id="NF4OEass7fatmLV0XUIu-137" value="1" style="rounded=1;whiteSpace=wrap;html=1;fillColor=#fff2cc;strokeColor=#d6b656;opacity=50;textOpacity=50;" vertex="1" parent="NF4OEass7fatmLV0XUIu-1">
          <mxGeometry x="899.94" y="400" width="40" height="40" as="geometry" />
        </mxCell>
        <mxCell id="NF4OEass7fatmLV0XUIu-138" style="edgeStyle=orthogonalEdgeStyle;rounded=1;orthogonalLoop=1;jettySize=auto;html=1;entryX=0.5;entryY=1;entryDx=0;entryDy=0;startArrow=none;startFill=0;" edge="1" parent="NF4OEass7fatmLV0XUIu-1" source="NF4OEass7fatmLV0XUIu-139" target="NF4OEass7fatmLV0XUIu-145">
          <mxGeometry relative="1" as="geometry">
            <mxPoint x="839.9999999999998" y="280" as="targetPoint" />
          </mxGeometry>
        </mxCell>
        <mxCell id="NF4OEass7fatmLV0XUIu-139" value="head" style="rounded=1;whiteSpace=wrap;html=1;fillColor=#fff2cc;strokeColor=#d6b656;opacity=50;textOpacity=50;" vertex="1" parent="NF4OEass7fatmLV0XUIu-1">
          <mxGeometry x="820" y="320" width="40" height="40" as="geometry" />
        </mxCell>
        <mxCell id="NF4OEass7fatmLV0XUIu-140" style="edgeStyle=orthogonalEdgeStyle;rounded=1;orthogonalLoop=1;jettySize=auto;html=1;startArrow=none;startFill=0;entryX=0.5;entryY=1;entryDx=0;entryDy=0;opacity=50;textOpacity=50;" edge="1" parent="NF4OEass7fatmLV0XUIu-1" source="NF4OEass7fatmLV0XUIu-137" target="NF4OEass7fatmLV0XUIu-145">
          <mxGeometry relative="1" as="geometry">
            <mxPoint x="840" y="280" as="targetPoint" />
            <Array as="points">
              <mxPoint x="920" y="300" />
              <mxPoint x="840" y="300" />
            </Array>
          </mxGeometry>
        </mxCell>
        <mxCell id="NF4OEass7fatmLV0XUIu-141" style="edgeStyle=orthogonalEdgeStyle;rounded=1;orthogonalLoop=1;jettySize=auto;html=1;entryX=0.5;entryY=1;entryDx=0;entryDy=0;startArrow=none;startFill=0;opacity=50;textOpacity=50;" edge="1" parent="NF4OEass7fatmLV0XUIu-1" source="NF4OEass7fatmLV0XUIu-145" target="NF4OEass7fatmLV0XUIu-146">
          <mxGeometry relative="1" as="geometry" />
        </mxCell>
        <mxCell id="NF4OEass7fatmLV0XUIu-142" style="edgeStyle=orthogonalEdgeStyle;rounded=1;orthogonalLoop=1;jettySize=auto;html=1;entryX=0.5;entryY=1;entryDx=0;entryDy=0;startArrow=none;startFill=0;opacity=50;textOpacity=50;" edge="1" parent="NF4OEass7fatmLV0XUIu-1" source="NF4OEass7fatmLV0XUIu-145" target="NF4OEass7fatmLV0XUIu-147">
          <mxGeometry relative="1" as="geometry" />
        </mxCell>
        <mxCell id="NF4OEass7fatmLV0XUIu-143" style="edgeStyle=orthogonalEdgeStyle;rounded=1;orthogonalLoop=1;jettySize=auto;html=1;entryX=0.5;entryY=1;entryDx=0;entryDy=0;startArrow=none;startFill=0;opacity=50;textOpacity=50;" edge="1" parent="NF4OEass7fatmLV0XUIu-1" source="NF4OEass7fatmLV0XUIu-145" target="NF4OEass7fatmLV0XUIu-132">
          <mxGeometry relative="1" as="geometry" />
        </mxCell>
        <mxCell id="NF4OEass7fatmLV0XUIu-144" style="edgeStyle=orthogonalEdgeStyle;rounded=1;orthogonalLoop=1;jettySize=auto;html=1;entryX=0.5;entryY=1;entryDx=0;entryDy=0;startArrow=none;startFill=0;opacity=50;textOpacity=50;" edge="1" parent="NF4OEass7fatmLV0XUIu-1" source="NF4OEass7fatmLV0XUIu-145" target="NF4OEass7fatmLV0XUIu-131">
          <mxGeometry relative="1" as="geometry" />
        </mxCell>
        <mxCell id="NF4OEass7fatmLV0XUIu-145" value="" style="rounded=0;whiteSpace=wrap;html=1;fillColor=#dae8fc;strokeColor=#6c8ebf;opacity=50;textOpacity=50;" vertex="1" parent="NF4OEass7fatmLV0XUIu-1">
          <mxGeometry x="830" y="250" width="20" height="20" as="geometry" />
        </mxCell>
        <mxCell id="NF4OEass7fatmLV0XUIu-146" value="&lt;i&gt;H&lt;/i&gt;" style="rounded=1;whiteSpace=wrap;html=1;" vertex="1" parent="NF4OEass7fatmLV0XUIu-1">
          <mxGeometry x="800" y="80" width="80" height="40" as="geometry" />
        </mxCell>
        <mxCell id="NF4OEass7fatmLV0XUIu-147" value="&lt;i&gt;P&lt;sub&gt;1&lt;/sub&gt;&lt;/i&gt;" style="rounded=1;whiteSpace=wrap;html=1;" vertex="1" parent="NF4OEass7fatmLV0XUIu-1">
          <mxGeometry x="880" y="160" width="80" height="40" as="geometry" />
        </mxCell>
        <mxCell id="NF4OEass7fatmLV0XUIu-148" style="edgeStyle=orthogonalEdgeStyle;rounded=1;orthogonalLoop=1;jettySize=auto;html=1;entryX=0.5;entryY=1;entryDx=0;entryDy=0;startArrow=none;startFill=0;" edge="1" parent="NF4OEass7fatmLV0XUIu-1" source="NF4OEass7fatmLV0XUIu-149" target="NF4OEass7fatmLV0XUIu-146">
          <mxGeometry relative="1" as="geometry">
            <Array as="points">
              <mxPoint x="840" y="460" />
              <mxPoint x="760" y="460" />
              <mxPoint x="760" y="140" />
              <mxPoint x="840" y="140" />
            </Array>
          </mxGeometry>
        </mxCell>
        <mxCell id="NF4OEass7fatmLV0XUIu-149" value="&lt;i&gt;U&lt;/i&gt;" style="rounded=1;whiteSpace=wrap;html=1;" vertex="1" parent="NF4OEass7fatmLV0XUIu-1">
          <mxGeometry x="800" y="480" width="80" height="40" as="geometry" />
        </mxCell>
        <mxCell id="NF4OEass7fatmLV0XUIu-150" style="edgeStyle=orthogonalEdgeStyle;rounded=1;orthogonalLoop=1;jettySize=auto;html=1;entryX=0.5;entryY=1;entryDx=0;entryDy=0;startArrow=none;startFill=0;" edge="1" parent="NF4OEass7fatmLV0XUIu-1" source="NF4OEass7fatmLV0XUIu-151" target="NF4OEass7fatmLV0XUIu-131">
          <mxGeometry relative="1" as="geometry">
            <Array as="points">
              <mxPoint x="940" y="540" />
              <mxPoint x="1020" y="540" />
              <mxPoint x="1020" y="260" />
              <mxPoint x="940" y="260" />
            </Array>
          </mxGeometry>
        </mxCell>
        <mxCell id="NF4OEass7fatmLV0XUIu-151" value="" style="rounded=1;whiteSpace=wrap;html=1;" vertex="1" parent="NF4OEass7fatmLV0XUIu-1">
          <mxGeometry x="900" y="580" width="80" height="40" as="geometry" />
        </mxCell>
        <mxCell id="NF4OEass7fatmLV0XUIu-152" style="edgeStyle=orthogonalEdgeStyle;rounded=1;orthogonalLoop=1;jettySize=auto;html=1;entryX=0.5;entryY=1;entryDx=0;entryDy=0;startArrow=none;startFill=0;" edge="1" parent="NF4OEass7fatmLV0XUIu-1" source="NF4OEass7fatmLV0XUIu-153" target="NF4OEass7fatmLV0XUIu-132">
          <mxGeometry relative="1" as="geometry">
            <Array as="points">
              <mxPoint x="930" y="530" />
              <mxPoint x="1010" y="530" />
              <mxPoint x="1010" y="250" />
              <mxPoint x="930" y="250" />
            </Array>
          </mxGeometry>
        </mxCell>
        <mxCell id="NF4OEass7fatmLV0XUIu-153" value="" style="rounded=1;whiteSpace=wrap;html=1;" vertex="1" parent="NF4OEass7fatmLV0XUIu-1">
          <mxGeometry x="890" y="570" width="80" height="40" as="geometry" />
        </mxCell>
        <mxCell id="NF4OEass7fatmLV0XUIu-154" style="edgeStyle=orthogonalEdgeStyle;rounded=1;orthogonalLoop=1;jettySize=auto;html=1;entryX=0.5;entryY=1;entryDx=0;entryDy=0;startArrow=none;startFill=0;" edge="1" parent="NF4OEass7fatmLV0XUIu-1" source="NF4OEass7fatmLV0XUIu-155" target="NF4OEass7fatmLV0XUIu-147">
          <mxGeometry relative="1" as="geometry">
            <Array as="points">
              <mxPoint x="920" y="520" />
              <mxPoint x="1000" y="520" />
              <mxPoint x="1000" y="240" />
              <mxPoint x="920" y="240" />
            </Array>
          </mxGeometry>
        </mxCell>
        <mxCell id="NF4OEass7fatmLV0XUIu-155" value="&lt;i&gt;U&lt;sub&gt;1&lt;/sub&gt;&lt;/i&gt;" style="rounded=1;whiteSpace=wrap;html=1;" vertex="1" parent="NF4OEass7fatmLV0XUIu-1">
          <mxGeometry x="880" y="560" width="80" height="40" as="geometry" />
        </mxCell>
        <mxCell id="D0i_mZvrXpLdZYCIWJ---0" value="" style="html=1;shadow=0;dashed=0;align=center;verticalAlign=middle;shape=mxgraph.arrows2.arrow;dy=0.6;dx=40;notch=0;fillColor=#eeeeee;strokeColor=none;" vertex="1" parent="NF4OEass7fatmLV0XUIu-1">
          <mxGeometry x="570" y="385" width="80" height="70" as="geometry" />
        </mxCell>
      </root>
    </mxGraphModel>
  </diagram>
</mxfile>
